<?xml version="1.0" encoding="UTF-8" standalone="no"?>
<!-- Created with Inkscape (http://www.inkscape.org/) -->
<svg
   xmlns:svg="http://www.w3.org/2000/svg"
   xmlns="http://www.w3.org/2000/svg"
   version="1.0"
   viewBox="0 0 744.09448 167.24409" width="667" height="150"

   id="svg2715">
  <defs
     id="defs2717" />
  <g
     transform="translate(5.4235543,-755.10897)"
     id="layer1">
    <g
       transform="translate(17.716529,17.716822)"
       id="g2776">
      <path
         d="M -5.4235543,755.12482 L -5.4235543,757.20126 L 70.516676,757.20126 L 68.399056,755.12482 L -5.4235543,755.12482"
         style="fill:#005fa9;fill-rule:evenodd;stroke:none"
         id="path10" />
      <path
         d="M 116.18544,756.43726 C 116.41369,756.66235 116.64829,756.92228 116.88604,757.20126 L 208.84491,757.20126 L 208.84491,755.12482 L 114.60673,755.12482 C 115.14881,755.50525 115.68139,755.93638 116.18544,756.43726"
         style="fill:#005fa9;fill-rule:evenodd;stroke:none"
         id="path14" />
      <path
         d="M 236.31082,755.12482 L 236.32667,886.00324 L 238.39994,886.00324 L 238.39994,757.20126 L 703.23787,757.20126 L 703.23787,755.12482 L 236.31082,755.12482"
         style="fill:#005fa9;fill-rule:evenodd;stroke:none"
         id="path18" />
      <path
         d="M 208.84491,765.78595 L 208.84491,763.71268 L 119.64722,763.71268 C 119.73282,764.36572 119.78988,765.0473 119.78671,765.78595 L 208.84491,765.78595"
         style="fill:#005fa9;fill-rule:evenodd;stroke:none"
         id="path22" />
      <path
         d="M -5.4235543,763.71268 L -5.4235543,765.78595 L 75.588876,765.78595 C 76.020006,765.07584 76.479696,764.38158 76.999586,763.71268 L -5.4235543,763.71268"
         style="fill:#005fa9;fill-rule:evenodd;stroke:none"
         id="path26" />
      <path
         d="M 72.279286,774.3738 C 72.425096,773.68271 72.602626,772.98845 72.799186,772.29736 L 45.688316,772.29736 C 46.534726,772.89968 47.412856,773.58443 48.316326,774.3738 L 72.279286,774.3738"
         style="fill:#005fa9;fill-rule:evenodd;stroke:none"
         id="path30" />
      <path
         d="M 18.577426,772.29736 L -5.4235543,772.29736 L -5.4235543,774.3738 L 17.147716,774.3738 C 17.306206,774.0885 17.464716,773.80318 17.651766,773.5242 C 17.933886,773.09307 18.244576,772.6873 18.577426,772.29736"
         style="fill:#005fa9;fill-rule:evenodd;stroke:none"
         id="path34" />
      <path
         d="M 208.84491,774.3738 L 208.84491,772.29736 L 154.55023,772.29736 C 155.13036,772.89968 155.6915,773.58443 156.21139,774.3738 L 208.84491,774.3738"
         style="fill:#005fa9;fill-rule:evenodd;stroke:none"
         id="path38" />
      <path
         d="M 116.41369,774.3738 L 129.90889,774.3738 C 130.59998,773.65735 131.33228,772.95358 132.12799,772.29736 L 117.9956,772.29736 C 117.57396,773.0043 117.05406,773.70807 116.41369,774.3738"
         style="fill:#005fa9;fill-rule:evenodd;stroke:none"
         id="path42" />
      <path
         d="M 15.299536,780.88207 L -5.4235543,780.88207 L -5.4235543,782.95848 L 15.489726,782.95848 C 15.435836,782.31495 15.274176,781.61752 15.299536,780.88207"
         style="fill:#005fa9;fill-rule:evenodd;stroke:none"
         id="path46" />
      <path
         d="M 106.43732,782.95848 L 120.41123,782.95848 C 121.65075,782.67636 122.92196,782.43225 124.24388,782.25471 C 124.46263,781.84578 124.72893,781.3766 125.0174,780.88207 L 105.78428,780.88207 C 105.984,781.56045 106.20592,782.25788 106.43732,782.95848"
         style="fill:#005fa9;fill-rule:evenodd;stroke:none"
         id="path50" />
      <path
         d="M 55.160616,782.14061 C 56.742526,782.1818 59.018666,782.38469 61.668886,782.95848 L 71.426516,782.95848 C 71.426516,782.29593 71.442366,781.5985 71.474066,780.88207 L 54.234956,780.88207 C 54.545616,781.30052 54.856296,781.6936 55.160616,782.14061"
         style="fill:#005fa9;fill-rule:evenodd;stroke:none"
         id="path54" />
      <path
         d="M 160.23426,782.88557 C 160.2406,782.90459 160.25645,782.93629 160.26597,782.95848 L 208.84491,782.95848 L 208.84491,780.88207 L 159.40054,780.88207 C 159.56537,781.2815 159.73022,781.66824 159.90141,782.08354 L 160.23426,782.88557"
         style="fill:#005fa9;fill-rule:evenodd;stroke:none"
         id="path58" />
      <path
         d="M -5.4235543,789.46992 L -5.4235543,791.54317 L 18.086056,791.54317 L 17.258676,789.46992 L -5.4235543,789.46992"
         style="fill:#005fa9;fill-rule:evenodd;stroke:none"
         id="path62" />
      <path
         d="M 208.84491,791.54317 L 208.84491,789.46992 L 162.83377,789.46992 C 163.09056,790.12297 163.36,790.81403 163.64533,791.54317 L 208.84491,791.54317"
         style="fill:#005fa9;fill-rule:evenodd;stroke:none"
         id="path66" />
      <path
         d="M -5.4235543,798.05461 L -5.4235543,800.13102 L 21.509806,800.13102 L 20.682396,798.05461 L -5.4235543,798.05461"
         style="fill:#005fa9;fill-rule:evenodd;stroke:none"
         id="path70" />
      <path
         d="M 208.84491,800.13102 L 208.84491,798.05461 L 166.19411,798.05461 C 166.45721,798.72985 166.72985,799.42411 167.00564,800.13102 L 208.84491,800.13102"
         style="fill:#005fa9;fill-rule:evenodd;stroke:none"
         id="path74" />
      <path
         d="M 208.84491,808.71573 L 208.84491,806.64246 L 169.54808,806.64246 C 169.81438,807.32721 170.08383,808.0183 170.35647,808.71573 L 208.84491,808.71573"
         style="fill:#005fa9;fill-rule:evenodd;stroke:none"
         id="path78" />
      <path
         d="M -5.4235543,806.64246 L -5.4235543,808.71573 L 24.933526,808.71573 L 24.106116,806.64246 L -5.4235543,806.64246"
         style="fill:#005fa9;fill-rule:evenodd;stroke:none"
         id="path82" />
      <path
         d="M 208.84491,817.30358 L 208.84491,815.22715 L 172.89891,815.22715 C 173.16835,815.91506 173.43782,816.60932 173.70727,817.30358 L 208.84491,817.30358"
         style="fill:#005fa9;fill-rule:evenodd;stroke:none"
         id="path86" />
      <path
         d="M -5.4235543,815.22715 L -5.4235543,817.30358 L 28.354096,817.30358 L 27.526686,815.22715 L -5.4235543,815.22715"
         style="fill:#005fa9;fill-rule:evenodd;stroke:none"
         id="path90" />
      <path
         d="M -5.4235543,823.81183 L -5.4235543,825.88827 L 31.777816,825.88827 L 30.950406,823.81183 L -5.4235543,823.81183"
         style="fill:#005fa9;fill-rule:evenodd;stroke:none"
         id="path94" />
      <path
         d="M 208.84491,825.88827 L 208.84491,823.81183 L 176.24971,823.81183 C 176.51918,824.50609 176.78863,825.19718 177.0581,825.88827 L 208.84491,825.88827"
         style="fill:#005fa9;fill-rule:evenodd;stroke:none"
         id="path98" />
      <path
         d="M -5.4235543,832.39968 L -5.4235543,834.47295 L 35.201556,834.47295 L 34.374146,832.39968 L -5.4235543,832.39968"
         style="fill:#005fa9;fill-rule:evenodd;stroke:none"
         id="path102" />
      <path
         d="M 208.84491,834.47295 L 208.84491,832.39968 L 179.59737,832.39968 C 179.86681,833.09711 180.13628,833.7882 180.40576,834.47295 L 208.84491,834.47295"
         style="fill:#005fa9;fill-rule:evenodd;stroke:none"
         id="path106" />
      <path
         d="M -5.4235543,840.98437 L -5.4235543,843.0608 L 38.625276,843.0608 L 37.797866,840.98437 L -5.4235543,840.98437"
         style="fill:#005fa9;fill-rule:evenodd;stroke:none"
         id="path110" />
      <path
         d="M 208.84491,843.0608 L 208.84491,840.98437 L 182.94183,840.98437 C 183.21764,841.68814 183.48711,842.37606 183.75339,843.0608 L 208.84491,843.0608"
         style="fill:#005fa9;fill-rule:evenodd;stroke:none"
         id="path114" />
      <path
         d="M -5.4235543,849.57222 L -5.4235543,851.64549 L 42.048996,851.64549 L 41.221606,849.57222 L -5.4235543,849.57222"
         style="fill:#005fa9;fill-rule:evenodd;stroke:none"
         id="path118" />
      <path
         d="M 208.84491,851.64549 L 208.84491,849.57222 L 186.28949,849.57222 C 186.56847,850.28233 186.83791,850.97659 187.09788,851.64549 L 208.84491,851.64549"
         style="fill:#005fa9;fill-rule:evenodd;stroke:none"
         id="path122" />
      <path
         d="M -5.4235543,858.15693 L -5.4235543,860.23334 L 45.472736,860.23334 L 44.645326,858.15693 L -5.4235543,858.15693"
         style="fill:#005fa9;fill-rule:evenodd;stroke:none"
         id="path126" />
      <path
         d="M 75.950286,858.15693 L 66.332126,858.15693 L 64.686846,859.04772 L 63.811876,860.09702 L 63.697746,860.23334 L 74.384236,860.23334 L 75.950286,858.15693"
         style="fill:#005fa9;fill-rule:evenodd;stroke:none"
         id="path130" />
      <path
         d="M 208.84491,860.23334 L 208.84491,858.15693 L 189.63397,858.15693 C 189.93195,858.92408 190.20142,859.61517 190.44234,860.23334 L 208.84491,860.23334"
         style="fill:#005fa9;fill-rule:evenodd;stroke:none"
         id="path134" />
      <path
         d="M 170.66079,858.15693 L 162.82426,858.15693 L 164.57416,860.23334 L 173.89748,860.23334 L 170.66079,858.15693"
         style="fill:#005fa9;fill-rule:evenodd;stroke:none"
         id="path138" />
      <path
         d="M 58.248316,866.74161 L 56.511096,868.81802 L 71.829116,868.81802 L 70.215526,866.74161 L 58.248316,866.74161"
         style="fill:#005fa9;fill-rule:evenodd;stroke:none"
         id="path142" />
      <path
         d="M -5.4235543,866.74161 L -5.4235543,868.81802 L 48.896456,868.81802 L 48.069076,866.74161 L -5.4235543,866.74161"
         style="fill:#005fa9;fill-rule:evenodd;stroke:none"
         id="path146" />
      <path
         d="M 184.05456,866.74161 L 168.9838,866.74161 L 167.47481,868.81802 L 187.29124,868.81802 L 184.05456,866.74161"
         style="fill:#005fa9;fill-rule:evenodd;stroke:none"
         id="path150" />
      <path
         d="M 208.84491,868.81802 L 208.84491,866.74161 L 192.97844,866.74161 L 193.78683,868.81802 L 208.84491,868.81802"
         style="fill:#005fa9;fill-rule:evenodd;stroke:none"
         id="path154" />
      <path
         d="M -5.4235543,875.32947 L -5.4235543,877.40271 L 78.508556,877.40271 L 76.894966,875.32947 L -5.4235543,875.32947"
         style="fill:#005fa9;fill-rule:evenodd;stroke:none"
         id="path158" />
      <path
         d="M 208.84491,877.40271 L 208.84491,875.32947 L 162.74183,875.32947 L 161.23287,877.40271 L 208.84491,877.40271"
         style="fill:#005fa9;fill-rule:evenodd;stroke:none"
         id="path162" />
      <path
         d="M 208.84491,885.99056 L 208.84491,883.91415 L 145.76585,883.91415 L 146.67566,885.99056 L 208.84491,885.99056"
         style="fill:#005fa9;fill-rule:evenodd;stroke:none"
         id="path166" />
      <path
         d="M -5.4235543,883.91415 L -5.4235543,885.99056 L 108.30452,885.99056 L 107.40105,883.91415 L -5.4235543,883.91415"
         style="fill:#005fa9;fill-rule:evenodd;stroke:none"
         id="path170" />
      <path
         d="M 152.17582,777.08743 C 153.23148,778.70418 154.2903,781.25296 155.40934,783.94758 L 155.7422,784.75594 C 157.01341,787.81193 186.84426,864.40204 187.14543,865.17556 L 188.67341,863.92336 L 171.62452,853.01181 L 172.03345,853.50952 L 163.50266,831.61032 L 163.24587,830.94778 L 155.65028,830.94778 L 163.79113,851.90862 L 165.00846,850.52327 L 151.0536,847.02664 L 151.77005,847.66063 L 145.3664,830.94778 L 137.60279,830.94778 L 138.14487,832.35847 L 144.17761,848.07277 L 145.14768,846.66523 L 133.21217,846.66523 L 134.17904,847.32778 L 128.11778,831.623 L 127.86101,830.95729 L 120.11322,830.95729 L 130.46683,857.63701 L 130.72362,858.29956 L 157.06731,858.29956 L 156.27163,857.92867 L 163.72775,866.78283 L 163.7119,865.46088 L 158.09762,872.43196 L 158.90281,872.04521 L 155.13036,872.04521 L 156.09726,872.7046 L 154.36004,868.24106 L 153.38997,869.65812 C 158.53191,869.32524 155.51713,870.7201 159.08985,867.33125 L 155.89437,863.94555 L 155.58688,863.61904 L 144.71652,863.61904 L 148.54603,873.45909 L 149.51293,872.04521 L 142.88737,872.04521 L 143.8511,872.69826 L 140.2625,863.64123 L 132.75251,863.64123 L 133.3041,865.05509 L 141.21038,885.34705 L 142.17726,883.93317 L 135.89727,883.93317 L 136.86414,884.59256 L 129.97864,866.98253 L 129.72187,866.32314 L 122.23405,866.32314 L 129.56019,885.34071 L 130.52707,883.93 L 124.09808,883.93 L 125.06178,884.58622 L 117.86245,866.32314 L 110.19392,866.32314 L 110.72966,867.73068 L 117.463,885.33754 L 118.43307,883.93 L 112.03259,883.93 L 112.99949,884.59256 L 105.15976,864.2816 L 104.903,863.61904 L 97.706806,863.61904 L 98.226726,865.01705 L 101.3461,873.44324 L 102.31934,872.04521 L 95.104156,872.04521 L 96.067856,872.69509 L 92.409546,863.61904 L 83.539536,863.61904 L 81.104886,867.52144 C 85.232396,870.89129 81.539206,869.1192 87.708266,869.63275 L 86.757216,869.00507 L 88.675136,873.48446 L 89.629336,872.03887 L 80.787886,872.03887 L 81.574056,872.39709 L 75.541326,865.4165 L 75.582536,866.71942 L 82.239786,857.89697 L 81.412396,858.31225 L 102.88996,858.31225 L 92.460266,830.94778 L 84.851966,830.94778 L 91.379266,848.06643 L 92.349306,846.65889 L 80.134836,846.65889 L 81.101716,847.31827 L 74.977046,831.61032 L 74.720276,830.94778 L 66.836166,830.94778 L 73.934086,849.42641 L 74.400086,848.14568 L 64.613926,853.5539 L 66.084876,854.08965 L 57.408246,831.623 L 57.151456,830.95729 L 49.454396,830.95729 L 59.906306,858.01427 L 60.080646,856.97445 L 51.736896,866.94131 L 53.496316,867.22346 C 53.236356,866.56725 27.314276,801.59246 26.505916,799.5287 L 25.351966,796.59634 C 23.798626,792.65273 21.192776,786.05252 20.932846,785.26632 C 19.699666,781.56996 19.813766,778.44108 21.259356,776.21564 C 22.739806,773.9395 25.653146,772.57317 29.920126,772.16107 C 29.977186,772.15473 34.336106,771.71406 39.576306,774.27552 C 42.847876,775.87328 47.701326,779.30017 52.240946,786.54071 L 52.576966,787.08283 L 53.210996,787.02576 C 53.309266,787.01625 63.155666,786.25225 72.272946,792.85877 C 72.459966,792.99509 74.178166,794.19657 75.585706,793.35013 C 77.211996,792.37375 76.815716,789.59354 76.682566,788.68056 C 76.184856,785.18392 75.205306,773.18184 81.428246,765.93495 C 81.428246,765.93495 82.363426,764.97122 82.496576,763.849 C 82.610706,762.88846 82.166896,761.94375 81.298266,761.05931 L 75.690326,755.41015 L 74.958026,757.18541 L 106.22494,757.18541 C 106.26298,757.18541 110.22879,757.24248 112.76489,759.81345 C 114.22315,761.29388 114.94909,763.35447 114.9269,765.93495 C 114.9269,765.99201 114.91107,769.65984 112.0738,771.72674 L 113.71591,772.42734 C 113.48134,770.69012 111.92163,767.4027 107.69269,767.4027 C 102.87728,767.4027 99.998816,772.02158 99.998816,776.48511 C 99.998816,780.49213 103.56203,789.53333 104.69693,791.67315 C 104.69693,791.67315 105.43874,793.3755 106.78288,793.88908 C 107.90193,794.31386 109.19534,793.87005 110.56801,792.75415 C 114.67013,789.4192 120.15127,787.43153 126.8529,786.84506 L 127.47424,786.79116 L 127.71835,786.21737 C 127.7881,786.05569 134.67994,770.19242 146.87538,773.07405 C 146.90075,773.08039 150.08989,773.89829 152.17582,777.08743 z M 147.3509,771.0515 C 141.55908,769.6852 135.9765,771.76479 131.21182,777.07475 C 127.69933,780.98666 125.88285,785.22831 125.80677,785.40899 L 126.67219,784.77813 C 119.54895,785.40265 113.69055,787.54249 109.25874,791.14374 C 108.4884,791.76825 107.86071,791.97749 107.44227,791.84751 C 106.98892,791.70802 106.52926,790.69993 106.52926,790.69993 C 105.23902,788.25894 102.07523,779.77568 102.07523,776.48511 C 102.07523,773.57492 103.8188,769.47914 107.69269,769.47914 C 111.08473,769.47914 111.61097,772.37979 111.65852,772.70949 L 111.90895,774.40867 C 111.90895,774.41501 113.29746,773.40375 113.29746,773.40375 C 117.01602,770.69646 117.00651,766.12514 117.00334,765.93178 C 117.0287,762.79336 116.09669,760.2319 114.22949,758.3425 C 111.07522,755.15653 106.42464,755.10897 106.22811,755.10897 C 106.22494,755.10897 74.958026,755.10897 74.958026,755.10897 L 72.440946,755.10897 L 74.225716,756.88424 L 79.814646,762.5112 C 80.109476,762.80921 80.518416,763.2657 80.426476,763.68098 C 80.366246,763.97264 79.868536,764.56862 79.868536,764.56862 C 72.903776,772.50343 74.098936,785.25681 74.628346,788.97537 C 74.939006,791.13423 74.606146,791.42272 74.450806,791.49561 C 74.295466,791.56853 73.870676,791.44806 73.490276,791.17861 C 68.386376,787.47908 63.111276,785.98278 59.586116,785.38045 C 56.926376,784.92713 55.810496,784.93347 53.112736,784.95249 L 54.000356,785.44069 C 49.200806,777.78169 44.001796,774.12652 40.486136,772.40832 C 34.672126,769.5679 29.901106,770.07195 29.701376,770.09414 C 24.794036,770.56965 21.360806,772.24983 19.518966,775.08708 C 18.263596,777.02086 17.144546,780.46994 18.964196,785.92254 C 19.220956,786.69606 21.306906,791.99651 23.421386,797.36035 L 24.572136,800.28319 C 25.383676,802.35329 51.305746,867.33442 51.568876,867.99064 L 52.212416,869.60422 L 61.672056,858.3059 L 62.065146,857.83673 L 61.843226,857.26611 L 51.936606,831.623 L 50.966556,833.03371 L 56.441346,833.03371 L 55.474476,832.36798 L 64.147926,854.8378 L 64.575886,855.94734 L 76.197536,849.52467 L 75.871026,848.68143 L 69.315206,831.61349 L 68.348326,833.0242 L 74.010166,833.0242 L 73.043266,832.36481 L 79.167936,848.07277 L 79.427896,848.73532 L 93.855126,848.73532 L 93.319356,847.32778 L 87.327836,831.61666 L 86.357786,833.0242 L 91.743816,833.0242 L 90.773766,832.3553 L 100.4141,857.64335 L 101.38414,856.23583 L 80.895676,856.23583 L 80.584986,856.64794 L 73.420526,866.13929 L 80.312376,874.11531 L 91.201726,874.11531 L 88.662456,868.18717 L 88.392986,867.55632 L 83.907286,867.55632 L 84.592036,867.81311 L 83.136936,866.54189 L 83.333496,867.87017 L 84.997796,865.20726 L 84.116496,865.69545 L 91.708946,865.69545 L 90.748406,865.04558 L 94.143596,873.4686 L 94.403556,874.11848 L 103.80929,874.11848 L 100.17316,864.29745 L 99.199936,865.69545 L 104.19289,865.69545 L 103.22281,865.02973 L 111.3193,886.00641 L 119.94203,886.00641 L 119.40311,884.59573 L 112.66978,866.98887 L 111.69973,868.39958 L 117.15551,868.39958 L 116.18861,867.74336 L 123.13118,885.34705 L 123.39114,886.00641 L 132.03923,886.00641 L 131.49714,884.59573 L 124.71625,866.98887 L 123.74618,868.39958 L 129.01493,868.39958 L 128.04803,867.74019 L 135.19033,886.00641 L 143.69575,886.00641 L 143.14416,884.59256 L 135.23788,864.30379 L 134.27098,865.71765 L 139.55876,865.71765 L 138.59185,865.06143 L 141.92049,873.46543 L 142.18043,874.11848 L 151.03141,874.11848 L 147.2019,864.2816 L 146.23502,865.69545 L 155.13987,865.69545 L 154.3854,865.36894 L 156.90248,868.03502 L 156.90882,866.60212 L 155.65979,867.8987 L 156.40792,867.58168 L 151.87467,867.58168 L 154.42028,874.11848 L 159.40054,874.11848 L 165.32865,866.7638 L 165.8644,866.09808 L 157.54919,856.22315 L 131.43373,856.22315 L 132.40378,856.88571 L 122.59543,831.61983 L 121.62855,833.03371 L 127.1509,833.03371 L 126.18083,832.36798 L 132.24527,848.07594 L 132.49889,848.73849 L 146.65664,848.73849 L 140.08182,831.61666 L 139.11492,833.0242 L 144.65312,833.0242 L 143.68624,832.35847 L 149.8331,848.40562 L 150.02649,848.90966 L 166.45087,853.0245 L 158.13249,831.61032 L 157.16559,833.0242 L 162.53576,833.0242 L 161.56889,832.36481 L 170.09651,854.26401 L 170.22015,854.57784 L 190.2363,867.38832 L 189.07918,864.42106 C 187.84917,861.26362 158.94085,787.03527 157.66012,783.95709 L 157.3241,783.15504 C 156.11945,780.24488 155.07649,777.73097 153.91304,775.95253 C 151.54813,772.33223 148.05784,771.24172 147.3509,771.0515"
         style="fill:#005fa9;fill-rule:nonzero;stroke:none"
         id="path174" />
      <path
         d="M 103.82514,759.78809 L 92.060816,759.78809 L 98.648346,767.82117 L 105.81915,759.78809 L 103.82514,759.78809 z M 101.83115,761.57603 C 100.63602,762.91383 99.434536,764.25794 98.705406,765.07584 C 98.017486,764.22943 96.920626,762.8948 95.836426,761.57603 C 97.690956,761.57603 99.897366,761.57603 101.83115,761.57603"
         style="fill:#005fa9;fill-rule:nonzero;stroke:none"
         id="path178" />
      <path
         d="M 294.1877,863.43517 L 281.0761,863.43517 L 287.6319,845.64129 L 287.70164,845.64129 L 294.1877,863.43517 z M 293.96898,885.97471 L 315.69699,885.97471 L 315.69699,877.74193 L 310.20948,877.74193 L 291.78792,834.23518 L 274.51076,834.23518 L 274.51076,842.48384 L 280.64177,842.51872 L 265.16207,877.7768 L 259.65241,877.7768 L 259.65241,886.02543 L 281.14584,885.97471 L 281.14584,878.69929 L 275.16381,878.73416 L 278.13421,871.01493 L 296.64137,870.99274 L 299.67203,878.69929 L 293.96898,878.69929 L 293.96898,885.97471"
         style="fill:#221f1f;fill-rule:nonzero;stroke:none"
         id="path182" />
      <path
         d="M 336.68952,878.29352 C 330.45072,878.29352 325.15344,873.12939 325.15344,866.89059 C 325.15344,860.43624 330.23198,855.05655 336.83216,855.05655 C 343.21679,855.05655 348.51405,860.15091 348.51405,866.45946 C 348.51405,872.98675 343.36262,878.29352 336.68952,878.29352 z M 348.36825,885.97471 L 362.13289,885.97471 L 362.13289,877.74193 L 357.28578,877.74193 L 357.28578,855.60815 L 362.13289,855.60815 L 362.13289,847.37851 L 348.36825,847.37851 L 348.36825,852.86598 C 345.68314,848.76069 341.33057,846.44648 336.32494,846.44648 C 325.00763,846.44648 316.00447,855.77615 316.00447,866.89059 C 316.00447,877.71973 324.79205,886.90674 335.89064,886.90674 C 340.96918,886.90674 345.53731,884.95077 348.36825,880.68062 L 348.36825,885.97471"
         style="fill:#221f1f;fill-rule:nonzero;stroke:none"
         id="path186" />
      <path
         d="M 377.92644,853.94699 C 380.16455,849.39788 384.50445,847.15976 389.49738,846.94421 L 389.49738,855.9727 C 386.67598,856.11536 384.07014,856.83816 381.90178,858.79093 C 379.00745,861.25097 378.57315,864.36083 378.57315,867.97796 L 378.57315,877.74193 L 383.56609,877.74193 L 383.56609,885.97471 L 364.81165,885.97471 L 364.81165,877.74193 L 369.80142,877.74193 L 369.80142,855.60815 L 364.81165,855.60815 L 364.81165,847.37851 L 377.92644,847.37851 L 377.92644,853.94699"
         style="fill:#221f1f;fill-rule:nonzero;stroke:none"
         id="path190" />
      <path
         d="M 398.98555,863.1657 C 400.07291,858.14425 405.07536,854.12452 410.29654,854.12452 C 416.02495,854.12452 420.95766,857.64018 422.47932,863.1657 L 398.98555,863.1657 z M 420.01296,874.56863 C 417.83826,877.77046 414.50329,879.22553 410.66111,879.22553 C 405.14827,879.22553 400.21873,875.29776 399.05847,869.91488 L 430.39511,869.91488 L 430.68676,866.82718 C 430.68676,861.37141 429.08902,856.4926 425.24049,852.4729 C 421.46488,848.66875 416.09786,846.2975 410.73402,846.2975 C 399.20429,846.2975 390.61961,855.41793 390.61961,866.75429 C 390.61961,878.13501 399.6386,886.91942 410.94959,886.91942 C 418.99852,886.91942 426.18519,881.95818 429.23484,874.56863 L 420.01296,874.56863"
         style="fill:#221f1f;fill-rule:nonzero;stroke:none"
         id="path194" />
      <path
         d="M 453.13438,878.29352 C 446.89559,878.29352 441.60149,873.12939 441.60149,866.89059 C 441.60149,860.43624 446.68002,855.05655 453.28021,855.05655 C 459.66483,855.05655 464.95893,860.15091 464.95893,866.45946 C 464.95893,872.98675 459.80749,878.29352 453.13438,878.29352 z M 464.81311,885.97471 L 478.57777,885.97471 L 478.57777,877.74193 L 473.73066,877.74193 L 473.73066,855.60815 L 478.57777,855.60815 L 478.57777,847.37851 L 464.81311,847.37851 L 464.81311,852.86598 C 462.13118,848.76069 457.77861,846.44648 452.77299,846.44648 C 441.45566,846.44648 432.44935,855.77615 432.44935,866.89059 C 432.44935,877.71973 441.23692,886.90674 452.33551,886.90674 C 457.41405,886.90674 461.98536,884.95077 464.81311,880.68062 L 464.81311,885.97471"
         style="fill:#221f1f;fill-rule:nonzero;stroke:none"
         id="path198" />
      <path
         d="M 494.99582,877.74193 L 499.98876,877.74193 L 499.98876,885.97471 L 480.87294,885.97471 L 480.87294,877.74193 L 486.2241,877.74193 L 486.2241,842.51872 L 481.23433,842.51872 L 481.23433,834.23518 L 495.02435,834.23518 L 494.99582,877.74193"
         style="fill:#221f1f;fill-rule:nonzero;stroke:none"
         id="path202" />
      <path
         d="M 540.08128,842.51872 L 545.15981,842.51872 C 547.26477,842.51872 549.58847,842.37606 551.40178,843.53632 C 553.21825,844.69658 554.09004,846.58597 554.09004,848.69094 C 554.09004,850.65008 553.36408,852.46656 551.76634,853.62682 C 549.73429,855.07872 547.48351,854.93608 545.0869,854.93608 L 540.08128,854.93608 L 540.08128,842.51872 z M 524.60158,885.96206 L 548.64377,885.96206 C 553.07243,885.96206 557.06044,885.52773 560.53172,882.48759 C 563.64161,879.80883 565.37884,875.68451 565.37884,871.56336 C 565.37884,865.4165 562.12312,860.57256 556.4074,858.26152 C 560.75046,856.23583 563.13439,851.95934 563.13439,847.23902 C 563.13439,843.09885 561.78075,839.4437 558.44578,836.91077 C 555.32639,834.59659 551.54443,834.23518 547.68957,834.23518 L 524.69034,834.23518 L 524.6206,842.51872 L 530.17148,842.51872 L 530.17148,877.74193 L 524.60158,877.74193 L 524.60158,885.96206 z M 540.00836,863.03257 L 545.52437,863.03257 C 548.06364,863.03257 550.60291,863.03257 552.70787,864.55422 C 554.67017,866.00297 555.54195,868.10474 555.54195,870.42212 C 555.54195,872.59681 554.52434,874.84127 552.63812,876.07445 C 550.60291,877.42173 547.77516,877.34881 545.45146,877.34881 L 540.00836,877.34881 L 540.00836,863.03257"
         style="fill:#221f1f;fill-rule:nonzero;stroke:none"
         id="path206" />
      <path
         d="M 587.91839,878.29352 C 581.6796,878.29352 576.38549,873.12939 576.38549,866.89059 C 576.38549,860.43624 581.46086,855.05655 588.06422,855.05655 C 594.44567,855.05655 599.74294,860.15091 599.74294,866.45946 C 599.74294,872.98675 594.5915,878.29352 587.91839,878.29352 z M 599.59712,885.97471 L 613.36178,885.97471 L 613.36178,877.74193 L 608.51467,877.74193 L 608.51467,855.60815 L 613.36178,855.60815 L 613.36178,847.37851 L 599.59712,847.37851 L 599.59712,852.86598 C 596.91203,848.76069 592.55945,846.44648 587.55383,846.44648 C 576.23967,846.44648 567.23336,855.77615 567.23336,866.89059 C 567.23336,877.71973 576.02093,886.90674 587.11952,886.90674 C 592.19806,886.90674 596.76937,884.95077 599.59712,880.68062 L 599.59712,885.97471"
         style="fill:#221f1f;fill-rule:nonzero;stroke:none"
         id="path210" />
      <path
         d="M 620.72597,855.60815 L 615.73303,855.60815 L 615.73303,847.37851 L 629.49769,847.37851 L 629.49769,852.90086 C 631.8309,848.65607 636.20567,846.56695 641.02108,846.56695 C 645.25002,846.56695 649.36801,848.29466 652.17357,851.31898 C 655.33418,854.84414 655.40709,858.23933 655.40709,862.6458 L 655.40709,877.74193 L 660.40003,877.74193 L 660.40003,885.97471 L 641.60438,885.97471 L 641.60438,877.74193 L 646.63537,877.74193 L 646.63537,865.2453 C 646.63537,862.86138 646.63537,860.40453 645.1042,858.31225 C 643.50012,856.21681 640.87526,855.20553 638.24723,855.20553 C 635.54945,855.20553 632.77877,856.28656 631.17469,858.45491 C 629.49769,860.62328 629.49769,863.94555 629.49769,866.54506 L 629.49769,877.74193 L 634.52868,877.74193 L 634.52868,885.97471 L 615.73303,885.97471 L 615.73303,877.74193 L 620.72597,877.74193 L 620.72597,855.60815"
         style="fill:#221f1f;fill-rule:nonzero;stroke:none"
         id="path214" />
      <path
         d="M 686.15092,854.78708 L 682.17242,854.78708 L 682.17242,847.37851 L 701.19631,847.37851 L 701.19631,855.60815 L 696.49502,855.60815 L 685.86244,865.87933 L 697.14489,877.74193 L 703.22202,877.74193 L 703.22202,885.97471 L 682.17242,885.97471 L 682.17242,877.74193 L 685.42813,877.74193 L 676.23161,867.61655 L 676.23161,877.74193 L 679.70923,877.74193 L 679.70923,885.97471 L 662.39721,885.97471 L 662.39721,877.74193 L 667.45989,877.74193 L 667.45989,842.51872 L 662.39721,842.51872 L 662.42574,834.23518 L 676.22527,834.23518 L 676.23161,864.64932 L 686.15092,854.78708"
         style="fill:#221f1f;fill-rule:nonzero;stroke:none"
         id="path218" />
    </g>
  </g>
</svg>
