<?xml version="1.0" encoding="UTF-8" standalone="no"?>
<svg
   xmlns:svg="http://www.w3.org/2000/svg"
   xmlns="http://www.w3.org/2000/svg"
   version="1.1"
   width="705.53625"
   height="210.5177"
   id="svg3019">
  <defs
     id="defs3021" />
  <g
     transform="translate(55.62527,-381.38905)"
     id="layer1">
    <path
       d="m 622.88935,381.38905 -651.494003,0 c -14.926512,0 -27.020617,12.09698 -27.020617,27.02088 l 0,130.8581 705.53625,0 0,-130.8581 c 0,-14.9239 -12.09624,-27.02088 -27.02163,-27.02088"
       id="path22"
       style="fill:#ee2425;fill-opacity:1;fill-rule:nonzero;stroke:none" />
    <path
       d="m -55.62527,549.76074 0,15.11955 c 0,14.9309 12.094105,27.02646 27.020617,27.02646 l 651.494003,0 c 14.92539,0 27.02163,-12.09556 27.02163,-27.02646 l 0,-15.11955 -705.53625,0"
       id="path24"
       style="fill:#f9a70d;fill-opacity:1;fill-rule:nonzero;stroke:none" />
    <path
       d="m 121.28879,438.04387 c 13.24721,6.29278 23.40205,22.4304 20.9338,40.03567 -2.97023,21.12499 -22.51322,35.85024 -43.635589,32.86516 -21.130927,-2.96577 -35.81795,-22.51134 -32.894149,-43.64078 2.477168,-17.93012 17.036858,-31.48068 35.600768,-33.33558 -21.985254,8.13063 -30.30447,28.21565 -30.185304,29.35586 0.0594,0.57436 0.315972,2.34945 0.829435,3.77813 0.532413,1.44873 1.849352,3.51675 1.849352,3.51675 0,0 6.414558,-26.7855 32.776797,-36.62288 0.6568,0.074 1.21818,0.10277 1.54452,0.14613 -23.640029,9.99704 -30.826104,39.95732 -30.826104,40.41993 0,0.23197 1.200714,1.83634 2.168264,2.83101 1.15726,1.18919 3.338534,2.63236 3.338534,2.63236 0,0 5.299239,-35.05386 29.375886,-45.24212 0.48156,0.10426 0.78601,0.14347 1.36334,0.29703 -23.648941,11.71569 -25.328217,47.54107 -25.371672,48.346 -0.0059,0.20762 1.786591,1.33735 3.044125,2.01307 1.518528,0.80642 4.105951,1.61135 4.105951,1.61135 0,0 -2.07396,-38.32853 21.913966,-50.75634 0.49306,0.16811 1.36631,0.50196 1.36631,0.50196 -23.078657,15.11067 -16.78439,51.24495 -16.58574,52.05285 0.0359,0.15831 2.09846,0.57435 3.46773,0.79192 1.70269,0.27831 4.39,0.34494 4.39,0.34494 0,0 -10.826475,-34.93618 11.42978,-51.94257 m 463.3849,68.37608 -24.96104,-35.45261 0,35.45261 -20.75445,0 0,-96.99791 20.75445,0 0,59.19585 23.97715,-28.80192 21.62324,0 -26.56867,28.80192 29.77652,37.80206 -23.8472,0 z m -82.04135,0 0,-46.82302 c 0,-6.92098 -5.94416,-9.88378 -13.5962,-9.88378 -3.83902,0 -7.41072,0.60592 -9.76091,1.47174 l 0,55.23506 -20.83984,0 0,-63.38833 c 7.41071,-2.84289 18.77182,-4.94284 31.33588,-4.94284 21.76061,0 33.74176,6.68004 33.74176,21.25271 l 0,47.07846 -20.88069,0 z m -78.9226,-35.33083 c -14.58752,1.35739 -24.59718,3.82155 -24.59718,15.19493 0,8.03743 5.8105,11.49364 15.20013,11.49364 4.08034,0 7.29933,-0.74404 9.39705,-1.73312 l 0,-24.95545 z m -10.62599,37.0699 c -22.36951,0 -33.73062,-7.54328 -33.73062,-21.12983 0,-17.68211 20.5057,-22.3606 44.35661,-24.35065 l 0,-3.33705 c 0,-7.40513 -5.81793,-9.62834 -14.58752,-9.62834 -7.29191,0 -15.44518,1.84599 -20.50199,3.9504 l -4.45533,-10.63193 c 5.43922,-2.08994 15.69393,-4.94284 28.91885,-4.94284 17.53919,0 30.27032,6.55529 30.27032,24.46649 l 0,40.65645 c -6.43425,2.9617 -17.06024,4.9473 -30.27032,4.9473 m -79.44982,-58.94175 c -3.96896,0 -6.92434,0.49602 -9.39705,1.6054 l 0,44.60424 c 1.85639,0.85988 4.44791,1.36446 8.1607,1.36446 11.73239,0 17.42408,-9.63987 17.42408,-24.34471 0,-13.34561 -4.45905,-23.22939 -16.18773,-23.22939 m -2.35761,58.9419 c -13.08756,0 -22.61382,-2.10292 -27.80464,-4.9473 l 0,-93.78969 20.7652,0 0,31.51965 c 3.57541,-1.36927 8.39831,-2.6034 15.43775,-2.6034 18.54535,0 31.40271,13.35006 31.40271,32.99736 0,23.1091 -14.21253,36.82338 -39.80102,36.82338 m -70.05907,0 c -9.52551,0 -18.54089,-2.34241 -23.23088,-4.9473 l 5.19344,-11.86195 c 3.08904,1.9752 9.26152,3.95485 15.08168,3.95485 6.28984,0 11.22968,-3.70387 11.22968,-8.15327 0,-13.34893 -29.27454,-7.66059 -29.27454,-28.42173 0,-10.87732 10.37277,-20.64084 26.55827,-20.64084 9.76907,0 16.4391,1.85639 22.49426,4.94284 l -5.07053,10.63192 c -2.35094,-1.48511 -7.15863,-3.5806 -12.72484,-3.5806 -6.55118,0 -10.50604,3.46328 -10.50604,7.53136 0,12.73374 30.27661,7.90564 30.27661,29.04509 0,11.49107 -11.49513,21.49963 -30.02711,21.49963 m -45.21762,-78.34416 c -6.43202,0 -11.50404,-4.07851 -11.50404,-9.01799 0,-4.94281 5.07202,-9.01945 11.50404,-9.01945 6.41459,0 11.59799,4.07664 11.59799,9.01945 0,4.93948 -5.1834,9.01799 -11.59799,9.01799 m -10.3902,10.00111 20.88291,0 0,66.60398 -20.88291,0 0,-66.60398 z m -14.94395,11.74317 c -5.6865,-1.846 -13.10057,-1.97817 -17.1887,-0.24504 l 0,55.10585 -20.87587,0 0,-63.38833 c 7.65911,-3.08645 17.53844,-4.94284 32.4954,-4.94284 3.3374,0 7.41849,0.2495 9.52141,0.50048 l -3.95224,12.96988 z m -155.372501,54.86081 0,-46.82302 c 0,-6.92099 -5.931927,-9.88379 -13.593623,-9.88379 -3.824522,0 -7.412555,0.60593 -9.759419,1.47175 l 0,55.23506 -20.8854979,0 0,-63.38833 c 7.4211086,-2.84289 18.7885184,-4.94284 31.3960269,-4.94284 21.735725,0 33.723942,6.68004 33.723942,21.25271 l 0,47.07846 -20.881429,0"
       id="path26"
       style="fill:#ffffff;fill-opacity:1;fill-rule:nonzero;stroke:none" />
    <path
       d="m -55.62527,549.75515 705.52882,0 0,-10.48715 -705.52882,0 0,10.48715 z"
       id="path28"
       style="fill:#ffffff;fill-opacity:1;fill-rule:nonzero;stroke:none" />
  </g>
</svg>
