<?xml version="1.0" encoding="utf-8"?>
<!-- Generator: Adobe Illustrator 18.1.0, SVG Export Plug-In . SVG Version: 6.00 Build 0)  -->
<!DOCTYPE svg PUBLIC "-//W3C//DTD SVG 1.1//EN" "http://www.w3.org/Graphics/SVG/1.1/DTD/svg11.dtd">
<svg version="1.1" id="Ebene_1" xmlns="http://www.w3.org/2000/svg" xmlns:xlink="http://www.w3.org/1999/xlink" x="0px" y="0px"
	 viewBox="0 0 566.9 157.4" enable-background="new 0 0 566.9 157.4" xml:space="preserve">
<g>
	<defs>
		<path id="SVGID_1_" d="M10.7,0C4.8,0,0,4.8,0,10.7v104.5c0,5.9,4.8,10.7,10.7,10.7h10.7l27.9,30.4c0.8,0.8,1.5,1.1,2,1.1h0
			c0.9,0,1.5-0.9,1.5-2.6v-28.9h503.3c5.9,0,10.7-4.8,10.7-10.7V10.7c0-5.9-4.8-10.7-10.7-10.7H10.7z"/>
	</defs>
	<clipPath id="SVGID_2_">
		<use xlink:href="#SVGID_1_"  overflow="visible"/>
	</clipPath>
	
		<linearGradient id="SVGID_3_" gradientUnits="userSpaceOnUse" x1="-3.7247" y1="503.6933" x2="0.7176" y2="503.6933" gradientTransform="matrix(-1.500000e-006 35.4333 35.4333 1.500000e-006 -17564.0352 131.9766)">
		<stop  offset="0" style="stop-color:#61C3D7"/>
		<stop  offset="1" style="stop-color:#1381AB"/>
	</linearGradient>
	<rect x="0" y="0" clip-path="url(#SVGID_2_)" fill="url(#SVGID_3_)" width="566.9" height="157.4"/>
</g>
<rect x="535.1" y="85.1" fill="#1481AB" width="9.3" height="8.4"/>
<rect x="535.1" y="87.9" fill="#61C3D7" width="9.3" height="8.4"/>
<rect x="535.1" y="86.5" fill="#FEFEFE" width="9.3" height="8.4"/>
<rect x="535.1" y="28.8" fill="#1481AB" width="9.3" height="49.1"/>
<g>
	<defs>
		<rect id="SVGID_4_" x="0" y="0" width="566.9" height="157.4"/>
	</defs>
	<clipPath id="SVGID_5_">
		<use xlink:href="#SVGID_4_"  overflow="visible"/>
	</clipPath>
	<path clip-path="url(#SVGID_5_)" fill="#1481AB" d="M282.4,87.4c5.4,4.7,12.2,7.1,18.4,7.1c9,0,16.1-5.1,16.1-15.1
		c0-8.5-7.2-11.7-13.5-13.8c-5.1-1.8-9.8-3.4-9.8-6.8c0-2.8,2.2-4.8,6.1-4.8c3.6,0,8,1.7,12.2,4.5l3.9-7.7
		c-4.6-3.3-10.5-5.4-15.9-5.4c-8.6,0-15.4,5.5-15.4,14.5c0,9.1,7.1,12.1,13.5,14.1c5.1,1.7,9.7,3,9.7,6.6c0,3.1-2.5,5.3-6.7,5.3
		c-4.4,0-9.5-2-14.2-5.8L282.4,87.4"/>
	<path clip-path="url(#SVGID_5_)" fill="#1481AB" d="M164.3,87.4c5.4,4.7,12.2,7.1,18.4,7.1c9,0,16.1-5.1,16.1-15.1
		c0-8.5-7.2-11.7-13.5-13.8c-5.1-1.8-9.8-3.4-9.8-6.8c0-2.8,2.2-4.8,6.1-4.8c3.6,0,8,1.7,12.2,4.5l3.9-7.7
		c-4.6-3.3-10.5-5.4-15.9-5.4c-8.6,0-15.4,5.5-15.4,14.5c0,9.1,7.1,12.1,13.5,14.1c5.1,1.7,9.7,3,9.7,6.6c0,3.1-2.5,5.3-6.7,5.3
		c-4.4,0-9.5-2-14.2-5.8L164.3,87.4"/>
	<path clip-path="url(#SVGID_5_)" fill="#1481AB" d="M279.8,56c-1.4-0.8-3.2-0.7-5.1-0.7c-6.7,0-11,7.6-11,17.8v20.4h-9.4V46.1h9.4
		V55l1.1-1.7c3.7-5.7,8.1-8.3,14-8.3c0.4,0,0.7,0,1.1,0V56z"/>
	<path clip-path="url(#SVGID_5_)" fill="#1481AB" d="M90.5,44.2c-13,0-22.7,11.2-22.7,24.8v0.2c0,13.5,9.6,24.5,22.5,24.5
		c13.1,0,22.7-11.2,22.7-24.7v-0.2C113.1,55.2,103.5,44.2,90.5,44.2 M103.4,69.2c0,8.2-5,15.1-12.9,15.1c-7.6,0-12.9-7-12.9-15.3
		v-0.2c0-8.3,5-15.1,12.8-15.1c7.6,0,13,6.9,13,15.3V69.2z"/>
	<path clip-path="url(#SVGID_5_)" fill="#1481AB" d="M225.9,44.1c-13,0-22.7,11.2-22.7,24.8v0.2c0,13.5,9.6,24.5,22.5,24.5
		c13.1,0,22.7-11.2,22.7-24.7v-0.2C248.5,55.1,238.9,44.1,225.9,44.1 M238.7,69.1c0,8.2-5,15.1-12.9,15.1c-7.6,0-12.9-7-12.9-15.3
		v-0.2c0-8.3,5-15.1,12.8-15.1c7.6,0,13,6.9,13,15.3V69.1z"/>
	<path clip-path="url(#SVGID_5_)" fill="#1481AB" d="M150.7,93.5V66.4c0-8.3-4.1-13-11.2-13c-7.2,0-11.6,5.2-11.6,13.2v26.9h-9.3
		V46.1h9.3v9.8l1.6-2.6c3.8-5.6,8.3-8.3,14.3-8.3c10.2,0,16.2,6.7,16.2,18v30.4H150.7z"/>
	<path clip-path="url(#SVGID_5_)" fill="#1481AB" d="M454.1,93.5V66.4c0-8.3-4.1-13-11.2-13c-7.2,0-11.6,5.2-11.6,13.2v26.9h-9.3
		V46.1h9.3v9.8l1.6-2.6c3.8-5.6,8.3-8.3,14.3-8.3c10.2,0,16.2,6.7,16.2,18v30.4H454.1z"/>
	<path clip-path="url(#SVGID_5_)" fill="#1481AB" d="M62.4,80.8c-3.6,2-7.3,3.4-12.8,3.4c-11.1-0.1-22.4-8-22.4-23.4
		c0-12.1,10.3-22,22.4-22c5.4,0,9.3,1.7,12.7,4l4.1-10c-8.6-4.2-12.3-4.3-17.7-4.3c-14,0-31.6,12.7-31.6,32.2
		c0,23.6,19.4,33.8,32.4,33.8c8.8,0,11.9-1.5,16.9-4L62.4,80.8z"/>
	<polygon clip-path="url(#SVGID_5_)" fill="#1481AB" points="501.8,93.5 487.5,72.7 480.6,79.9 480.6,93.5 471,93.5 471,28.8 
		480.6,28.8 480.6,67.6 500.5,46.1 513,46.1 493.7,66.3 513.3,93.5 	"/>
	<path clip-path="url(#SVGID_5_)" fill="#1481AB" d="M391.3,94.5c-8.6,0-16.4-5.1-16.4-14.5c0-10.2,6.8-16.5,17.7-16.5
		c5.4,0,9,0.9,12.5,2.1v-1.2c0-6.7-3.8-10.1-11.2-10.1c-5.2,0-9.5,1.6-12.7,2.9l-2.7-7.9c4.7-2.2,9.8-3.9,16.8-3.9
		c12,0,19.2,7.5,19.2,20V77c0,4-1.3,9.7-7.6,14.1c-4.3,3-10.6,3.4-16.6,3.4 M394.8,70.6c-6.4,0-11.5,3.8-11.5,8.6
		c0,5.1,4.8,7.5,9.3,7.5c2.9,0,12.5-0.8,12.5-10.6v-3.4l-0.1-0.1C402.1,71.3,398.5,70.6,394.8,70.6"/>
	<path clip-path="url(#SVGID_5_)" fill="#1481AB" d="M347.3,94.5c-11.4,0-18.8-4.3-24.6-12.5V28.8h9.5v21.4l0.7-0.4
		c1.9-1,7.3-4.4,14.4-4.4c13.7,0,22.8,9.8,22.8,24.5C370.2,86.9,358.7,94.5,347.3,94.5 M332.3,79.8c4.2,3.7,8.2,5.8,14.1,5.8
		c9,0,14.7-6.1,14.7-15.6c0-9.4-5.4-15.9-14.3-15.9c-7.6,0-12.7,5-14.5,6.2V79.8z"/>
	<rect x="535.1" y="31.5" clip-path="url(#SVGID_5_)" fill="#61C3D7" width="9.3" height="49.1"/>
	<path clip-path="url(#SVGID_5_)" fill="#61C3D7" d="M282.4,90.1c5.4,4.7,12.2,7.1,18.4,7.1c9,0,16.1-5.1,16.1-15.1
		c0-8.5-7.2-11.7-13.5-13.8c-5.1-1.8-9.8-3.4-9.8-6.8c0-2.8,2.2-4.8,6.1-4.8c3.6,0,8,1.7,12.2,4.5l3.9-7.7
		c-4.6-3.3-10.5-5.4-15.9-5.4c-8.6,0-15.4,5.5-15.4,14.5c0,9.1,7.1,12.1,13.5,14.1c5.1,1.7,9.7,3,9.7,6.6c0,3.1-2.5,5.3-6.7,5.3
		c-4.4,0-9.5-2-14.2-5.8L282.4,90.1"/>
	<path clip-path="url(#SVGID_5_)" fill="#61C3D7" d="M164.3,90.1c5.4,4.7,12.2,7.1,18.4,7.1c9,0,16.1-5.1,16.1-15.1
		c0-8.5-7.2-11.7-13.5-13.8c-5.1-1.8-9.8-3.4-9.8-6.8c0-2.8,2.2-4.8,6.1-4.8c3.6,0,8,1.7,12.2,4.5l3.9-7.7
		c-4.6-3.3-10.5-5.4-15.9-5.4c-8.6,0-15.4,5.5-15.4,14.5c0,9.1,7.1,12.1,13.5,14.1c5.1,1.7,9.7,3,9.7,6.6c0,3.1-2.5,5.3-6.7,5.3
		c-4.4,0-9.5-2-14.2-5.8L164.3,90.1"/>
	<path clip-path="url(#SVGID_5_)" fill="#61C3D7" d="M279.8,58.8c-1.4-0.8-3.2-0.7-5.1-0.7c-6.7,0-11,7.6-11,17.8v20.4h-9.4V48.8
		h9.4v8.9l1.1-1.7c3.7-5.7,8.1-8.3,14-8.3c0.4,0,0.7,0,1.1,0V58.8z"/>
	<path clip-path="url(#SVGID_5_)" fill="#61C3D7" d="M90.5,46.9c-13,0-22.7,11.2-22.7,24.8v0.2c0,13.5,9.6,24.5,22.5,24.5
		c13.1,0,22.7-11.2,22.7-24.7v-0.2C113.1,57.9,103.5,46.9,90.5,46.9 M103.4,71.9c0,8.2-5,15.1-12.9,15.1c-7.6,0-12.9-7-12.9-15.3
		v-0.2c0-8.3,5-15.1,12.8-15.1c7.6,0,13,6.9,13,15.3V71.9z"/>
	<path clip-path="url(#SVGID_5_)" fill="#61C3D7" d="M225.9,46.8c-13,0-22.7,11.2-22.7,24.8v0.2c0,13.5,9.6,24.5,22.5,24.5
		c13.1,0,22.7-11.2,22.7-24.7v-0.2C248.5,57.9,238.9,46.8,225.9,46.8 M238.7,71.8c0,8.2-5,15.1-12.9,15.1c-7.6,0-12.9-7-12.9-15.3
		v-0.2c0-8.3,5-15.1,12.8-15.1c7.6,0,13,6.9,13,15.3V71.8z"/>
	<path clip-path="url(#SVGID_5_)" fill="#61C3D7" d="M150.7,96.2V69.2c0-8.3-4.1-13-11.2-13c-7.2,0-11.6,5.2-11.6,13.2v26.9h-9.3
		V48.8h9.3v9.8l1.6-2.6c3.8-5.6,8.3-8.3,14.3-8.3c10.2,0,16.2,6.7,16.2,18v30.4H150.7z"/>
	<path clip-path="url(#SVGID_5_)" fill="#61C3D7" d="M454.1,96.2V69.2c0-8.3-4.1-13-11.2-13c-7.2,0-11.6,5.2-11.6,13.2v26.9h-9.3
		V48.8h9.3v9.8l1.6-2.6c3.8-5.6,8.3-8.3,14.3-8.3c10.2,0,16.2,6.7,16.2,18v30.4H454.1z"/>
	<path clip-path="url(#SVGID_5_)" fill="#61C3D7" d="M62.4,83.5c-3.6,2-7.3,3.4-12.8,3.4c-11.1-0.1-22.4-8-22.4-23.4
		c0-12.1,10.3-22,22.4-22c5.4,0,9.3,1.7,12.7,4l4.1-10c-8.6-4.2-12.3-4.3-17.7-4.3c-14,0-31.6,12.7-31.6,32.2
		c0,23.6,19.4,33.8,32.4,33.8c8.8,0,11.9-1.5,16.9-4L62.4,83.5z"/>
	<polygon clip-path="url(#SVGID_5_)" fill="#61C3D7" points="501.8,96.2 487.5,75.4 480.6,82.7 480.6,96.2 471,96.2 471,31.5 
		480.6,31.5 480.6,70.4 500.5,48.8 513,48.8 493.7,69.1 513.3,96.2 	"/>
	<path clip-path="url(#SVGID_5_)" fill="#61C3D7" d="M391.3,97.2c-8.6,0-16.4-5.1-16.4-14.6c0-10.2,6.8-16.5,17.7-16.5
		c5.4,0,9,0.9,12.5,2.1V67c0-6.7-3.8-10.1-11.2-10.1c-5.2,0-9.5,1.6-12.7,2.9l-2.7-7.9c4.7-2.2,9.8-3.9,16.8-3.9
		c12,0,19.2,7.5,19.2,20v11.7c0,4-1.3,9.7-7.6,14.1c-4.3,3-10.6,3.4-16.6,3.4 M394.8,73.4c-6.4,0-11.5,3.8-11.5,8.6
		c0,5.1,4.8,7.5,9.3,7.5c2.9,0,12.5-0.8,12.5-10.6v-3.4l-0.1-0.1C402.1,74.1,398.5,73.4,394.8,73.4"/>
	<path clip-path="url(#SVGID_5_)" fill="#61C3D7" d="M347.3,97.2c-11.4,0-18.8-4.3-24.6-12.5V31.5h9.5v21.4l0.7-0.4
		c1.9-1,7.3-4.4,14.4-4.4c13.7,0,22.8,9.8,22.8,24.5C370.2,89.6,358.7,97.2,347.3,97.2 M332.3,82.5c4.2,3.7,8.2,5.8,14.1,5.8
		c9,0,14.7-6.1,14.7-15.6c0-9.4-5.4-15.9-14.3-15.9c-7.6,0-12.7,5-14.5,6.2V82.5z"/>
	<rect x="535.1" y="30.1" clip-path="url(#SVGID_5_)" fill="#FEFEFE" width="9.3" height="49.1"/>
	<path clip-path="url(#SVGID_5_)" fill="#FEFEFE" d="M282.4,88.7c5.4,4.7,12.2,7.1,18.4,7.1c9,0,16.1-5.1,16.1-15.1
		c0-8.5-7.2-11.7-13.5-13.8c-5.1-1.8-9.8-3.4-9.8-6.8c0-2.8,2.2-4.8,6.1-4.8c3.6,0,8,1.7,12.2,4.5l3.9-7.7
		c-4.6-3.3-10.5-5.4-15.9-5.4c-8.6,0-15.4,5.5-15.4,14.5c0,9.1,7.1,12.1,13.5,14.1c5.1,1.7,9.7,3,9.7,6.6c0,3.1-2.5,5.3-6.7,5.3
		c-4.4,0-9.5-2-14.2-5.8L282.4,88.7"/>
	<path clip-path="url(#SVGID_5_)" fill="#FEFEFE" d="M164.3,88.7c5.4,4.7,12.2,7.1,18.4,7.1c9,0,16.1-5.1,16.1-15.1
		c0-8.5-7.2-11.7-13.5-13.8c-5.1-1.8-9.8-3.4-9.8-6.8c0-2.8,2.2-4.8,6.1-4.8c3.6,0,8,1.7,12.2,4.5l3.9-7.7
		c-4.6-3.3-10.5-5.4-15.9-5.4c-8.6,0-15.4,5.5-15.4,14.5c0,9.1,7.1,12.1,13.5,14.1c5.1,1.7,9.7,3,9.7,6.6c0,3.1-2.5,5.3-6.7,5.3
		c-4.4,0-9.5-2-14.2-5.8L164.3,88.7"/>
	<path clip-path="url(#SVGID_5_)" fill="#FEFEFE" d="M279.8,57.4c-1.4-0.8-3.2-0.7-5.1-0.7c-6.7,0-11,7.6-11,17.8v20.4h-9.4V47.4
		h9.4v8.9l1.1-1.7c3.7-5.7,8.1-8.3,14-8.3c0.4,0,0.7,0,1.1,0V57.4z"/>
	<path clip-path="url(#SVGID_5_)" fill="#FEFEFE" d="M90.5,45.5c-13,0-22.7,11.2-22.7,24.8v0.2C67.8,84,77.4,95,90.3,95
		c13.1,0,22.7-11.2,22.7-24.7v-0.2C113.1,56.6,103.5,45.5,90.5,45.5 M103.4,70.5c0,8.2-5,15.1-12.9,15.1c-7.6,0-12.9-7-12.9-15.3
		v-0.2c0-8.3,5-15.1,12.8-15.1c7.6,0,13,6.9,13,15.3V70.5z"/>
	<path clip-path="url(#SVGID_5_)" fill="#FEFEFE" d="M225.9,45.4c-13,0-22.7,11.2-22.7,24.8v0.2c0,13.5,9.6,24.5,22.5,24.5
		c13.1,0,22.7-11.2,22.7-24.7v-0.2C248.5,56.5,238.9,45.4,225.9,45.4 M238.7,70.4c0,8.2-5,15.1-12.9,15.1c-7.6,0-12.9-7-12.9-15.3
		v-0.2c0-8.3,5-15.1,12.8-15.1c7.6,0,13,6.9,13,15.3V70.4z"/>
	<path clip-path="url(#SVGID_5_)" fill="#FEFEFE" d="M150.7,94.8V67.8c0-8.3-4.1-13-11.2-13c-7.2,0-11.6,5.2-11.6,13.2v26.9h-9.3
		V47.4h9.3v9.8l1.6-2.6c3.8-5.6,8.3-8.3,14.3-8.3c10.2,0,16.2,6.7,16.2,18v30.4H150.7z"/>
	<path clip-path="url(#SVGID_5_)" fill="#FEFEFE" d="M454.1,94.8V67.8c0-8.3-4.1-13-11.2-13c-7.2,0-11.6,5.2-11.6,13.2v26.9h-9.3
		V47.4h9.3v9.8l1.6-2.6c3.8-5.6,8.3-8.3,14.3-8.3c10.2,0,16.2,6.7,16.2,18v30.4H454.1z"/>
	<path clip-path="url(#SVGID_5_)" fill="#FEFEFE" d="M62.4,82.1c-3.6,2-7.3,3.4-12.8,3.4c-11.1-0.1-22.4-8-22.4-23.4
		c0-12.1,10.3-22,22.4-22c5.4,0,9.3,1.7,12.7,4l4.1-10c-8.6-4.2-12.3-4.3-17.7-4.3c-14,0-31.6,12.7-31.6,32.2
		c0,23.6,19.4,33.8,32.4,33.8c8.8,0,11.9-1.5,16.9-4L62.4,82.1z"/>
	<polygon clip-path="url(#SVGID_5_)" fill="#FEFEFE" points="501.8,94.8 487.5,74 480.6,81.3 480.6,94.8 471,94.8 471,30.1 
		480.6,30.1 480.6,69 500.5,47.4 513,47.4 493.7,67.7 513.3,94.8 	"/>
	<path clip-path="url(#SVGID_5_)" fill="#FEFEFE" d="M391.3,95.8c-8.6,0-16.4-5.1-16.4-14.5c0-10.2,6.8-16.5,17.7-16.5
		c5.4,0,9,0.9,12.5,2.1v-1.2c0-6.7-3.8-10.1-11.2-10.1c-5.2,0-9.5,1.6-12.7,2.9l-2.7-7.9c4.7-2.2,9.8-3.9,16.8-3.9
		c12,0,19.2,7.5,19.2,20v11.7c0,4-1.3,9.7-7.6,14.1c-4.3,3-10.6,3.4-16.6,3.4 M394.8,72c-6.4,0-11.5,3.8-11.5,8.6
		c0,5.1,4.8,7.5,9.3,7.5c2.9,0,12.5-0.8,12.5-10.6V74l-0.1-0.1C402.1,72.7,398.5,72,394.8,72"/>
	<path clip-path="url(#SVGID_5_)" fill="#FEFEFE" d="M347.3,95.8c-11.4,0-18.8-4.3-24.6-12.5V30.1h9.5v21.4l0.7-0.4
		c1.9-1,7.3-4.4,14.4-4.4c13.7,0,22.8,9.8,22.8,24.5C370.2,88.2,358.7,95.8,347.3,95.8 M332.3,81.1c4.2,3.7,8.2,5.8,14.1,5.8
		c9,0,14.7-6.1,14.7-15.6c0-9.4-5.4-15.9-14.3-15.9c-7.6,0-12.7,5-14.5,6.2V81.1z"/>
	<path clip-path="url(#SVGID_5_)" fill="#6B6B6A" d="M75.8,138c0-0.4,0.3-0.8,0.7-0.8c0.4,0,0.7,0.3,0.7,0.8v5.4
		c0.8-1.2,2-2.2,3.8-2.2c2.4,0,4.7,1.9,4.7,5.1v0c0,3.2-2.3,5.2-4.7,5.2c-1.8,0-3-1-3.8-2.1v1.2c0,0.4-0.3,0.7-0.7,0.7
		c-0.4,0-0.8-0.3-0.8-0.7V138z M84.3,146.4L84.3,146.4c0-2.4-1.6-3.9-3.5-3.9c-1.8,0-3.6,1.6-3.6,3.8v0c0,2.3,1.7,3.8,3.6,3.8
		C82.7,150.2,84.3,148.8,84.3,146.4"/>
	<path clip-path="url(#SVGID_5_)" fill="#6B6B6A" d="M89.8,154.2c-0.2-0.1-0.5-0.3-0.5-0.6c0-0.4,0.3-0.6,0.6-0.6
		c0.1,0,0.2,0,0.4,0.1c0.3,0.1,0.6,0.2,1.1,0.2c0.9,0,1.5-0.6,2-1.8l0.1-0.2l-4.1-8.8c-0.1-0.1-0.1-0.3-0.1-0.4
		c0-0.4,0.3-0.7,0.7-0.7c0.4,0,0.6,0.2,0.7,0.6l3.5,7.8l3.1-7.8c0.1-0.3,0.3-0.6,0.7-0.6c0.4,0,0.7,0.3,0.7,0.7c0,0.1,0,0.3-0.1,0.4
		l-3.9,9.3c-0.9,2.1-1.8,2.8-3.3,2.8C90.8,154.5,90.3,154.4,89.8,154.2"/>
	<path clip-path="url(#SVGID_5_)" fill="#6B6B6A" d="M111.2,138.7c0-0.4,0.3-0.8,0.7-0.8h5c1.5,0,2.7,0.4,3.5,1.2
		c0.6,0.6,0.9,1.3,0.9,2.2v0c0,1.7-1.1,2.7-2.1,3.1c1.6,0.5,2.9,1.4,2.9,3.2v0c0,2.3-1.9,3.7-4.9,3.7h-5.2c-0.4,0-0.7-0.3-0.7-0.8
		V138.7z M116.6,143.9c1.8,0,3.1-0.8,3.1-2.4v0c0-1.3-1.1-2.2-3-2.2h-4.1v4.6H116.6z M117.2,150c2,0,3.3-0.9,3.3-2.4v0
		c0-1.5-1.2-2.3-3.6-2.3h-4.2v4.7H117.2z"/>
	<path clip-path="url(#SVGID_5_)" fill="#6B6B6A" d="M126.9,138.6c0-0.4,0.3-0.7,0.7-0.7h0.2c0.3,0,0.6,0.2,0.8,0.4l8.2,10.4v-10.1
		c0-0.4,0.3-0.7,0.7-0.7c0.4,0,0.7,0.3,0.7,0.7v12.1c0,0.4-0.3,0.7-0.7,0.7h-0.1c-0.3,0-0.6-0.2-0.8-0.5l-8.3-10.7v10.4
		c0,0.4-0.3,0.8-0.8,0.8c-0.4,0-0.7-0.3-0.7-0.8V138.6z"/>
	<path clip-path="url(#SVGID_5_)" fill="#6B6B6A" d="M144,138.7c0-0.4,0.3-0.8,0.8-0.8h4.3c3,0,5,1.6,5,4.3v0c0,2.9-2.4,4.4-5.3,4.4
		h-3.3v4.1c0,0.4-0.3,0.8-0.8,0.8c-0.4,0-0.8-0.3-0.8-0.8V138.7z M148.9,145.2c2.2,0,3.7-1.2,3.7-3v0c0-1.9-1.4-2.9-3.6-2.9h-3.4
		v5.9H148.9z"/>
	<path clip-path="url(#SVGID_5_)" fill="#6B6B6A" d="M166.5,138.7c0-0.4,0.3-0.8,0.7-0.8h4.3c3,0,5,1.6,5,4.3v0
		c0,2.9-2.4,4.4-5.3,4.4H168v4.1c0,0.4-0.3,0.8-0.8,0.8c-0.4,0-0.7-0.3-0.7-0.8V138.7z M171.3,145.2c2.2,0,3.7-1.2,3.7-3v0
		c0-1.9-1.4-2.9-3.6-2.9H168v5.9H171.3z"/>
	<path clip-path="url(#SVGID_5_)" fill="#6B6B6A" d="M179.1,150.4l5.5-11.9c0.2-0.4,0.5-0.7,1-0.7h0.1c0.5,0,0.8,0.2,0.9,0.7
		l5.5,11.9c0.1,0.1,0.1,0.3,0.1,0.4c0,0.4-0.3,0.7-0.7,0.7c-0.4,0-0.6-0.2-0.7-0.6l-1.4-3.1h-7.4l-1.4,3.1c-0.1,0.3-0.4,0.5-0.7,0.5
		c-0.4,0-0.7-0.3-0.7-0.7C179,150.6,179.1,150.5,179.1,150.4 M188.6,146.4l-3.1-6.9l-3.1,6.9H188.6z"/>
	<path clip-path="url(#SVGID_5_)" fill="#6B6B6A" d="M196.9,138.7c0-0.4,0.3-0.8,0.8-0.8h5c1.7,0,3,0.5,3.8,1.3c0.7,0.7,1,1.6,1,2.6
		v0c0,2.2-1.5,3.5-3.6,3.9l3.3,4.3c0.2,0.2,0.2,0.3,0.2,0.6c0,0.4-0.4,0.8-0.8,0.8c-0.3,0-0.5-0.2-0.7-0.4l-3.8-4.9h-3.9v4.6
		c0,0.4-0.3,0.8-0.8,0.8c-0.4,0-0.8-0.3-0.8-0.8V138.7z M202.6,144.8c2,0,3.5-1,3.5-2.8v0c0-1.7-1.3-2.7-3.4-2.7h-4.1v5.5H202.6z"/>
	<path clip-path="url(#SVGID_5_)" fill="#6B6B6A" d="M212.9,138.6c0-0.4,0.3-0.8,0.7-0.8c0.4,0,0.8,0.3,0.8,0.8v12.1
		c0,0.4-0.3,0.8-0.8,0.8c-0.4,0-0.7-0.3-0.7-0.8V138.6z"/>
	<path clip-path="url(#SVGID_5_)" fill="#6B6B6A" d="M220.2,138.7c0-0.4,0.3-0.8,0.8-0.8h5c1.5,0,2.7,0.4,3.5,1.2
		c0.6,0.6,0.9,1.3,0.9,2.2v0c0,1.7-1.1,2.7-2.1,3.1c1.6,0.5,2.9,1.4,2.9,3.2v0c0,2.3-1.9,3.7-4.9,3.7H221c-0.4,0-0.8-0.3-0.8-0.8
		V138.7z M225.7,143.9c1.8,0,3.1-0.8,3.1-2.4v0c0-1.3-1.1-2.2-3-2.2h-4.1v4.6H225.7z M226.3,150c2,0,3.3-0.9,3.3-2.4v0
		c0-1.5-1.2-2.3-3.6-2.3h-4.2v4.7H226.3z"/>
	<path clip-path="url(#SVGID_5_)" fill="#6B6B6A" d="M235.2,150.4l5.5-11.9c0.2-0.4,0.5-0.7,1-0.7h0.1c0.5,0,0.8,0.2,0.9,0.7
		l5.5,11.9c0.1,0.1,0.1,0.3,0.1,0.4c0,0.4-0.3,0.7-0.7,0.7c-0.4,0-0.6-0.2-0.7-0.6l-1.4-3.1h-7.4l-1.4,3.1c-0.1,0.3-0.4,0.5-0.7,0.5
		c-0.4,0-0.7-0.3-0.7-0.7C235.1,150.6,235.1,150.5,235.2,150.4 M244.7,146.4l-3.1-6.9l-3.1,6.9H244.7z"/>
	<path clip-path="url(#SVGID_5_)" fill="#6B6B6A" d="M252.3,149.7c-0.2-0.1-0.3-0.3-0.3-0.6c0-0.4,0.3-0.8,0.7-0.8
		c0.2,0,0.4,0.1,0.5,0.2c1.3,1.1,2.5,1.6,4.3,1.6c1.8,0,3-1,3-2.3v0c0-1.3-0.7-2-3.5-2.6c-3.1-0.7-4.5-1.7-4.5-3.9v0
		c0-2.1,1.9-3.7,4.4-3.7c1.8,0,3.1,0.4,4.3,1.3c0.2,0.1,0.3,0.3,0.3,0.6c0,0.4-0.3,0.7-0.7,0.7c-0.2,0-0.3,0-0.4-0.1
		c-1.1-0.8-2.2-1.2-3.5-1.2c-1.7,0-2.9,1-2.9,2.2v0c0,1.3,0.7,2,3.6,2.6c3,0.6,4.4,1.7,4.4,3.8v0c0,2.3-1.9,3.8-4.6,3.8
		C255.4,151.6,253.8,150.9,252.3,149.7"/>
</g>
</svg>
