<?xml version="1.0" encoding="utf-8"?>
<!-- Generator: Adobe Illustrator 16.0.0, SVG Export Plug-In . SVG Version: 6.00 Build 0)  -->
<!DOCTYPE svg PUBLIC "-//W3C//DTD SVG 1.1//EN" "http://www.w3.org/Graphics/SVG/1.1/DTD/svg11.dtd">
<svg version="1.1" id="Layer_1" xmlns="http://www.w3.org/2000/svg" xmlns:xlink="http://www.w3.org/1999/xlink" x="0px" y="0px"
	 width="314.646px" height="308.977px" viewBox="0 0 314.646 308.977" enable-background="new 0 0 314.646 308.977"
	 xml:space="preserve">
<path id="path16" fill="#80BB36" d="M148.069,98.727h-14.464v52.012h14.464c20.654,0,30.511-5.408,30.511-25.935
	C178.581,104.135,168.668,98.727,148.069,98.727z M149.518,173.867h-42.37V37.803h26.458v37.796h15.912
	c32.879,0,55.52,16.257,55.52,49.129C205.038,157.613,182.397,173.867,149.518,173.867z M255.219,98.719h-14.465v52.012h14.465
	c20.652,0,30.512-5.407,30.512-25.935C285.731,104.128,275.817,98.719,255.219,98.719z M256.667,173.859h-42.367V0h26.455v75.591
	h15.912c32.877,0,55.52,16.257,55.52,49.129C312.186,157.605,289.543,173.859,256.667,173.859z M40.92,150.739H26.456V98.726H40.92
	c20.651,0,30.512,5.409,30.512,25.936C71.433,145.328,61.517,150.739,40.92,150.739z M42.368,75.599H0V211.66h26.456v-37.793h15.912
	c32.878,0,55.521-16.26,55.521-49.131C97.89,91.852,75.246,75.599,42.368,75.599L42.368,75.599"/>
<path id="path18" fill="#BABBBB" d="M291.493,306.15h5.393v-6.648l3.471-3.629l6.07,10.277h6.395l-8.674-14.262l8.029-8.416h-6.811
	l-8.48,9.25v-9.25h-5.393V306.15L291.493,306.15z M267.008,306.15h5.434l-0.158-14.262c1.541,3.02,1.924,3.725,3.979,7.1
	l4.238,7.162h5.555v-22.678h-5.428l0.256,14.553c-1.059-1.992-1.602-3.023-3.4-6.199l-4.91-8.354h-5.564V306.15z M255.694,298.443
	h-5.748c0.514-1.701,1.379-4.369,1.863-6.07c0.32-1.158,0.645-2.346,0.93-3.502L255.694,298.443L255.694,298.443z M249.879,283.473
	l-8.414,22.678h6.039l1.123-3.631h8.352l1.125,3.631h6.039l-8.35-22.678H249.879L249.879,283.473z M230.958,296.545
	c1.16,0.033,3.408,0.062,3.408,2.797c0,2.602-2.475,2.666-4.371,2.699h-3.953v-5.496H230.958L230.958,296.545z M230.702,287.711
	c1.094,0,2.99,0.096,2.99,2.283c0,2.344-2.09,2.408-3.377,2.441h-4.273v-4.725H230.702z M220.647,306.15h9.572
	c2.604,0,4.434-0.098,6.137-0.834c2.824-1.252,3.756-3.723,3.756-5.49c0-1.289-0.451-2.543-1.254-3.408
	c-1.248-1.416-3.08-1.701-4.459-1.926c1.219-0.26,3.402-0.707,4.43-3.02c0.096-0.227,0.418-0.967,0.418-2.188
	c0-2.152-1.125-4.367-3.918-5.266c-1.381-0.451-3.533-0.547-5.912-0.547h-8.77V306.15z M199.008,283.473v22.678h5.65v-9.156h10.828
	V292.6h-10.828v-4.762h11.758v-4.365H199.008z M176.565,306.15h17.762v-4.461h-12.111v-5.404h10.377v-4.297h-10.377v-4.117h11.117
	v-4.398h-16.768V306.15z M164.887,283.473v22.678h5.648v-22.678H164.887z M150.686,287.711c1.189,0.031,3.278,0.127,3.278,3.02
	c0,3.023-2.604,3.088-3.408,3.117h-4.692v-6.137H150.686z M140.182,306.15h5.683v-8.098h3.566l4.5,8.098h6.261l-5.233-9.059
	c1.541-0.58,4.655-1.703,4.655-6.266c0-2.055-0.738-3.854-1.798-5.041c-2.086-2.248-5.041-2.281-7.419-2.312h-10.214V306.15z
	 M126.188,296.545c1.157,0.033,3.407,0.062,3.407,2.797c0,2.602-2.475,2.666-4.371,2.699h-3.955v-5.496H126.188z M125.931,287.711
	c1.093,0,2.989,0.096,2.989,2.283c0,2.344-2.089,2.408-3.375,2.441h-4.276v-4.725H125.931z M115.876,306.15h9.572
	c2.604,0,4.436-0.098,6.137-0.834c2.825-1.252,3.756-3.723,3.756-5.49c0-1.289-0.449-2.543-1.252-3.408
	c-1.252-1.416-3.081-1.701-4.462-1.926c1.22-0.26,3.402-0.707,4.431-3.02c0.096-0.227,0.417-0.967,0.417-2.188
	c0-2.152-1.124-4.367-3.917-5.266c-1.38-0.451-3.534-0.547-5.912-0.547h-8.77V306.15L115.876,306.15z M99.151,288.258
	c1.736,0,3.921-0.033,5.465,2.021c1.028,1.416,1.188,2.992,1.188,4.562c0,6.525-4.179,6.688-7.199,6.752H96.87v-13.336H99.151z
	 M91.155,306.15h8.929c2.377-0.033,8.706-0.16,10.793-7.16c0.288-0.965,0.577-2.41,0.577-4.371c0-3.182-0.898-6.361-3.243-8.482
	c-2.889-2.568-7.068-2.633-9.832-2.664h-7.225V306.15z M66.468,306.15h5.435l-0.16-14.262c1.541,3.02,1.925,3.725,3.979,7.1
	l4.237,7.162h5.553v-22.678h-5.425l0.257,14.553c-1.06-1.992-1.604-3.023-3.403-6.199l-4.91-8.354h-5.564V306.15L66.468,306.15z
	 M54.833,298.443h-5.75c0.513-1.701,1.38-4.369,1.862-6.07c0.322-1.158,0.643-2.346,0.932-3.502L54.833,298.443L54.833,298.443z
	 M49.019,283.473l-8.416,22.678h6.039l1.125-3.631h8.352l1.125,3.631h6.038l-8.352-22.678H49.019z M23.051,283.473v22.678h5.65
	v-9.156h10.826V292.6H28.701v-4.762h11.758v-4.365H23.051z M9.282,287.646c1.639,0,4.5,0,4.5,3.309c0,3.506-2.571,3.568-4.693,3.568
	H5.682v-6.877H9.282z M0,306.15h5.682v-7.422h3.76c3.087-0.064,7.262-0.16,9.22-4.205c0.514-1.059,0.771-2.281,0.771-3.535
	c0-1.543-0.417-3.375-1.285-4.66c-1.99-2.855-5.298-2.855-9.026-2.855H0V306.15L0,306.15"/>
<path id="path20" fill="#BABBBB" d="M163.602,272.137h17.76v-4.465H169.25v-5.4h10.377v-4.301H169.25v-4.115h11.117v-4.396h-16.766
	V272.137z M152.667,249.459v8.191h-8.293v-8.191h-5.715v22.678h5.715v-9.674h8.293v9.674h5.683v-22.678H152.667z M130.131,264.686
	c-0.771,1.316-1.96,3.373-4.915,3.373c-3.052,0-5.591-2.473-5.591-7.455c0-3.791,1.928-7.197,5.591-7.197
	c0.932,0,2.022,0.254,3.116,1.125c0.996,0.836,1.381,1.604,1.703,2.344l4.498-2.248c-0.643-1.125-1.381-2.377-2.955-3.631
	c-1.704-1.344-4.016-2.246-6.619-2.246c-6.424,0-10.983,5.299-10.983,12.014c0,7.678,4.847,12.049,10.854,12.049
	c3.148,0,5.364-1.318,6.328-1.992c1.799-1.252,2.603-2.537,3.438-3.855L130.131,264.686z M89.869,268.059
	c1.414,1.639,3.95,4.59,10.343,4.59c3.182,0,6.459-0.672,8.514-3.047c1.188-1.383,1.797-3.184,1.797-4.82
	c0-2.57-1.316-4.594-3.917-5.561c-1.284-0.451-4.529-1.061-6.94-1.35c-0.964-0.127-2.894-0.385-2.894-2.119
	c0-1.092,1.125-2.377,3.376-2.377c1.445,0,2.892,0.547,3.696,0.994c0.9,0.514,1.542,1.125,2.249,1.83l4.172-2.984
	c-1.958-1.768-4.783-4.303-10.021-4.303c-3.921,0-9.121,1.732-9.121,7.58c0,4.883,4.718,5.879,6.1,6.168
	c1.221,0.258,2.475,0.418,3.729,0.576c1.67,0.227,3.952,0.516,3.952,2.314c0,1.576-1.928,2.637-4.178,2.637
	c-1.318,0-2.861-0.289-4.372-1.094c-1.123-0.607-1.604-1.123-2.183-1.766L89.869,268.059z M70.101,253.951h5.911v18.186h5.683
	v-18.186h5.879v-4.492H70.101V253.951z M60.483,249.459v14.102c-0.032,1.768-0.032,4.402-3.889,4.402
	c-1.414,0-2.958-0.355-3.664-1.541c-0.385-0.707-0.418-1.672-0.418-2.828v-14.135h-5.714v12.654
	c-0.032,3.086-0.032,7.068,4.334,9.316c1.541,0.803,3.565,1.219,5.27,1.219c0.964,0,6.008-0.191,8.448-4.105
	c1.252-2.057,1.284-4.244,1.316-6.43v-12.654H60.483z M24.522,272.137h17.762v-4.465H30.173v-5.4H40.55v-4.301H30.173v-4.115h11.116
	v-4.396H24.522V272.137z M7.996,254.24c1.735,0,3.921-0.031,5.464,2.025c1.028,1.414,1.189,2.988,1.189,4.564
	c0,6.521-4.179,6.682-7.2,6.746H5.714V254.24H7.996z M0,272.137h8.928c2.378-0.033,8.706-0.164,10.793-7.164
	c0.289-0.963,0.578-2.41,0.578-4.369c0-3.182-0.899-6.363-3.243-8.48c-2.89-2.568-7.068-2.631-9.832-2.664H0V272.137L0,272.137"/>
</svg>
