<?xml version="1.0" encoding="UTF-8" standalone="no"?>
<svg
   xmlns:dc="http://purl.org/dc/elements/1.1/"
   xmlns:cc="http://creativecommons.org/ns#"
   xmlns:rdf="http://www.w3.org/1999/02/22-rdf-syntax-ns#"
   xmlns:svg="http://www.w3.org/2000/svg"
   xmlns="http://www.w3.org/2000/svg"
   xmlns:xlink="http://www.w3.org/1999/xlink"
   xmlns:sodipodi="http://sodipodi.sourceforge.net/DTD/sodipodi-0.dtd"
   xmlns:inkscape="http://www.inkscape.org/namespaces/inkscape"
   version="1.0"
   width="137.09755"
   height="28.620659"
   viewBox="0 0 933.63923 195.14086"
   id="svg3737"
   inkscape:version="0.48.4 r9939"
   sodipodi:docname="UniCredit_Bank_AG_HypoVereinsbank_Logo_2010.svg">
  <metadata
     id="metadata3799">
    <rdf:RDF>
      <cc:Work
         rdf:about="">
        <dc:format>image/svg+xml</dc:format>
        <dc:type
           rdf:resource="http://purl.org/dc/dcmitype/StillImage" />
        <dc:title></dc:title>
      </cc:Work>
    </rdf:RDF>
  </metadata>
  <sodipodi:namedview
     pagecolor="#ffffff"
     bordercolor="#666666"
     borderopacity="1"
     objecttolerance="10"
     gridtolerance="10"
     guidetolerance="10"
     inkscape:pageopacity="0"
     inkscape:pageshadow="2"
     inkscape:window-width="640"
     inkscape:window-height="480"
     id="namedview3797"
     showgrid="false"
     fit-margin-top="0"
     fit-margin-left="0"
     fit-margin-right="0"
     fit-margin-bottom="0"
     inkscape:zoom="0.95041234"
     inkscape:cx="101.56297"
     inkscape:cy="15.921405"
     inkscape:window-x="0"
     inkscape:window-y="0"
     inkscape:window-maximized="0"
     inkscape:current-layer="svg3737" />
  <defs
     id="defs3739">
    <filter
       id="filter-bg-shadow"
       color-interpolation-filters="sRGB">
      <feGaussianBlur
         stdDeviation="2.5365493"
         id="feGaussianBlur3742" />
    </filter>
    <linearGradient
       id="lg1">
      <stop
         style="stop-color:#ffebe3;stop-opacity:1"
         offset="0"
         id="stop3745" />
      <stop
         style="stop-color:#f39672;stop-opacity:1"
         offset="0.14676516"
         id="stop3747" />
      <stop
         style="stop-color:#e2001a;stop-opacity:1"
         offset="0.36621189"
         id="stop3749" />
      <stop
         style="stop-color:#cf001a;stop-opacity:1"
         offset="0.70826375"
         id="stop3751" />
      <stop
         style="stop-color:#af0819;stop-opacity:1"
         offset="0.84236193"
         id="stop3753" />
      <stop
         style="stop-color:#b30414;stop-opacity:1"
         offset="1"
         id="stop3755" />
    </linearGradient>
    <radialGradient
       id="rg1"
       cx="-15.762797"
       cy="5.373209"
       r="11.5015"
       fx="-15.762797"
       fy="5.373209"
       xlink:href="#lg1"
       gradientUnits="userSpaceOnUse"
       gradientTransform="matrix(9.2538966,9.2538963,9.8402399,-9.8402234,151.20406,246.25517)" />
    <linearGradient
       id="lg2"
       x1="921.27448"
       y1="14.045666"
       x2="1026.6995"
       y2="-57.260788"
       gradientUnits="userSpaceOnUse"
       gradientTransform="matrix(1.6311504,0,0,1.6311504,-1487.2357,142.60073)">
      <stop
         style="stop-color:#464648;stop-opacity:1"
         offset="0"
         id="stop3759" />
      <stop
         style="stop-color:#464648;stop-opacity:1"
         offset="0.04910786"
         id="stop3761" />
      <stop
         style="stop-color:#919294;stop-opacity:1"
         offset="0.09470124"
         id="stop3763" />
      <stop
         style="stop-color:#464648;stop-opacity:1"
         offset="0.15467197"
         id="stop3765" />
      <stop
         style="stop-color:#515153;stop-opacity:1"
         offset="0.90608072"
         id="stop3767" />
      <stop
         style="stop-color:#919294;stop-opacity:1"
         offset="0.95977587"
         id="stop3769" />
      <stop
         style="stop-color:#515153;stop-opacity:1"
         offset="0.98384809"
         id="stop3771" />
      <stop
         style="stop-color:#515153;stop-opacity:1"
         offset="1"
         id="stop3773" />
      <stop
         style="stop-color:#515153;stop-opacity:1"
         offset="1"
         id="stop3775" />
    </linearGradient>
    <g
       id="signet">
      <path
         d="m 100.00005,9.9298405 c -49.78173,0 -90.070085,40.3393765 -90.070085,90.1210595 0,23.21094 8.765786,44.38414 23.19292,60.35257 -0.586578,0.82529 -4.131557,5.82686 -4.230797,5.96389 -1.480301,2.05205 -4.399653,5.40302 -1.47823,8.41062 2.921423,2.99975 8.283553,-1.31926 10.19469,-2.75257 0.236599,-0.17672 3.298774,-2.47891 4.28177,-3.21132 15.690917,13.2621 35.941306,21.25592 58.109732,21.25592 49.74245,0 90.06994,-40.28442 90.06994,-90.01911 0,-16.542002 -4.46315,-32.044847 -12.23363,-45.36637 2.89807,-3.024692 4.58517,-5.541133 4.53672,-7.595044 -0.11744,-4.299892 2.4389,-9.58942 -16.20946,-11.570974 -1.10429,-0.117769 -2.32488,-0.228018 -3.61919,-0.30584 C 146.34514,19.571456 124.2932,9.9298405 100.00005,9.9298405 z"
         style="opacity:0.58064515;fill:#00001a;fill-opacity:1;fill-rule:nonzero;stroke:none;filter:url(#filter-bg-shadow)"
         id="path3778"
         inkscape:connector-curvature="0" />
      <path
         d="m 183.97812,92.48321 c 0,49.73469 -40.32025,90.05503 -90.062831,90.05503 -49.781731,0 -90.1020075,-40.32034 -90.1020075,-90.05503 0,-49.781682 40.3202765,-90.1098532 90.1020075,-90.1098532 49.742581,0 90.062831,40.3281712 90.062831,90.1098532"
         style="fill:url(#rg1);fill-opacity:1;fill-rule:nonzero;stroke:none"
         id="path3780"
         inkscape:connector-curvature="0" />
      <path
         d="m 86.263269,44.784898 c 1.879738,1.433292 11.309745,6.95503 14.129351,8.717276 l 0.96336,0.689242 0.46993,-0.697072 c 0.99471,-1.6526 1.38632,-2.984075 -1.43329,-4.746337 -2.819606,-1.770076 -12.249613,-7.283984 -14.129351,-8.717276 l -3.078062,-2.490652 c 1.16699,3.226888 1.95022,6.383278 3.078062,7.244819"
         style="fill:#4b4b4d;fill-opacity:1;fill-rule:nonzero;stroke:none"
         id="path3782"
         inkscape:connector-curvature="0" />
      <path
         d="m 88.197814,67.451381 c 0,0 10.401209,-13.463614 11.395901,-15.116214 0.994695,-1.660429 1.386295,-2.984075 -1.433292,-4.754167 -2.819606,-1.762246 -12.249629,-7.276138 -14.129351,-8.709446 -1.871908,-1.433292 -1.542954,-6.735721 3.978768,-7.840059 5.513892,-1.104354 53.40801,-5.075292 72.06439,-3.085908 18.64855,1.981554 16.96461,8.725105 16.22055,11.583875 -1.08085,4.166758 -7.51111,10.487368 -17.66169,19.643243 0,0 -16.77664,15.562659 -29.01843,26.269318 -12.24961,10.69883 -51.42645,43.688207 -59.039371,49.656357 -7.620768,5.96817 -37.140463,27.92976 -39.059348,29.36306 -1.911072,1.43329 -7.268325,5.74886 -10.189748,2.74911 -2.921423,-3.00758 0,-6.35977 1.480302,-8.41182 1.480285,-2.04421 60.973935,-86.052766 65.391319,-91.347349"
         style="fill:#ffffff;fill-opacity:1;fill-rule:nonzero;stroke:none"
         id="path3784"
         inkscape:connector-curvature="0" />
      <path
         d="m 175.14351,33.052213 c 0.75979,1.832744 1.44112,5.333748 1.15127,6.477249 -1.0808,4.166758 -7.51112,10.487368 -17.66161,19.643243 0,0 -16.77666,15.562659 -29.01844,26.269318 -12.24961,10.69883 -51.426455,43.688207 -59.039392,49.656357 -7.620751,5.96817 -37.140447,27.92976 -39.059348,29.36305 -1.456797,1.09652 -7.957551,2.03638 -10.824151,1.95806 0.924209,1.32365 2.576809,2.77261 4.276403,4.43305 3.01541,2.91359 8.278675,-1.30799 10.197577,-2.74912 1.911056,-1.4333 31.438581,-23.41054 39.051519,-29.36304 7.612921,-5.96816 46.789762,-38.957527 59.039372,-49.656373 12.24179,-10.706659 29.01849,-26.269302 29.01849,-26.269302 10.15049,-9.155892 15.69575,-14.137197 16.77655,-18.303938 0.50125,-1.926731 1.17492,-7.941892 -3.90824,-11.458554"
         style="fill:url(#lg2);fill-opacity:1"
         id="path3786"
         inkscape:connector-curvature="0" />
    </g>
  </defs>
  <use
     x="2790.5"
     y="60.599998"
     transform="matrix(1.007,0,0,1.007,-2816.1462,-63.414169)"
     xlink:href="#signet"
     id="use3790"
     width="3800"
     height="300" />
  <g
     style="fill:#000000"
     id="g3792"
     transform="translate(-2816.1462,-63.414169)">
    <path
       id="UniCredit"
       d="m 3662.0969,104.45063 c -5.0278,-2.4888 -7.4674,-6.49793 -7.4674,-12.27171 0,-7.9339 5.8083,-12.73057 15.4155,-12.73057 4.7344,0 6.0117,0.43621 9.0254,3.08227 7.9781,7.00486 6.2103,18.43941 -3.4482,22.30399 -5.3204,2.12879 -8.6394,2.03457 -13.5253,-0.38398 z m -413.2555,-0.12643 c -5.0668,-2.50799 -7.2119,-6.13424 -7.2119,-12.19133 0,-7.93318 5.8314,-12.68452 15.568,-12.68452 5.2499,0 5.9532,0.28594 9.5496,3.88235 3.4008,3.40072 3.8824,4.46138 3.8824,8.54966 0,6.41703 -2.2696,10.33333 -7.3163,12.62461 -5.4474,2.4732 -9.205,2.42627 -14.4718,-0.18077 z m 406.7881,72.76342 0,-57.63929 13.5,0 13.5,0 0,47.53212 c 0,51.46628 0.068,50.75688 -5.5648,58.14176 -3.4583,4.53405 -10.2576,8.28087 -16.3327,9.00039 l -5.1025,0.60431 0,-57.63929 z m -263,3.98385 0,-53.37685 4.75,-2.0325 c 11.3455,-4.85467 17.0002,-6.53552 34.2218,-6.53552 7.6537,0 15.9534,0.88244 15.9534,0.88244 0,0 0.1212,21.64794 0.1212,21.64794 0,0 -16.018,-4.54014 -23.7964,-2.08104 l -3.25,1.02746 0,35.24095 c 0,39.63042 -0.3371,42.13292 -6.6719,49.5337 -4.2784,4.9984 -12.1317,9.04629 -17.5781,9.06048 l -3.75,0.01 0,-53.37686 0,-2e-4 z m -150,-3.98385 0,-57.63929 13.5,0 13.5,0 0,47.53212 c 0,51.46628 0.068,50.75688 -5.5648,58.14176 -3.4583,4.53405 -10.2576,8.28087 -16.3327,9.00039 l -5.1025,0.60431 0,-57.63929 z m -101,3.50638 0,-53.85432 7.5205,-2.23259 c 12.0954,-3.59072 22.0985,-4.98662 36.0011,-5.02387 24.2554,-0.065 36.1742,5.85967 43.1821,21.46511 1.6265,3.62192 1.8245,8.24347 2.0946,48.89501 l 0.2983,44.89502 -5.242,-0.62084 c -9.4113,-1.11463 -19.3245,-9.49846 -21.809,-18.44445 -0.6072,-2.18631 -1.0458,-16.52863 -1.062,-34.72474 -0.032,-36.34764 -0.2725,-37.52507 -8.4649,-41.49094 -4.0999,-1.98473 -5.7733,-2.2127 -12.9538,-1.76473 -4.5351,0.28294 -9.2175,1.03454 -10.4053,1.67023 l -2.1596,1.15581 0,46.96481 0,46.96482 -13.5,0 -13.5,0 0,-53.85433 z m 582.9874,54.56157 c -10.2627,-2.32829 -16.8189,-8.03335 -19.4627,-16.93614 -1.2423,-4.1832 -1.5247,-11.76803 -1.5247,-40.95258 l 0,-35.8185 -6,0 -6,0 0,-11 0,-11 6,0 6,0 0,-8.84107 c 0,-14.96317 3.6098,-22.60032 13.3128,-28.1652 3.7432,-2.1468 6.5095,-2.97757 9.9372,-2.98435 l 4.75,-0.0094 0,20 0,20 8.5,0 8.5,0 0,11 0,11 -8.5,0 -8.5,0 0,32.56574 c 0,20.16119 0.3874,33.28958 1.017,34.46604 1.3773,2.57347 7.5469,4.10393 12.233,3.03458 l 3.75,-0.85574 0,11.41944 0,11.41944 -2.75,1.05025 c -4.3518,1.66199 -15.2429,1.97315 -21.2626,0.60747 z m -81.9874,-155.70722 -4.25,0.0312 c -8.5752,0.0471 -19.1841,8.73605 -21.6875,17.75 -0.5689,2.04861 -1.0625,9.0264 -1.0625,15.5 l 0,11.75 -9.25,-0.625 c -25.832,-1.77021 -43.4637,9.87413 -51.4062,33.9375 -2.4212,7.33484 -2.7173,9.66877 -2.7813,23.15625 -0.062,12.87759 0.265,16.0124 2.1875,22.125 5.5321,17.58956 18.1236,28.53473 36.6875,31.90625 3.89,0.70649 9.5375,1.30655 12.5625,1.34375 6.0721,0.0746 28.0768,-1.48238 34.75,-2.46875 l 4.25,-0.625 0,-76.90625 0,-76.875 z m -33.8125,60.96875 c 1.6681,0.0125 3.1545,0.1547 4.2813,0.4375 l 2.5312,0.625 0,38 0,37.96875 -4.25,0 c -2.3375,0.008 -5.15,0.19031 -6.25,0.40625 -4.9956,0.98066 -13.2053,-2.30165 -17.625,-7.0625 -5.9211,-6.37805 -8.3415,-15.45401 -8.3125,-31.34375 0.034,-18.65116 5.2535,-31.38985 14.9063,-36.375 3.1091,-1.60571 9.7143,-2.69368 14.7187,-2.65625 z m -158.3005,15.03025 c -6.5889,38.60302 1.6475,54.30375 12.241,66.05241 7.5976,8.42612 25.2272,15.50154 40.9042,14.88911 16.5656,-0.64713 23.2624,-3.71736 36.0752,-7.59324 l -0.045,-23.34728 -6.2813,3.4375 c -8.9286,4.86517 -16.7692,6.85957 -27.2812,6.96875 -11.2219,0.11656 -16.7879,-1.82176 -22.2812,-7.78125 -4.2475,-5.71345 -9.1678,-13.11552 -7.9688,-20.625 0,0 67.5307,-9.12147 67.5307,-9.12147 0,0 0.068,-8.45318 -0.093,-10.62853 -1.7002,-22.94534 -9.206,-36.87434 -25.5,-44.59375 -6.5131,-3.08562 -13.2526,-4.24436 -20.9929,-4.61391 -22.7708,-1.08717 -43.0913,18.11283 -46.3077,36.95666 z m 46.613,-18.124 c 7.7148,-0.0624 12.0693,1.74269 16.2188,6.46875 4.1772,4.75756 5.9916,14.64768 6.26,18.53478 l -45.7494,6.24294 c -1.7819,-17.57739 7.404,-31.11822 23.2706,-31.24647 z m -160.1777,98.09542 c -17.3576,-3.12829 -32.1881,-13.18381 -42.4198,-28.76186 -9.442,-14.37567 -14.0345,-30.96893 -14.0345,-50.70856 0,-25.63613 7.2376,-44.60146 23.1135,-60.56607 13.6478,-13.72403 25.6401,-18.50387 46.0185,-18.34179 12.5076,0.0995 20.9712,1.83938 29.1786,5.99836 l 4.8214,2.44319 0,13.57583 0,13.57582 -5.0967,-4.58235 c -9.0669,-8.15199 -23.5315,-10.77073 -36.1019,-6.53608 -17.9616,6.05083 -29.8366,23.0504 -32.8686,47.05292 -2.9622,23.4505 9.5951,49.99075 28.1005,59.39138 13.7504,6.98506 32.5261,4.86859 42.7167,-4.81518 l 3.25,-3.08836 0,13.67932 0,13.67932 -4.9832,2.52518 c -2.7408,1.38884 -7.5783,3.20445 -10.75,4.03467 -7.2223,1.89049 -24.0982,2.67813 -30.9445,1.44426 z m -269.8253,-0.42369 c -15.2311,-2.76823 -28.8018,-12.63548 -34.8039,-25.30598 l -3.1931,-6.74075 -0.2843,-51.77822 c -0.2681,-48.82282 -0.1772,-52.0192 1.5918,-56 1.0319,-2.32198 3.0829,-5.64929 4.5578,-7.39403 3.6603,-4.32992 11.9802,-8.32775 17.331,-8.32775 l 4.3037,0 0.022,58.25 c 0.025,65.73714 -0.2885,62.94215 7.8346,69.89525 9.1652,7.84511 22.1192,7.84714 31.2811,0.005 7.5427,-6.45626 7.3023,-4.58447 7.8623,-61.2307 l 0.5,-50.58056 3.0359,-4.91944 c 3.9291,-6.36686 11.9815,-11.41955 18.1991,-11.41955 l 4.3235,0 -0.2792,61.75 -0.2793,61.75 -3.2279,6.81505 c -6.1268,12.93542 -19.3887,22.44277 -35.2549,25.27385 -9.1441,1.63162 -14.3622,1.62227 -23.5202,-0.0422 z"
       inkscape:connector-curvature="0" />
  </g>
</svg>
