<?xml version="1.0" encoding="UTF-8" standalone="no"?>
<svg xmlns:rdf="http://www.w3.org/1999/02/22-rdf-syntax-ns#" xmlns="http://www.w3.org/2000/svg" height="34.146mm" width="188.76mm" version="1.1" xmlns:cc="http://creativecommons.org/ns#" xmlns:dc="http://purl.org/dc/elements/1.1/" viewBox="0 0 668.82998 120.98945">
 <g transform="translate(-37.67 -850.22)">
  <path stroke="#2e3437" stroke-width="17.5" d="m46.42 850.22v118.49" fill="none"/>
  <path stroke="#2e3437" stroke-width="17.5" d="m116.12 850.22v118.49" fill="none"/>
  <g fill-rule="evenodd" fill="#2e3437">
   <path d="m107.6 898.83h-37.69l-8.49 14.6h46.18z"/>
   <path d="m189.66 932.41c-17.98 0.29064-34.572 3.5886-30.305 19.319 3.7743 11.994 31.739 6.782 30.305-19.319zm-35.497-42.249 1.5548 13.633c21.75-5.7767 37.23-5.2549 33.719 17.417-24.112-1.0765-44.562 8.3078-47.316 26.57-2.2458 25.602 35.653 34.092 49.207 5.6562l-0.60968 15.279h16.176v-57.923c-0.18785-23.345-26.727-27.954-52.731-20.631z"/>
   <path d="m295.59 888.86h-16.67v42.487c0.12202 6.9513-5.1046 17.086-10.416 21.139-11.127 8.4916-22.246 3.5577-22.761-5.726l-0.49-57.9h-16.67v59.042c0.0807 15.623 10.678 22.969 24.922 22.922 10.363-0.0341 21.7-6.1302 26.964-17.569l-1.0516 15.455h16.175z"/>
   <path d="m359.74 888.38c-32.577-4.2367-40.423 5.1644-46.493 15.49-3.7506 17.195-0.53849 25.357 26.87 33.234 11.842 4.5244 7.4203 17.909-2.36 19.549-8.1861 1.8213-24.002-1.7842-24.002-1.7842l0.0224 14.364c36.689 6.7465 51.884-9.8422 51.994-24.569-0.10978-12.156-11.14-20.648-23.322-22.881-5.0388-0.92332-14.2-5.567-12.842-12.904 0.45341-2.4502 1.9803-7.667 10.912-8.9255 7.1356-0.44634 12.987 0.86091 18.815 2.3772z"/>
  </g>
  <g fill-rule="evenodd" fill="#6b7276">
   <path d="m398.53 955.47v-29.78c0.22761-13.025 10.882-24.973 20.852-24.713 7.599 0.19755 13.997 8.9946 15.053 19.265 0.59878 6.7634 1.1433 13.888-2.0392 21.456-8.5592 19.728-21.743 14.857-33.866 13.773zm-17.03-105.25v116.62c56.092 13.914 70.916-16.147 70.854-38.51 0.0622-26.4-8.1712-41.437-30.429-41.341-9.0908-0.0969-19.085 5.4958-24.528 16.705 1.4088-16.801 1.2436-53.478 1.2436-53.478z"/>
   <path d="m548.38 968.71h16.67v-42.173c-0.12202-6.9513 5.1046-17.086 10.416-21.139 11.127-8.4916 22.246-3.5577 22.761 5.726l0.49337 57.586h16.67v-58.728c-0.0807-15.623-10.678-22.969-24.922-22.922-10.363 0.0341-21.258 5.9534-26.522 17.392l0.60968-15.713h-16.175z"/>
   <path d="m509.65 932.41c-17.98 0.29064-34.572 3.5886-30.305 19.319 3.7743 11.994 31.739 6.782 30.305-19.319zm-35.497-42.249 1.5548 13.633c21.75-5.7767 37.23-5.2549 33.719 17.417-24.112-1.0765-44.562 8.3078-47.316 26.57-2.2458 25.602 35.653 34.092 49.207 5.6562l-0.60968 15.279h16.176v-57.923c-0.18785-23.345-26.727-27.954-52.731-20.631z"/>
  </g>
  <path stroke="#6b7276" stroke-width="17" d="m645.6 850.22v118.49" fill="none"/>
  <path fill="#6b7276" d="m683.2 888.36-22.15 38.2 22.95 42.15h22.5l-28.5-42.85 27.1-37.5z" fill-rule="evenodd"/>
 </g>
</svg>
