<?xml version="1.0" encoding="utf-8"?>
<!-- Generator: Adobe Illustrator 21.0.0, SVG Export Plug-In . SVG Version: 6.00 Build 0)  -->
<svg version="1.1" id="svg3681" xmlns:svg="http://www.w3.org/2000/svg"
	 xmlns="http://www.w3.org/2000/svg" xmlns:xlink="http://www.w3.org/1999/xlink" x="0px" y="0px" viewBox="0 0 192 92"
	 style="enable-background:new 0 0 192 92;" xml:space="preserve">
<style type="text/css">
	.st0{fill:#030303;}
	.st1{fill:#040404;}
	.st2{fill:#050505;}
	.st3{fill:#109B68;}
	.st4{fill:#118257;}
	.st5{fill:#37A97D;}
	.st6{fill:#44AF85;}
	.st7{fill:#64BA97;}
	.st8{fill:#7AC2A3;}
	.st9{fill:#28A475;}
	.st10{fill:#54B58E;}
	.st11{fill:#96CFB8;}
	.st12{fill:#189F6D;}
	.st13{fill:#009B6E;}
	.st14{fill:#84C6A9;}
	.st15{fill:#6EBE9D;}
	.st16{fill:#01925D;}
	.st17{fill:#008A57;}
	.st18{fill:#008755;}
	.st19{fill:#008151;}
	.st20{fill:#019163;}
	.st21{fill:#74C0A0;}
	.st22{fill:#007A4D;}
	.st23{fill:#008456;}
</style>
<g>
	<path class="st0" d="M142.417,46.502c0-3.556,0-7.067,0-10.652c1.268,0,2.583-0.029,3.897,0.009
		c1.05,0.031,2.099,0.134,3.147,0.228c0.233,0.021,0.466,0.124,0.685,0.22c0.834,0.367,1.453,0.926,1.51,1.9
		c0.059,0.991-0.473,1.655-1.279,2.139c-0.22,0.132-0.455,0.238-0.649,0.337c0.576,0.38,1.209,0.685,1.701,1.144
		c1.207,1.126,1.049,2.995-0.375,3.825c-0.736,0.429-1.626,0.765-2.465,0.811C146.531,46.579,144.463,46.502,142.417,46.502z
		 M145.205,45.4c1.114-0.15,2.174-0.182,3.168-0.457c1.076-0.297,1.435-1.494,0.757-2.31c-0.29-0.348-0.748-0.627-1.184-0.766
		c-0.613-0.194-1.276-0.227-1.919-0.329c0.158-1.101,0.371-1.33,1.372-1.503c0.234-0.041,0.467-0.122,0.684-0.22
		c0.571-0.258,0.899-0.677,0.851-1.341c-0.048-0.667-0.43-1.082-1.044-1.178c-0.869-0.136-1.755-0.165-2.685-0.245
		C145.205,39.882,145.205,42.551,145.205,45.4z"/>
	<path class="st0" d="M173.051,42.226c-0.094-2.144-0.185-4.229-0.277-6.344c0.763,0,1.547,0,2.357,0c0,3.518,0,7.042,0,10.665
		c-0.532,0-1.138,0.018-1.741-0.014c-0.135-0.007-0.295-0.167-0.384-0.298c-1.597-2.36-3.184-4.727-4.786-7.112
		c0,2.447,0,4.902,0,7.391c-0.758,0-1.543,0-2.331,0c0-3.529,0-7.07,0-10.664c0.806,0,1.616-0.028,2.422,0.019
		c0.205,0.012,0.456,0.222,0.584,0.411c1.321,1.942,2.621,3.899,3.93,5.85C172.841,42.155,172.888,42.159,173.051,42.226z"/>
	<path class="st0" d="M74.858,42.191c-0.092-2.08-0.185-4.16-0.279-6.289c0.766,0,1.56,0,2.347,0c0,3.528,0,7.051,0,10.647
		c-0.508,0-1.099,0.027-1.683-0.017c-0.17-0.013-0.371-0.199-0.479-0.358c-1.587-2.342-3.161-4.693-4.759-7.073
		c0,2.472,0,4.929,0,7.411c-0.777,0-1.576,0-2.322,0c0-3.545,0-7.052,0-10.658c0.844,0,1.713-0.021,2.579,0.019
		c0.156,0.007,0.332,0.247,0.446,0.415c1.339,1.976,2.668,3.959,3.999,5.941C74.757,42.216,74.807,42.203,74.858,42.191z"/>
	<path class="st0" d="M134.009,42.287c-0.098-2.165-0.192-4.247-0.289-6.382c0.769,0,1.563,0,2.354,0c0,3.524,0,7.048,0,10.642
		c-0.54,0-1.128,0.013-1.715-0.01c-0.125-0.005-0.288-0.111-0.361-0.219c-1.621-2.4-3.231-4.806-4.842-7.209
		c0,2.425,0,4.885,0,7.392c-0.747,0-1.545,0-2.344,0c0-3.529,0-7.055,0-10.65c0.831,0,1.663-0.035,2.489,0.024
		c0.214,0.015,0.459,0.287,0.603,0.499c1.303,1.929,2.587,3.87,3.878,5.806C133.801,42.209,133.853,42.215,134.009,42.287z"/>
	<path class="st0" d="M54.556,41.219c0-3.254,2.264-5.525,5.505-5.523c3.216,0.002,5.483,2.315,5.458,5.569
		c-0.026,3.223-2.288,5.499-5.471,5.503C56.836,46.773,54.556,44.469,54.556,41.219z M57.224,41.227
		c0.22,0.912,0.361,1.848,0.679,2.718c0.344,0.943,1.117,1.454,2.147,1.45c1.031-0.004,1.769-0.534,2.147-1.465
		c0.723-1.783,0.723-3.6,0.011-5.386c-0.381-0.956-1.115-1.506-2.184-1.501c-1.071,0.005-1.817,0.571-2.165,1.527
		C57.555,39.4,57.437,40.297,57.224,41.227z"/>
	<path class="st0" d="M180.798,46.519c-0.936,0-1.871,0-2.781,0c0-3.555,0-7.081,0-10.637c0.916,0,1.85,0,2.778,0
		c0,1.541,0,3.06,0,4.579c0.04,0.03,0.079,0.06,0.119,0.09c1.057-1.334,2.148-2.644,3.154-4.015
		c0.381-0.519,0.756-0.763,1.397-0.696c0.54,0.056,1.09,0.012,1.799,0.012c-1.457,1.62-2.826,3.141-4.249,4.723
		c1.522,1.955,3.052,3.92,4.651,5.974c-1.083,0-2.083,0.017-3.081-0.017c-0.16-0.005-0.348-0.214-0.463-0.372
		c-1.088-1.487-2.163-2.984-3.324-4.591C180.798,43.297,180.798,44.88,180.798,46.519z"/>
	<path class="st0" d="M155.427,46.529c-0.85,0-1.66,0-2.56,0c0.448-0.985,0.888-1.925,1.306-2.876
		c1.086-2.467,2.156-4.941,3.257-7.401c0.081-0.18,0.356-0.375,0.551-0.386c1.589-0.092,1.579-0.075,2.213,1.368
		c1.278,2.907,2.568,5.809,3.852,8.714c0.077,0.175,0.141,0.356,0.228,0.576c-1.003,0-1.942,0-2.904,0
		c-0.263-0.678-0.537-1.344-0.778-2.023c-0.117-0.331-0.269-0.485-0.657-0.473c-1.054,0.033-2.111,0.037-3.165-0.001
		c-0.423-0.015-0.581,0.161-0.69,0.517C155.882,45.192,155.658,45.832,155.427,46.529z M158.35,39.048
		c-0.545,1.269-1.029,2.398-1.532,3.571c1.051,0,1.982,0,3.014,0C159.332,41.415,158.868,40.297,158.35,39.048z"/>
	<path class="st1" d="M118.256,41.879c0,1.119,0,2.169,0,3.216c1.991,0,3.932,0,5.916,0c0,0.422,0,0.913,0,1.414
		c-2.926,0-5.838,0-8.713,0c0-3.552,0-7.063,0-10.616c2.79,0,5.592,0,8.432,0c0,0.504,0,0.995,0,1.476c-1.864,0-3.703,0-5.612,0
		c0,0.961,0,1.914,0,2.92c1.204,0,2.464,0,3.762,0c0,0.56,0,1.073,0,1.591C120.771,41.879,119.529,41.879,118.256,41.879z"/>
	<path class="st1" d="M86.043,37.368c0,0.978,0,1.938,0,2.935c1.227,0,2.473,0,3.768,0c0,0.529,0,1.039,0,1.576
		c-1.246,0-2.488,0-3.76,0c0,1.088,0,2.17,0,3.215c1.991,0,3.917,0,5.893,0c0,0.412,0,0.9,0,1.423c-2.888,0-5.782,0-8.671,0
		c0-3.535,0-7.059,0-10.625c2.767,0,5.55,0,8.384,0c0,0.477,0,0.967,0,1.476C89.811,37.368,87.955,37.368,86.043,37.368z"/>
	<path class="st0" d="M94.261,46.236c0-0.769,0-1.514,0-2.171c1.066,0.312,2.148,0.7,3.264,0.927c0.6,0.122,1.28,0.06,1.883-0.085
		c0.868-0.21,1.084-1.165,0.383-1.72c-0.539-0.426-1.205-0.697-1.829-1.007c-0.822-0.408-1.691-0.73-2.481-1.191
		c-1.034-0.603-1.55-1.543-1.371-2.769c0.168-1.154,0.943-1.781,1.981-2.151c1.46-0.52,4.024-0.5,5.67,0.054c0,0.75,0,1.507,0,2.138
		c-1.025-0.265-2.046-0.564-3.085-0.779c-0.392-0.081-0.851-0.046-1.23,0.082c-0.311,0.105-0.718,0.392-0.774,0.662
		c-0.057,0.275,0.19,0.712,0.436,0.927c0.336,0.294,0.787,0.465,1.206,0.652c0.898,0.402,1.828,0.737,2.706,1.178
		c1.122,0.563,1.821,1.431,1.691,2.784c-0.127,1.321-0.921,2.102-2.097,2.528C98.499,47.059,96.386,46.825,94.261,46.236z"/>
	<path class="st0" d="M112.199,36.049c0,0.856,0,1.596,0,2.217c-1.02-0.265-2.041-0.565-3.079-0.781
		c-0.392-0.082-0.851-0.049-1.231,0.077c-0.313,0.104-0.723,0.386-0.782,0.656c-0.06,0.273,0.186,0.712,0.43,0.928
		c0.334,0.295,0.784,0.47,1.201,0.657c0.918,0.412,1.871,0.751,2.766,1.207c1.124,0.573,1.787,1.471,1.635,2.816
		c-0.142,1.257-0.9,2.022-2.023,2.442c-2.131,0.797-4.268,0.562-6.419-0.032c0-0.772,0-1.529,0-2.336
		c1.324,0.724,2.682,1.173,4.161,1.169c0.239-0.001,0.52,0.021,0.709-0.09c0.371-0.218,0.84-0.456,0.999-0.807
		c0.238-0.526-0.157-0.979-0.623-1.234c-0.612-0.335-1.274-0.579-1.895-0.9c-0.89-0.46-1.875-0.823-2.621-1.459
		c-1.553-1.325-1.144-3.503,0.718-4.356c1.305-0.598,2.688-0.598,4.075-0.472C110.873,35.809,111.518,35.943,112.199,36.049z"/>
	<path class="st1" d="M43.09,35.87c0.994,0,1.913,0,2.85,0c0.841,2.502,1.681,5.001,2.522,7.501
		c0.076,0.002,0.153,0.004,0.229,0.006c0.867-2.484,1.735-4.968,2.619-7.501c0.714,0,1.515,0,2.38,0
		c-0.661,1.547-1.319,3.049-1.945,4.565c-0.77,1.863-1.527,3.732-2.255,5.612c-0.154,0.397-0.344,0.512-0.756,0.507
		c-1.4-0.019-1.399-0.001-1.925-1.316c-1.164-2.911-2.331-5.822-3.495-8.733C43.236,36.314,43.174,36.111,43.09,35.87z"/>
	<path class="st2" d="M44.844,50.5c1.418,0,2.798-0.007,4.177,0.006c0.259,0.003,0.525,0.063,0.774,0.141
		c0.656,0.206,1.218,0.542,1.344,1.29c0.121,0.723-0.269,1.206-0.829,1.589c-0.089,0.061-0.173,0.128-0.227,0.168
		c0.311,0.213,0.652,0.385,0.913,0.639c0.829,0.807,0.655,2.23-0.411,2.715c-0.697,0.317-1.506,0.469-2.277,0.527
		c-1.133,0.086-2.278,0.022-3.464,0.022C44.844,55.237,44.844,52.902,44.844,50.5z M46.973,56.546c0.511,0,0.954,0.04,1.387-0.009
		c0.717-0.082,1.11-0.452,1.109-0.995c-0.001-0.669-0.435-0.973-1.017-1.101c-0.373-0.082-0.758-0.109-1.169-0.164
		c0.099-0.347,0.188-0.659,0.273-0.957c1.255-0.189,1.708-0.499,1.61-1.085c-0.115-0.687-1.076-0.999-2.194-0.699
		C46.973,53.192,46.973,54.855,46.973,56.546z"/>
	<path class="st3" d="M36.159,60.783c0,0.435,0,0.87,0,1.352c-10.264,0-20.505,0-30.815,0c0-0.497,0-0.99,0-1.483
		c0.449-0.043,0.897-0.085,1.345-0.128c0.51,0.621,1.186,0.674,1.94,0.672c8.484-0.019,16.968-0.017,25.452-0.001
		c0.609,0.001,1.064-0.166,1.394-0.671C35.703,60.61,35.931,60.697,36.159,60.783z"/>
	<path class="st0" d="M99.31,50.508c1.413,0,2.838-0.052,4.257,0.02c0.843,0.043,1.695,0.3,1.975,1.258
		c0.271,0.928-0.329,1.471-0.863,1.808c0.402,0.499,0.922,0.934,1.161,1.491c0.356,0.828-0.026,1.641-0.875,2.002
		c-0.573,0.244-1.214,0.414-1.834,0.447c-1.267,0.068-2.539,0.02-3.821,0.02C99.31,55.216,99.31,52.881,99.31,50.508z
		 M102.007,53.317c1.279-0.191,1.741-0.53,1.592-1.152c-0.154-0.645-1.092-0.921-2.174-0.633c0,1.672,0,3.348,0,5.084
		c0.562-0.04,1.07-0.033,1.561-0.122c0.497-0.09,0.903-0.334,0.918-0.945c0.015-0.619-0.354-0.932-0.874-1.076
		c-0.41-0.114-0.845-0.136-1.303-0.204C101.827,53.931,101.919,53.618,102.007,53.317z"/>
	<path class="st1" d="M54.508,57.587c-0.589,0-1.114,0-1.679,0c0-2.343,0-4.675,0-7.1c0.619,0,1.248-0.028,1.872,0.02
		c0.158,0.012,0.331,0.245,0.438,0.413c0.733,1.157,1.451,2.323,2.265,3.635c0-1.447,0-2.723,0-4.034c0.602,0,1.164,0,1.764,0
		c0,2.321,0,4.654,0,6.991c-1.202,0.272-1.43,0.19-2.089-0.783c-0.836-1.234-1.667-2.472-2.571-3.813
		C54.508,54.52,54.508,56.027,54.508,57.587z"/>
	<path class="st0" d="M87.02,57.518c0-2.321,0-4.642,0-6.901c1.444,0,2.91-0.07,4.366,0.027c0.84,0.056,1.609,0.463,1.963,1.344
		c0.328,0.816,0.071,1.657-0.686,2.207c-0.243,0.176-0.521,0.304-0.822,0.476c0.713,0.954,1.417,1.895,2.188,2.927
		c-0.749,0-1.399,0.024-2.046-0.017c-0.168-0.011-0.378-0.191-0.476-0.351c-0.629-1.027-1.232-2.069-1.791-3.016
		c0.481-0.224,1.029-0.397,1.466-0.72c0.204-0.151,0.277-0.597,0.263-0.903c-0.036-0.798-0.791-1.131-2.294-1.036
		c0,1.959,0,3.922,0,5.964C88.472,57.518,87.753,57.518,87.02,57.518z"/>
	<path class="st2" d="M109.479,50.503c1.422-0.049,1.41-0.043,1.959,1.196c0.859,1.938,1.737,3.868,2.651,5.898
		c-0.692,0-1.318,0.031-1.938-0.02c-0.166-0.014-0.41-0.256-0.449-0.431c-0.162-0.729-0.562-1.027-1.295-0.87
		c-0.042,0.009-0.088,0.004-0.132,0.001c-1.009-0.067-2.053-0.191-2.044,1.303c-0.656,0-1.223,0-1.865,0
		C107.411,55.204,108.44,52.865,109.479,50.503z M110.938,55.219c-0.324-0.789-0.612-1.489-0.956-2.325
		c-0.333,0.845-0.613,1.554-0.917,2.325C109.731,55.219,110.274,55.219,110.938,55.219z"/>
	<path class="st2" d="M85.992,57.597c-0.692,0-1.289,0.051-1.868-0.027c-0.212-0.028-0.489-0.332-0.553-0.561
		c-0.163-0.581-0.451-0.862-1.068-0.736c-0.105,0.022-0.219,0.001-0.329,0.003c-0.505,0.01-1.099-0.139-1.487,0.079
		c-0.335,0.189-0.436,0.795-0.652,1.241c-0.421,0-0.86,0-1.299,0c-0.13,0-0.259,0-0.471,0c0.506-1.149,0.989-2.243,1.471-3.338
		c0.458-1.041,0.947-2.071,1.355-3.131c0.196-0.51,0.456-0.731,0.996-0.648c0.236,0.036,0.481,0.006,0.724,0.006
		C83.859,52.829,84.901,55.158,85.992,57.597z M80.978,55.189c0.667,0,1.221,0,1.861,0c-0.323-0.779-0.615-1.481-0.949-2.286
		C81.562,53.726,81.283,54.427,80.978,55.189z"/>
	<path class="st1" d="M114.835,57.344c0-0.558,0-1.082,0-1.669c0.523,0.212,1.003,0.472,1.516,0.597
		c0.522,0.127,1.083,0.19,1.614,0.142c0.251-0.022,0.595-0.333,0.666-0.58c0.052-0.181-0.217-0.573-0.439-0.691
		c-0.635-0.338-1.331-0.559-1.982-0.872c-0.792-0.381-1.507-0.849-1.506-1.88c0.001-0.92,0.566-1.616,1.619-1.886
		c1.22-0.313,2.437-0.195,3.661,0.108c0,0.565,0,1.103,0,1.563c-0.721-0.189-1.425-0.422-2.148-0.546
		c-0.407-0.07-0.976-0.14-1.133,0.397c-0.161,0.549,0.376,0.74,0.751,0.931c0.701,0.358,1.449,0.629,2.137,1.007
		c0.59,0.324,1.052,0.791,1.062,1.55c0.013,0.914-0.436,1.579-1.415,1.909C117.771,57.919,116.304,57.805,114.835,57.344z"/>
	<path class="st4" d="M5.347,34.78c0-1.159,0-2.318,0-3.516c10.239,0,20.468,0,30.807,0c0,1.213,0,2.43,0,3.648
		c-0.219-0.003-0.437-0.005-0.656-0.008c-0.014-0.395-0.028-0.79-0.042-1.185c0-0.264-0.001-0.528-0.001-0.792
		c-0.064-0.791-0.364-1.075-1.168-1.075c-5.186-0.002-10.372-0.001-15.558-0.001c-3.626,0-7.252-0.002-10.877,0.002
		c-0.788,0.001-1.025,0.204-1.157,0.942c-0.049,0.307-0.098,0.615-0.148,0.922c-0.063,0.352-0.127,0.703-0.19,1.055
		C6.02,34.773,5.684,34.777,5.347,34.78z"/>
	<path class="st0" d="M71.595,50.424c1.543,0.067,3.087,0.032,4.602,0.228c1.516,0.196,2.242,1.373,1.802,2.618
		c-0.291,0.823-0.984,1.17-1.766,1.296c-0.837,0.136-1.691,0.164-2.542,0.239c0,0.896,0,1.807,0,2.755c-0.688,0-1.382,0-2.097,0
		C71.595,55.232,71.595,52.896,71.595,50.424z M73.674,53.807c0.684-0.107,1.311-0.116,1.859-0.328
		c0.285-0.11,0.594-0.585,0.589-0.89c-0.005-0.299-0.337-0.751-0.626-0.854c-0.553-0.197-1.177-0.193-1.822-0.279
		C73.674,52.268,73.674,52.944,73.674,53.807z"/>
	<path class="st0" d="M63.151,54.853c0,0.852,0,1.762,0,2.707c-0.699,0-1.41,0-2.108,0c0-2.358,0-4.679,0-6.936
		c1.521,0,3.076-0.069,4.62,0.029c0.793,0.05,1.51,0.479,1.813,1.329c0.38,1.067-0.143,2.14-1.339,2.448
		C65.175,54.678,64.158,54.718,63.151,54.853z M63.138,53.817c0.708-0.116,1.337-0.128,1.883-0.346
		c0.285-0.114,0.574-0.586,0.584-0.905c0.009-0.277-0.32-0.723-0.594-0.816c-0.573-0.195-1.208-0.206-1.873-0.301
		C63.138,52.281,63.138,52.953,63.138,53.817z"/>
	<path class="st5" d="M5.341,41.769c0.001-1.45,0.003-2.901,0.004-4.351c0.266-0.005,0.533-0.009,0.799-0.014
		c-0.035,0.09-0.07,0.179-0.106,0.268c-0.002,0.309-0.004,0.617-0.007,0.926c-0.007,1.247-0.096,1.055,1.036,1.057
		c4.451,0.007,8.902,0.003,13.353,0.003c0.083,0.068,0.175,0.203,0.249,0.194c0.581-0.072,1.156-0.195,1.738-0.257
		c1.511-0.161,3.025-0.298,4.538-0.444c-0.409,0.53-0.819,1.06-1.228,1.589c-0.18-0.052-0.359-0.15-0.539-0.15
		c-2.302-0.005-4.603,0.003-6.905,0.008c-0.033,0.042-0.067,0.083-0.1,0.125l0.004-0.013c-0.288,0.052-0.576,0.105-0.864,0.157
		c-0.277-0.051-0.553-0.145-0.83-0.146c-3.276-0.01-6.552,0.008-9.827-0.019c-0.631-0.005-0.848,0.218-0.753,0.81
		c-0.006,0.089-0.011,0.178-0.017,0.268C5.704,41.777,5.523,41.773,5.341,41.769z"/>
	<path class="st0" d="M95.233,50.501c0.721,0,1.4,0,2.114,0c0,2.332,0,4.668,0,7.05c-0.677,0-1.388,0-2.114,0
		C95.233,55.226,95.233,52.893,95.233,50.501z"/>
	<path class="st6" d="M36.159,39.926c0,0.617,0,1.233,0,1.85c-0.271-0.001-0.542-0.002-0.813-0.003
		c-0.004-0.219-0.009-0.437-0.013-0.656c0-0.295,0-0.589,0-0.927c-1.389,0-2.662,0-3.935,0c0.029-0.306,0.059-0.612,0.088-0.917
		c1.284-0.005,2.568-0.009,3.852-0.014C35.201,39.985,35.682,39.953,36.159,39.926z"/>
	<path class="st7" d="M5.341,41.769c0.182,0.004,0.363,0.007,0.545,0.011c0.004,0.217,0.008,0.435,0.011,0.652
		c-0.002,0.352-0.005,0.703-0.007,1.055c-0.002,0.881-0.003,1.761-0.005,2.642c-0.014,0.621-0.028,1.243-0.042,1.864
		c-0.173-0.015-0.345-0.03-0.518-0.044C5.331,45.889,5.336,43.829,5.341,41.769z"/>
	<path class="st8" d="M36.151,47.182c0.009,0.875,0.017,1.75,0.026,2.626c-0.283,0.102-0.566,0.204-0.85,0.305
		c-0.035-0.052-0.071-0.103-0.106-0.154c-0.006-0.616-0.012-1.232-0.018-1.848c0.016-0.306,0.031-0.612,0.047-0.919
		C35.551,47.188,35.851,47.185,36.151,47.182z"/>
	<path class="st7" d="M36.151,47.182c-0.3,0.003-0.6,0.007-0.9,0.01c-0.017-0.266-0.033-0.532-0.049-0.798
		c0.014-0.615,0.029-1.229,0.043-1.844c0.302-0.001,0.605-0.002,0.907-0.002C36.152,45.425,36.151,46.303,36.151,47.182z"/>
	<path class="st9" d="M6.689,60.524c-0.449,0.043-0.897,0.085-1.346,0.128c0-0.66,0.001-1.32,0.002-1.979
		c0.359,0.001,0.718,0.002,1.077,0.002c0.046,0.264,0.091,0.528,0.137,0.792C6.602,59.819,6.646,60.171,6.689,60.524z"/>
	<path class="st10" d="M36.152,44.547c-0.302,0.001-0.605,0.002-0.907,0.002c-0.008-0.398-0.015-0.795-0.022-1.193
		c0.03-0.351,0.059-0.702,0.089-1.053c0.011-0.177,0.022-0.354,0.033-0.531c0.271,0.001,0.542,0.002,0.813,0.003
		C36.156,42.699,36.154,43.623,36.152,44.547z"/>
	<path class="st11" d="M5.326,47.948c0.173,0.015,0.345,0.03,0.518,0.044c0,0,0.045-0.012,0.045-0.012
		c0.007,0.483,0.014,0.967,0.022,1.45c0,0.703-0.001,1.407-0.001,2.11c-0.189,0.002-0.378,0.004-0.568,0.005
		C5.336,50.347,5.331,49.148,5.326,47.948z"/>
	<path class="st12" d="M6.144,37.404c-0.266,0.005-0.533,0.009-0.799,0.014c0.001-0.88,0.001-1.759,0.002-2.639
		c0.337-0.003,0.673-0.006,1.01-0.01c-0.016,0.264-0.033,0.528-0.049,0.792c-0.041,0.351-0.082,0.703-0.123,1.054
		C6.171,36.879,6.157,37.142,6.144,37.404z"/>
	<path class="st7" d="M5.342,51.547c0.189-0.002,0.378-0.004,0.567-0.005c0,0,0.057,0,0.057,0l0.056,0.009
		c0.037,1.095,0.073,2.191,0.11,3.286c-0.26,0.001-0.521,0.002-0.781,0.003C5.348,53.742,5.345,52.645,5.342,51.547z"/>
	<path class="st5" d="M36.159,39.926c-0.477,0.028-0.957,0.06-0.821-0.667c0.011-0.618,0.022-1.236,0.034-1.854
		c0.262,0.005,0.524,0.009,0.786,0.014C36.158,38.254,36.158,39.09,36.159,39.926z"/>
	<path class="st12" d="M36.157,37.419c-0.262-0.005-0.524-0.009-0.787-0.014c0,0-0.019,0.004-0.019,0.004
		c-0.004-0.351-0.007-0.701-0.01-1.052c0.004-0.306,0.009-0.612,0.013-0.918c0.048-0.178,0.096-0.356,0.144-0.535
		c0.219,0.003,0.437,0.005,0.656,0.008C36.155,35.747,36.156,36.583,36.157,37.419z"/>
	<path class="st8" d="M36.156,50.356c-0.002,0.659-0.005,1.318-0.007,1.977c-0.307,0-0.613,0-0.92,0
		c-0.001-0.219-0.002-0.438-0.003-0.657c0.033-0.44,0.066-0.881,0.1-1.321C35.602,50.355,35.879,50.355,36.156,50.356z"/>
	<path class="st7" d="M35.229,52.332c0.307,0,0.613,0,0.92,0c0.002,0.704,0.003,1.409,0.005,2.113c-0.264,0-0.527,0-0.791,0
		C35.318,53.741,35.274,53.037,35.229,52.332z"/>
	<path class="st6" d="M5.351,54.84c0.26-0.001,0.521-0.002,0.781-0.003c0.052,0.444,0.103,0.887,0.154,1.331
		c-0.002,0.219-0.004,0.437-0.005,0.656c-0.311,0.044-0.621,0.088-0.932,0.132C5.35,56.251,5.35,55.545,5.351,54.84z"/>
	<path class="st5" d="M5.349,56.956c0.311-0.044,0.621-0.088,0.932-0.132c0.013,0.132,0.025,0.265,0.038,0.397
		c0.037,0.308,0.075,0.616,0.112,0.924c-0.003,0.176-0.006,0.353-0.009,0.529c-0.359-0.001-0.718-0.002-1.077-0.002
		C5.347,58.1,5.348,57.528,5.349,56.956z"/>
	<path class="st10" d="M35.363,54.446c0.264,0,0.527,0,0.791,0c0,0.703,0.001,1.407,0.001,2.11
		c-0.234,0.007-0.468,0.014-0.702,0.021c-0.041-0.138-0.082-0.276-0.123-0.413C35.341,55.591,35.352,55.018,35.363,54.446z"/>
	<path class="st5" d="M35.453,56.577c0.234-0.007,0.468-0.014,0.702-0.021c0,0.705,0.001,1.41,0.001,2.116
		c-0.224,0-0.447-0.001-0.671-0.001c-0.009-0.308-0.017-0.616-0.025-0.924C35.457,57.357,35.455,56.967,35.453,56.577z"/>
	<path class="st9" d="M35.485,58.671c0.224,0,0.447,0.001,0.671,0.001c0.001,0.704,0.002,1.407,0.003,2.111
		c-0.228-0.087-0.456-0.173-0.684-0.26c0-0.352,0-0.704,0.001-1.057C35.479,59.201,35.482,58.936,35.485,58.671z"/>
	<path class="st11" d="M36.156,50.356c-0.277-0.001-0.554-0.001-0.831-0.002c0.001-0.08,0.002-0.161,0.002-0.241
		c0.283-0.102,0.567-0.204,0.85-0.305C36.17,49.99,36.163,50.173,36.156,50.356z"/>
	<path class="st13" d="M35.475,59.467c0,0.352,0,0.704-0.001,1.057c-0.33,0.505-0.784,0.672-1.394,0.671
		c-8.484-0.016-16.968-0.018-25.452,0.001c-0.754,0.002-1.43-0.05-1.94-0.672c-0.044-0.353-0.087-0.705-0.131-1.058
		C16.198,59.466,25.836,59.466,35.475,59.467z"/>
	<path class="st14" d="M35.498,34.904c-0.048,0.178-0.096,0.356-0.144,0.535c-2.36-0.002-4.719-0.008-7.079,0.001
		c-0.253,0.001-0.506,0.092-0.759,0.142c-0.315-0.078-0.628-0.174-0.947-0.229c-1.206-0.209-2.413-0.404-3.62-0.604
		c-0.259,0.184-0.259,0.184,0.247,0.548c-0.213,0.089-0.425,0.257-0.638,0.257c-5.416,0.013-10.833,0.009-16.249,0.008
		c0.016-0.264,0.033-0.528,0.049-0.792c0.063-0.352,0.127-0.703,0.19-1.055c9.636,0.001,19.273,0.002,28.909,0.003
		C35.47,34.113,35.484,34.509,35.498,34.904z"/>
	<path class="st15" d="M6.694,32.793c0.132-0.738,0.369-0.941,1.157-0.942c3.626-0.004,7.252-0.002,10.877-0.002
		c5.186,0,10.372-0.001,15.558,0.001c0.804,0,1.104,0.284,1.168,1.075c-9.241-0.001-18.482,0-27.723-0.008
		C7.386,32.918,7.04,32.837,6.694,32.793z"/>
	<path class="st8" d="M6.694,32.793c0.346,0.044,0.692,0.125,1.037,0.125c9.241,0.008,18.482,0.007,27.723,0.008
		c0,0.264,0.001,0.528,0.001,0.792c-9.636-0.001-19.273-0.002-28.909-0.003C6.596,33.408,6.645,33.101,6.694,32.793z"/>
	<path class="st7" d="M26.909,37.496c-0.579,0.139-1.159,0.278-1.738,0.416c-0.244-0.078-0.488-0.224-0.732-0.225
		c-6.134-0.014-12.267-0.013-18.401-0.015c0.035-0.089,0.07-0.179,0.106-0.268c0.014-0.263,0.028-0.526,0.041-0.788
		c6.14,0.002,12.28,0.005,18.42-0.001c0.254,0,0.509-0.099,0.763-0.152C25.882,36.807,26.395,37.152,26.909,37.496z"/>
	<path class="st10" d="M6.038,37.673c6.134,0.002,12.267,0.001,18.401,0.015c0.244,0.001,0.488,0.146,0.732,0.225
		c-1.033,0.325-2.066,0.65-3.099,0.975c-0.321-0.051-0.641-0.146-0.962-0.147c-4.417-0.01-8.834-0.001-13.25-0.013
		c-0.609-0.002-1.218-0.084-1.828-0.129C6.034,38.29,6.036,37.982,6.038,37.673z"/>
	<path class="st6" d="M6.032,38.599c0.609,0.045,1.218,0.128,1.828,0.129c4.417,0.011,8.833,0.003,13.25,0.013
		c0.321,0.001,0.641,0.096,0.962,0.147c-0.493,0.233-0.986,0.466-1.477,0.698c-0.057,0.023-0.115,0.048-0.174,0.073
		c-4.451,0-8.902,0.004-13.353-0.003C5.935,39.654,6.025,39.846,6.032,38.599z"/>
	<path class="st9" d="M17.314,40.868c-0.516,0.275-1.032,0.55-1.549,0.825c-0.274-0.062-0.548-0.176-0.822-0.177
		c-3.013-0.011-6.027-0.005-9.041-0.003c-0.094-0.592,0.122-0.816,0.753-0.81c3.276,0.027,6.551,0.009,9.827,0.019
		C16.76,40.722,17.037,40.817,17.314,40.868z"/>
	<path class="st9" d="M17.74,41.625c0.146-0.305,0.292-0.61,0.438-0.915c0,0-0.004,0.013-0.004,0.013
		c0.033-0.042,0.067-0.083,0.1-0.125c2.302-0.005,4.603-0.014,6.905-0.008c0.18,0,0.359,0.098,0.539,0.15
		c-0.139,0.258-0.278,0.515-0.417,0.773c0,0,0.013-0.004,0.013-0.004c-0.063-0.002-0.127-0.004-0.19-0.006
		c0.018,0.058,0.035,0.115,0.053,0.173c-0.382-0.012-0.764-0.034-1.147-0.035C21.933,41.633,19.837,41.63,17.74,41.625z"/>
	<path class="st12" d="M5.903,41.513c3.014-0.002,6.027-0.008,9.041,0.003c0.274,0.001,0.548,0.115,0.822,0.177
		c-0.286,0.114-0.564,0.296-0.859,0.328c-1.141,0.122-2.289,0.181-3.43,0.303c-0.223,0.024-0.426,0.224-0.639,0.342
		c-0.548-0.078-1.094-0.206-1.644-0.224c-1.098-0.035-2.197-0.01-3.296-0.01c-0.004-0.217-0.008-0.435-0.011-0.652
		C5.892,41.691,5.897,41.602,5.903,41.513z"/>
	<path class="st9" d="M20.421,39.659c0.059-0.025,0.118-0.049,0.174-0.073c1.961-0.221,3.923-0.446,5.887-0.666
		c0.417-0.047,0.417-0.039,0.464,0.231c-1.513,0.147-3.027,0.284-4.538,0.444c-0.582,0.062-1.157,0.185-1.738,0.257
		C20.595,39.862,20.504,39.727,20.421,39.659z"/>
	<path class="st10" d="M31.485,39.272c-0.387-1.001,0.36-1.459,0.955-1.99c0.97,0.042,1.941,0.084,2.911,0.126
		c0,0,0.019-0.004,0.019-0.004c-0.011,0.618-0.022,1.236-0.033,1.854C34.053,39.263,32.769,39.268,31.485,39.272z"/>
	<path class="st12" d="M31.08,42.297c0.064-0.395,0.128-0.789,0.192-1.184c1.353,0.001,2.707,0.002,4.06,0.003
		c0.004,0.219,0.009,0.437,0.013,0.656c-0.011,0.177-0.022,0.354-0.033,0.531C33.902,42.301,32.491,42.299,31.08,42.297z"/>
	<path class="st9" d="M35.332,41.116c-1.353-0.001-2.707-0.002-4.06-0.003c0.042-0.308,0.083-0.616,0.125-0.924
		c1.273,0,2.545,0,3.935,0C35.332,40.527,35.332,40.822,35.332,41.116z"/>
	<path class="st16" d="M13.287,43.73c-0.608,0.802-1.217,1.605-1.825,2.407c-1.859-0.003-3.717-0.005-5.576-0.008
		c0.002-0.881,0.003-1.761,0.005-2.642c2.245,0,4.49-0.006,6.735,0.011C12.846,43.5,13.066,43.649,13.287,43.73z"/>
	<path class="st17" d="M5.886,46.128c1.859,0.003,3.717,0.005,5.576,0.008c-0.32,0.542-0.641,1.084-0.961,1.626
		c0.039,0.039,0.078,0.078,0.117,0.116c0.496-0.407,0.992-0.813,1.487-1.22c0.044-0.04,0.088-0.08,0.132-0.12
		c0.066-0.054,0.132-0.107,0.199-0.161c0.06-0.053,0.12-0.105,0.181-0.158c0.09-0.075,0.18-0.149,0.271-0.224
		c0.048-0.039,0.095-0.078,0.143-0.117c0.08-0.063,0.16-0.126,0.24-0.189c0.046,0.044,0.097,0.131,0.137,0.126
		c0.826-0.102,1.407,0.225,1.753,0.979c0,0,0.007,0.04,0.007,0.04c0.044,0.114,0.088,0.228,0.132,0.342c0,0-0.008-0.012-0.008-0.012
		c0.05,0.134,0.099,0.268,0.149,0.402c0,0-0.01-0.012-0.01-0.012c-0.009,0.141-0.018,0.282-0.027,0.423
		c-3.171,0.001-6.342,0.002-9.513,0.003c0,0-0.045,0.012-0.045,0.012C5.857,47.371,5.872,46.75,5.886,46.128z"/>
	<path class="st3" d="M13.287,43.73c-0.22-0.081-0.44-0.23-0.662-0.231c-2.245-0.018-4.49-0.011-6.735-0.011
		c0.002-0.352,0.005-0.703,0.007-1.055c1.099,0,2.199-0.025,3.296,0.01c0.55,0.018,1.096,0.146,1.644,0.224
		c0.815,0.192,1.636,0.361,2.441,0.587C13.599,43.343,13.611,43.564,13.287,43.73z"/>
	<path class="st18" d="M5.889,47.981c3.171-0.001,6.342-0.002,9.513-0.003c0.089,0.044,0.177,0.088,0.266,0.132
		c6.512,0,13.024,0,19.536,0c0.006,0.616,0.012,1.232,0.018,1.848c-7.973,0-15.947-0.002-23.92,0.01
		c-0.279,0-0.558,0.14-0.836,0.215c-0.091-0.288-0.181-0.576-0.291-0.925c-0.061,0.304-0.106,0.533-0.152,0.762
		c0.023-0.491-0.221-0.614-0.689-0.6c-1.14,0.034-2.282,0.011-3.423,0.011C5.903,48.948,5.896,48.465,5.889,47.981z"/>
	<path class="st19" d="M10.466,50.183c0.279-0.075,0.558-0.215,0.836-0.215c7.973-0.012,15.947-0.01,23.92-0.01
		c0.035,0.051,0.071,0.103,0.106,0.154c-0.001,0.081-0.002,0.161-0.003,0.241c-0.033,0.44-0.066,0.881-0.1,1.321
		c-7.669,0-15.338-0.002-23.007,0.007c-0.411,0-0.821,0.094-1.232,0.144C10.813,51.278,10.639,50.731,10.466,50.183z"/>
	<path class="st17" d="M35.204,48.11c-6.512,0-13.024,0-19.536,0c0.003-0.077,0.006-0.153,0.009-0.23
		c0.13-0.54,0.26-1.079,0.389-1.619c0.367,0.044,0.733,0.126,1.1,0.126c6.012,0.008,12.024,0.006,18.036,0.006
		c0.016,0.266,0.033,0.532,0.049,0.798C35.236,47.498,35.22,47.804,35.204,48.11z"/>
	<path class="st16" d="M35.202,46.394c-6.012,0-12.024,0.002-18.036-0.006c-0.367,0-0.733-0.082-1.1-0.126
		c0.181-0.649,0.325-1.312,0.567-1.937c0.077-0.199,0.415-0.418,0.635-0.42c1.414-0.015,2.829,0.024,4.244,0.054
		c0.228,0.005,0.455,0.047,0.853,0.091c-0.21-0.184-0.284-0.249-0.358-0.313c0.217-0.083,0.433-0.236,0.65-0.237
		c2.512-0.017,5.024-0.01,7.536-0.01c0.042,0.384,0.084,0.768,0.125,1.152c0.032,0.005,0.063,0.011,0.095,0.016
		c0.147-0.433,0.294-0.867,0.442-1.3c1.456,0,2.912,0,4.368,0c0.007,0.398,0.015,0.795,0.022,1.193
		C35.231,45.164,35.216,45.779,35.202,46.394z"/>
	<path class="st20" d="M35.475,59.467c-9.639,0-19.278,0-28.916-0.001c-0.046-0.264-0.091-0.528-0.137-0.792
		c0.003-0.176,0.006-0.353,0.009-0.529c3.268,0,6.536,0,9.804,0.003c0.426,0,0.851,0.021,1.277,0.033
		c0.792-0.277,1.584-0.553,2.377-0.83c-0.018,0.508,0.359,0.397,0.645,0.397c4.976,0.002,9.951,0,14.927-0.001
		c0.008,0.308,0.017,0.616,0.026,0.924C35.482,58.936,35.479,59.201,35.475,59.467z"/>
	<path class="st3" d="M35.223,43.357c-1.456,0-2.912,0-4.368,0c0.075-0.353,0.15-0.706,0.225-1.059
		c1.411,0.002,2.822,0.004,4.232,0.006C35.282,42.655,35.253,43.006,35.223,43.357z"/>
	<path class="st19" d="M5.91,49.431c1.141,0,2.283,0.022,3.423-0.011c0.468-0.014,0.712,0.109,0.689,0.6
		c0.009,0.999,0.018,1.997,0.027,2.996c-0.065-0.324-0.19-0.65-0.18-0.971c0.014-0.473-0.113-0.673-0.622-0.643
		c-0.696,0.04-1.396-0.006-2.093,0.016C6.776,51.43,6.4,51.504,6.022,51.55l-0.056-0.009c0,0-0.057,0-0.057,0
		C5.91,50.838,5.91,50.135,5.91,49.431z"/>
	<path class="st21" d="M25.369,36.463c-0.254,0.053-0.509,0.152-0.763,0.152c-6.14,0.007-12.28,0.003-18.42,0.001
		c0.041-0.351,0.082-0.703,0.123-1.054c5.417,0.001,10.833,0.005,16.249-0.008c0.213-0.001,0.426-0.168,0.638-0.257
		C23.92,35.685,24.644,36.074,25.369,36.463z"/>
	<path class="st22" d="M6.022,51.55c0.378-0.046,0.755-0.121,1.134-0.133c0.697-0.022,1.397,0.024,2.093-0.016
		c0.509-0.029,0.636,0.171,0.622,0.643c-0.009,0.322,0.115,0.647,0.18,0.971c-0.55,0.255-1.099,0.51-1.649,0.765
		c-0.042,0.482,0.282,0.387,0.564,0.357l0.012,0.002c0.37,0.672,1.011,0.846,1.703,0.924l0.013,0.012
		c0.12,0.228,0.24,0.457,0.36,0.685c0,0-0.001,0-0.001,0c-0.003,0.134-0.006,0.269-0.009,0.403
		c-1.586,0.001-3.172,0.001-4.758,0.002c-0.051-0.444-0.103-0.887-0.154-1.331C6.095,53.741,6.058,52.646,6.022,51.55z"/>
	<path class="st8" d="M32.818,36.638c-0.196-0.008-0.406-0.066-0.586-0.017c-1.758,0.479-3.206-0.414-4.716-1.04
		c0.253-0.049,0.506-0.141,0.759-0.142c2.36-0.009,4.719-0.003,7.079-0.001c-0.004,0.306-0.009,0.612-0.013,0.918
		c-0.238,0-0.479-0.025-0.713,0.006C34.023,36.441,33.421,36.545,32.818,36.638z"/>
	<path class="st7" d="M32.818,36.638c0.603-0.094,1.205-0.197,1.809-0.276c0.234-0.031,0.475-0.005,0.713-0.006
		c0.003,0.351,0.007,0.701,0.01,1.052c-0.97-0.042-1.941-0.084-2.911-0.126C32.566,37.068,32.692,36.853,32.818,36.638z"/>
	<path class="st22" d="M10.986,51.826c0.411-0.05,0.821-0.143,1.232-0.144c7.669-0.009,15.338-0.007,23.007-0.007
		c0.001,0.219,0.002,0.438,0.003,0.657c0.045,0.704,0.089,1.409,0.134,2.113c-0.011,0.573-0.022,1.145-0.033,1.718
		c-4.166,0.001-8.332,0.008-12.498-0.012c-0.345-0.002-0.69-0.192-1.035-0.294c0.53-0.465,1.061-0.93,1.591-1.395
		c-0.04-0.047-0.079-0.094-0.119-0.141c-0.614,0.332-1.227,0.664-1.891,1.023c-0.035-0.439-0.06-0.755-0.096-1.213
		c-0.371,0.45-0.691,0.772-0.931,1.145c-0.38,0.59-0.925,0.817-1.585,0.891c-0.535,0.06-1.065,0.155-1.598,0.235
		c-0.615-0.008-1.262,0.205-1.808-0.267c-0.055-0.036-0.11-0.071-0.165-0.107l0.018,0.006c-0.704-0.433-1.405-0.87-2.112-1.296
		c-0.383-0.231-0.397-0.518-0.194-0.88c0.249-0.442,0.477-0.896,0.764-1.44c-0.585,0.075-1.086,0.056-1.524,0.212
		C11.318,52.927,11.135,52.433,10.986,51.826z"/>
	<path class="st23" d="M6.286,56.168c1.586-0.001,3.172-0.001,4.758-0.002c0.14,0.081,0.28,0.162,0.42,0.243l-0.002,0.001
		c0.096,0.123,0.193,0.246,0.289,0.369c0,0-0.012,0.004-0.012,0.004c0.053,0.054,0.106,0.107,0.159,0.161
		c0.031,0.044,0.063,0.088,0.094,0.131c-0.275,0.049-0.549,0.138-0.824,0.14c-1.617,0.013-3.233,0.006-4.85,0.005
		c-0.013-0.132-0.025-0.265-0.038-0.397C6.282,56.605,6.284,56.386,6.286,56.168z"/>
	<path class="st17" d="M6.318,57.221c1.617,0,3.233,0.008,4.85-0.005c0.275-0.002,0.549-0.091,0.824-0.14
		c0.157,0.127,0.315,0.254,0.494,0.399c-0.045-0.629-0.086-1.201-0.122-1.704c1.008,0.094,1.928,0.18,2.849,0.265
		c0,0-0.018-0.006-0.018-0.006c0.055,0.036,0.11,0.071,0.165,0.107c0.546,0.472,1.194,0.259,1.809,0.267
		c0.507,0.184,1.015,0.368,1.613,0.586c-0.452,0.346-0.838,0.633-1.21,0.936c-0.054,0.044-0.042,0.168-0.061,0.255
		c-0.426-0.011-0.851-0.032-1.277-0.033c-3.268-0.003-6.536-0.002-9.804-0.003C6.393,57.837,6.356,57.529,6.318,57.221z"/>
	<path class="st23" d="M21.797,55.858c0.345,0.103,0.69,0.293,1.035,0.294c4.166,0.02,8.332,0.012,12.498,0.012
		c0.041,0.138,0.082,0.275,0.123,0.413c0.002,0.39,0.004,0.78,0.006,1.17c-4.976,0.001-9.952,0.003-14.927,0.001
		c-0.286,0-0.662,0.111-0.645-0.397c0,0,0.003-0.001,0.003-0.001c0.574-0.127,1.149-0.253,1.723-0.38
		C21.802,56.62,21.169,56.135,21.797,55.858z"/>
	<path class="st12" d="M25.369,36.463c-0.724-0.389-1.449-0.777-2.173-1.166c-0.506-0.364-0.506-0.364-0.247-0.548
		c1.483,0.829,2.966,1.658,4.449,2.488c-0.026,0.069-0.051,0.137-0.077,0.206c-0.137,0.018-0.275,0.036-0.412,0.054
		C26.395,37.152,25.882,36.807,25.369,36.463z"/>
	<path class="st12" d="M17.74,41.625c2.097,0.005,4.193,0.008,6.29,0.016c0.382,0.001,0.765,0.023,1.147,0.035
		c0.046-0.056,0.091-0.111,0.137-0.167c0,0-0.013,0.004-0.013,0.004c0.178-0.05,0.357-0.1,0.535-0.15
		c0.257,0.136,0.514,0.387,0.772,0.388c1.144,0.003,2.288-0.067,3.432-0.11c0.044,0.352,0.088,0.704,0.132,1.055
		c-3.119,0-6.238-0.006-9.356,0.009c-0.22,0.001-0.439,0.152-0.658,0.234c-0.858-0.244-1.717-0.489-2.657-0.756
		C17.567,42.028,17.654,41.827,17.74,41.625z"/>
	<path class="st3" d="M20.158,42.94c0.219-0.081,0.438-0.233,0.658-0.234c3.119-0.015,6.238-0.01,9.356-0.009
		c0.007,0.264,0.014,0.528,0.022,0.792c-2.512,0-5.024-0.007-7.536,0.01c-0.217,0.001-0.434,0.155-0.65,0.237
		C21.391,43.471,20.774,43.205,20.158,42.94z"/>
	<path class="st9" d="M30.04,41.641c-1.144,0.043-2.288,0.113-3.432,0.11c-0.258-0.001-0.515-0.252-0.772-0.388
		c1.157-0.643,2.314-1.286,3.658-2.034C29.69,40.159,29.865,40.9,30.04,41.641z"/>
	<path class="st20" d="M15.158,46.795c-0.346-0.754-0.927-1.081-1.753-0.979c-0.04,0.005-0.091-0.082-0.137-0.126
		c0.387-0.308,0.773-0.615,1.265-1.007C14.762,45.457,14.96,46.126,15.158,46.795z"/>
	<path class="st20" d="M15.676,47.881c-0.003,0.077-0.006,0.153-0.009,0.23c-0.089-0.044-0.177-0.088-0.266-0.132
		c0.009-0.141,0.018-0.282,0.027-0.423C15.511,47.664,15.594,47.772,15.676,47.881z"/>
	<path class="st20" d="M15.438,47.567c-0.05-0.134-0.099-0.268-0.149-0.402C15.339,47.299,15.389,47.433,15.438,47.567z"/>
	<path class="st20" d="M15.297,47.177c-0.044-0.114-0.088-0.228-0.132-0.342C15.209,46.949,15.253,47.063,15.297,47.177z"/>
	<path class="st20" d="M12.237,46.539c-0.044,0.04-0.088,0.08-0.132,0.12C12.149,46.619,12.193,46.579,12.237,46.539z"/>
	<path class="st20" d="M13.029,45.879c-0.048,0.039-0.095,0.078-0.143,0.117C12.934,45.956,12.981,45.918,13.029,45.879z"/>
	<path class="st20" d="M12.616,46.219c-0.06,0.053-0.12,0.105-0.181,0.158C12.495,46.325,12.556,46.272,12.616,46.219z"/>
	<path class="st20" d="M8.978,54.14c0.568,0.308,1.135,0.616,1.703,0.924C9.989,54.986,9.348,54.812,8.978,54.14z"/>
	<path class="st20" d="M8.401,53.781c0.188,0.119,0.376,0.239,0.564,0.358C8.683,54.168,8.36,54.263,8.401,53.781z"/>
	<path class="st20" d="M10.693,55.077c0.12,0.228,0.24,0.457,0.36,0.685C10.934,55.534,10.813,55.305,10.693,55.077z"/>
	<path class="st20" d="M11.053,55.762c0.137,0.216,0.274,0.431,0.411,0.647c-0.14-0.081-0.28-0.162-0.42-0.243
		C11.047,56.031,11.05,55.897,11.053,55.762z"/>
	<path class="st20" d="M11.462,56.409c0.096,0.123,0.192,0.247,0.289,0.37C11.655,56.656,11.559,56.533,11.462,56.409z"/>
	<path class="st20" d="M11.739,56.783c0.053,0.053,0.106,0.107,0.159,0.161C11.845,56.89,11.792,56.836,11.739,56.783z"/>
	<path class="st20" d="M19.89,57.349c0.574-0.127,1.149-0.253,1.723-0.38C21.039,57.096,20.465,57.223,19.89,57.349z"/>
</g>
</svg>
