<?xml version="1.0" encoding="UTF-8" standalone="no"?>
<!-- Created with Inkscape (http://www.inkscape.org/) -->
<svg
   xmlns:svg="http://www.w3.org/2000/svg"
   xmlns="http://www.w3.org/2000/svg"
   version="1.0"
   width="630.19049"
   height="708.66144"
   id="svg2559">
  <defs
     id="defs2561" />
  <g
     transform="translate(-300.01938,17.348366)"
     id="layer1">
    <g
       transform="matrix(3.6699197,0,0,3.6699197,-801.02765,-1845.7504)"
       id="g3171">
      <path
         d="M 345.99763,498.21309 L 425.58878,498.21309 L 425.58878,626.56906 L 345.99763,626.56906 L 345.99763,498.21309 z"
         id="path179"
         style="fill:#009c52;fill-rule:nonzero;stroke:none" />
      <path
         d="M 381.13443,516.7176 L 389.79889,516.7176 L 389.79889,600.66275 L 402.12071,600.66275 L 402.12071,605.58277 L 381.13443,605.58277 L 381.13443,516.7176 z M 405.82162,554.20555 C 405.82162,555.5553 404.77666,556.55672 403.514,556.73088 C 402.42549,556.8615 402.12071,556.8615 401.20637,556.68734 L 401.20637,526.33994 C 402.12071,526.16578 402.42549,526.16578 403.514,526.2964 C 404.77666,526.47056 405.82162,527.47198 405.82162,528.86527 L 405.82162,554.20555 z M 394.58829,522.90028 L 406.91012,522.90028 C 409.34836,522.90028 412.48324,523.33568 412.48324,527.8203 L 412.48324,555.1199 C 412.48324,556.03424 412.26554,556.60026 411.87368,556.99212 C 411.48182,557.34044 410.87226,557.47106 410.6981,557.60168 C 410.56748,557.68876 410.43686,557.77584 410.43686,557.90646 C 410.43686,558.03708 410.56748,558.12416 410.6981,558.21124 C 410.87226,558.34186 411.48182,558.47248 411.87368,558.86434 C 412.26554,559.21266 412.48324,559.77868 412.48324,560.69302 L 412.48324,591.99829 C 412.48324,596.48291 409.34836,596.96185 406.91012,596.96185 L 394.58829,596.96185 L 394.58829,522.90028 z M 405.82162,590.99687 C 405.82162,592.34661 404.77666,593.34803 403.514,593.52219 C 402.42549,593.65281 402.12071,593.65281 401.20637,593.47865 L 401.20637,560.03992 C 402.12071,559.86576 402.42549,559.86576 403.514,559.99638 C 404.77666,560.17054 405.82162,561.17196 405.82162,562.56524 L 405.82162,590.99687 z M 369.9011,592.17245 C 369.9011,593.34803 368.89968,594.30591 367.7241,594.30591 C 366.54852,594.30591 365.59064,593.34803 365.59064,592.17245 L 365.59064,527.68968 C 365.59064,526.47056 366.54852,525.51268 367.7241,525.51268 C 368.89968,525.51268 369.9011,526.47056 369.9011,527.68968 L 369.9011,592.17245 z M 359.10318,591.86767 C 359.10318,594.65423 360.23522,596.00397 361.4108,596.70061 C 362.58638,597.39725 363.93612,597.70203 367.7241,597.70203 C 371.51208,597.70203 372.86182,597.39725 374.0374,596.70061 C 375.21298,596.00397 376.38857,594.65423 376.38857,591.86767 L 376.38857,527.99447 C 376.38857,525.16436 375.21298,523.81462 374.0374,523.11798 C 372.86182,522.42134 371.51208,522.11656 367.7241,522.11656 C 363.93612,522.11656 362.58638,522.42134 361.4108,523.11798 C 360.23522,523.81462 359.10318,525.16436 359.10318,527.99447 L 359.10318,591.86767"
         id="path181"
         style="fill:#ffffff;fill-rule:evenodd;stroke:none" />
      <path
         d="M 322.44249,670.58802 L 322.44249,690.9212 L 331.36819,690.9212 L 331.36819,688.43942 L 325.05489,688.43942 L 325.05489,670.58802 L 322.44249,670.58802"
         id="path183"
         style="fill:#000000;fill-opacity:1;fill-rule:nonzero;stroke:none" />
      <path
         d="M 338.85707,675.37742 C 336.76715,675.37742 335.02555,676.16114 333.76289,677.38026 L 334.93847,679.12186 C 335.72219,678.25106 336.81069,677.51088 338.46521,677.51088 C 339.72787,677.51088 340.42451,678.2946 340.42451,679.86204 L 340.42451,681.60364 L 338.33459,681.90842 C 335.50449,682.30028 333.15333,683.82418 333.15333,686.91552 C 333.15333,689.22314 334.45953,691.31307 336.59299,691.31307 C 338.20397,691.31307 339.33601,690.4858 340.42451,689.35376 L 340.64221,690.9212 L 342.81921,690.9212 L 342.81921,679.51372 C 342.81921,676.7707 341.33885,675.37742 338.85707,675.37742 z M 339.24893,683.65002 L 340.42451,683.47586 L 340.42451,687.0026 C 340.42451,687.91694 338.85707,689.04898 337.59441,689.09252 C 336.33175,689.13606 335.59157,688.17818 335.59157,686.5672 C 335.59157,684.6079 337.50733,683.86772 339.24893,683.65002"
         id="path185"
         style="fill:#000000;fill-opacity:1;fill-rule:evenodd;stroke:none" />
      <path
         d="M 349.08898,675.6822 L 346.95551,675.6822 L 346.95551,690.9212 L 349.30668,690.9212 L 349.30668,679.6008 C 349.30668,678.9477 350.65642,677.77212 352.44156,677.77212 C 354.13962,677.77212 354.4444,678.9477 354.4444,680.21036 L 354.4444,690.9212 L 356.8391,690.9212 L 356.8391,678.77354 C 356.8391,676.7707 355.48936,675.37742 353.53006,675.42096 C 351.70138,675.4645 350.69996,676.16114 349.30668,677.4238 L 349.08898,675.6822"
         id="path187"
         style="fill:#000000;fill-opacity:1;fill-rule:nonzero;stroke:none" />
      <path
         d="M 370.59774,669.3689 L 368.20304,669.3689 L 368.20304,677.16256 C 367.24516,675.8999 366.46144,675.4645 364.98108,675.4645 C 361.75912,675.4645 360.27876,679.6008 360.27876,683.3017 C 360.27876,687.04614 361.45434,691.18245 364.894,691.18245 C 366.33082,691.18245 367.33224,690.57288 368.29012,689.31022 L 368.46428,690.9212 L 370.59774,690.9212 L 370.59774,669.3689 z M 368.20304,686.52366 C 368.20304,687.69924 366.8533,689.13606 365.50356,689.09252 C 363.28302,689.04898 362.84762,685.87056 362.84762,683.3017 C 362.84762,680.73284 363.32656,677.46734 365.50356,677.46734 C 366.94038,677.46734 368.20304,678.86062 368.20304,679.86204 L 368.20304,686.52366"
         id="path189"
         style="fill:#000000;fill-opacity:1;fill-rule:evenodd;stroke:none" />
      <path
         d="M 379.65407,688.9619 C 377.56415,688.9619 376.56273,686.3495 376.56273,683.9548 L 384.83533,683.9548 C 385.09657,680.51514 384.13869,675.33388 379.65407,675.33388 C 376.30149,675.33388 374.08094,678.90416 374.08094,682.8663 C 374.08094,687.35092 375.90962,691.22599 379.69761,691.22599 C 381.83107,691.22599 383.39851,690.18102 384.61763,688.43942 L 383.13727,686.95906 C 382.26647,688.22172 381.09089,688.9619 379.65407,688.9619 z M 379.65407,677.38026 C 381.74399,677.38026 382.70187,679.73142 382.61479,682.08258 L 376.60627,682.08258 C 376.60627,679.68788 377.69477,677.38026 379.65407,677.38026"
         id="path191"
         style="fill:#000000;fill-opacity:1;fill-rule:evenodd;stroke:none" />
      <path
         d="M 392.45483,677.55442 C 393.36917,677.6415 393.97873,677.98982 394.71891,678.59938 L 395.67679,676.64008 C 394.84953,676.07406 394.02227,675.4645 392.19359,675.33388 C 389.79889,675.2468 387.66543,677.07548 387.66543,679.73142 C 387.66543,682.38736 389.40703,683.17108 391.06155,683.9548 C 392.71607,684.73852 394.32705,685.56578 393.58687,687.6557 C 393.10793,688.83128 392.01943,689.00544 390.88739,688.87482 C 389.84243,688.78774 389.01517,688.26526 388.31853,687.6557 L 387.23003,689.615 C 388.66685,690.79058 389.79889,691.18245 391.54049,691.22599 C 393.93519,691.26953 396.19927,689.48438 396.19927,686.65428 C 396.19927,683.43232 394.28351,682.56152 392.89023,681.86488 C 391.67111,681.25532 389.66827,680.73284 390.23429,678.81708 C 390.58261,677.55442 391.75819,677.46734 392.45483,677.55442"
         id="path193"
         style="fill:#000000;fill-opacity:1;fill-rule:nonzero;stroke:none" />
      <path
         d="M 401.94655,669.3689 L 399.59539,669.3689 L 399.59539,690.9212 L 401.68531,690.9212 L 401.94655,689.31022 C 402.90443,690.57288 403.9494,691.18245 405.42976,691.18245 C 408.82588,691.18245 409.91438,687.04614 409.91438,683.3017 C 409.91438,679.6008 408.69526,675.4645 405.42976,675.4645 C 403.9494,675.4645 402.94797,675.8999 401.94655,677.16256 L 401.94655,669.3689 z M 404.68958,689.04898 C 403.38338,689.04898 401.94655,687.74278 401.94655,686.5672 L 401.94655,679.68788 C 401.94655,678.73 403.42692,677.55442 404.73312,677.55442 C 406.91012,677.55442 407.38906,680.73284 407.38906,683.3017 C 407.38906,685.87056 406.91012,689.00544 404.68958,689.04898"
         id="path195"
         style="fill:#000000;fill-opacity:1;fill-rule:evenodd;stroke:none" />
      <path
         d="M 418.23052,675.37742 C 416.09706,675.37742 414.399,676.16114 413.13634,677.38026 L 414.31192,679.12186 C 415.0521,678.25106 416.1406,677.51088 417.79512,677.51088 C 419.05778,677.51088 419.79796,678.2946 419.79796,679.86204 L 419.79796,681.60364 L 417.6645,681.90842 C 414.8344,682.30028 412.48324,683.82418 412.48324,686.91552 C 412.48324,689.22314 413.83298,691.31307 415.96644,691.31307 C 417.53388,691.31307 418.70946,690.4858 419.79796,689.35376 L 420.01566,690.9212 L 422.19266,690.9212 L 422.19266,679.51372 C 422.19266,676.7707 420.7123,675.37742 418.23052,675.37742 z M 418.57884,683.65002 L 419.79796,683.47586 L 419.79796,687.0026 C 419.79796,687.91694 418.18698,689.04898 416.92432,689.09252 C 415.7052,689.13606 414.92148,688.17818 414.92148,686.5672 C 414.92148,684.6079 416.88078,683.86772 418.57884,683.65002"
         id="path197"
         style="fill:#000000;fill-opacity:1;fill-rule:evenodd;stroke:none" />
      <path
         d="M 428.46242,675.6822 L 426.28542,675.6822 L 426.28542,690.9212 L 428.68012,690.9212 L 428.68012,679.6008 C 428.68012,678.9477 429.98632,677.77212 431.77147,677.77212 C 433.46953,677.77212 433.77431,678.9477 433.77431,680.21036 L 433.77431,690.9212 L 436.16901,690.9212 L 436.16901,678.77354 C 436.16901,676.7707 434.81927,675.37742 432.85997,675.42096 C 431.03129,675.4645 430.0734,676.16114 428.68012,677.4238 L 428.46242,675.6822"
         id="path199"
         style="fill:#000000;fill-opacity:1;fill-rule:nonzero;stroke:none" />
      <path
         d="M 440.30531,669.3689 L 440.30531,690.9212 L 442.65647,690.9212 L 442.65647,684.52082 L 444.13683,682.90984 L 447.83773,690.9212 L 450.71137,690.9212 L 445.87843,680.86346 L 450.23243,675.6822 L 447.62003,675.6822 L 442.65647,681.73426 L 442.65647,669.3689 L 440.30531,669.3689"
         id="path201"
         style="fill:#000000;fill-opacity:1;fill-rule:nonzero;stroke:none" />
      <path
         d="M 306.94224,639.89231 C 302.02222,639.89231 300.01938,645.11711 300.01938,650.29837 C 300.01938,655.43609 302.02222,660.83505 306.81162,660.83505 C 311.73164,660.79151 313.56032,655.43609 313.56032,650.34191 C 313.56032,645.29127 311.60102,639.84877 306.94224,639.89231 z M 306.81162,642.15639 C 310.33836,642.15639 310.64314,646.68455 310.64314,650.29837 C 310.64314,653.91219 310.25128,658.35327 306.81162,658.35327 C 303.50258,658.35327 302.93656,653.91219 302.93656,650.29837 C 302.93656,646.64101 303.28488,642.15639 306.81162,642.15639"
         id="path203"
         style="fill:#000000;fill-opacity:1;fill-rule:evenodd;stroke:none" />
      <path
         d="M 319.87362,656.48105 L 319.87362,638.89089 L 317.47892,638.89089 L 317.47892,657.35185 C 317.47892,659.04991 318.39326,660.61735 319.91716,660.70443 C 320.8315,660.74797 321.61523,660.48673 322.31187,660.22549 L 322.31187,658.57097 C 321.74585,658.74513 321.13628,658.78867 320.48318,658.52743 C 319.9607,658.26619 319.87362,657.30831 319.87362,656.48105"
         id="path205"
         style="fill:#000000;fill-opacity:1;fill-rule:nonzero;stroke:none" />
      <path
         d="M 334.63369,638.89089 L 332.28253,638.89089 L 332.28253,646.68455 C 331.32465,645.42189 330.49739,644.98649 329.01703,644.98649 C 325.79507,644.98649 324.31471,649.12279 324.31471,652.82369 C 324.31471,656.56813 325.49029,660.70443 328.92995,660.70443 C 330.36677,660.70443 331.36819,660.09487 332.32607,658.83221 L 332.54377,660.44319 L 334.63369,660.44319 L 334.63369,638.89089 z M 332.28253,656.04565 C 332.28253,657.22123 330.88925,658.65805 329.53951,658.61451 C 327.36251,658.57097 326.88357,655.39255 326.88357,652.82369 C 326.88357,650.25483 327.36251,646.98933 329.53951,646.98933 C 330.97633,646.98933 332.28253,648.38261 332.28253,649.38403 L 332.28253,656.04565"
         id="path207"
         style="fill:#000000;fill-opacity:1;fill-rule:evenodd;stroke:none" />
      <path
         d="M 343.69001,658.48389 C 341.64363,658.48389 340.59867,655.87149 340.59867,653.47679 L 348.87128,653.47679 C 349.13252,650.08067 348.17463,644.85587 343.69001,644.85587 C 340.33743,644.85587 338.11689,648.42615 338.11689,652.38829 C 338.11689,656.87291 339.94557,660.74797 343.73355,660.74797 C 345.86701,660.74797 347.43445,659.70301 348.65357,657.96141 L 347.17321,656.48105 C 346.30241,657.74371 345.12683,658.48389 343.69001,658.48389 z M 343.69001,646.90225 C 345.77993,646.90225 346.73781,649.25341 346.65073,651.60457 L 340.64221,651.60457 C 340.64221,649.20987 341.77425,646.90225 343.69001,646.90225"
         id="path209"
         style="fill:#000000;fill-opacity:1;fill-rule:evenodd;stroke:none" />
      <path
         d="M 354.35732,645.20419 L 352.18032,645.20419 L 352.18032,660.44319 L 354.57502,660.44319 L 354.57502,649.12279 C 354.57502,648.46969 355.88122,647.33765 357.7099,647.33765 C 359.36442,647.33765 359.6692,648.46969 359.6692,649.73235 L 359.6692,660.44319 L 362.0639,660.44319 L 362.0639,648.29553 C 362.0639,646.29269 360.71416,644.89941 358.7984,644.94295 C 356.92618,644.98649 355.9683,645.68313 354.57502,646.94579 L 354.35732,645.20419"
         id="path211"
         style="fill:#000000;fill-opacity:1;fill-rule:nonzero;stroke:none" />
      <path
         d="M 368.55136,638.89089 L 366.2002,638.89089 L 366.2002,660.44319 L 368.29012,660.44319 L 368.50782,658.83221 C 369.4657,660.09487 370.5542,660.70443 371.99102,660.70443 C 375.38714,660.70443 376.51919,656.56813 376.51919,652.82369 C 376.51919,649.12279 375.25652,644.98649 371.99102,644.98649 C 370.51066,644.98649 369.50924,645.42189 368.55136,646.68455 L 368.55136,638.89089 z M 371.25084,658.57097 C 369.94464,658.57097 368.55136,657.26477 368.55136,656.08919 L 368.55136,649.20987 C 368.55136,648.25199 369.98818,647.07641 371.29438,647.07641 C 373.47138,647.07641 373.95032,650.25483 373.95032,652.82369 C 373.95032,655.39255 373.47138,658.52743 371.25084,658.57097"
         id="path213"
         style="fill:#000000;fill-opacity:1;fill-rule:evenodd;stroke:none" />
      <path
         d="M 387.66543,660.44319 L 389.84243,660.44319 L 389.84243,645.20419 L 387.44773,645.20419 L 387.44773,656.35043 C 387.44773,656.95999 386.05445,658.35327 384.26931,658.35327 C 382.61479,658.35327 382.31001,657.13415 382.31001,655.78441 L 382.31001,645.20419 L 379.95885,645.20419 L 379.95885,657.35185 C 379.95885,659.35469 381.39567,660.79151 383.35497,660.74797 C 385.18365,660.70443 386.05445,660.00779 387.44773,658.70159 L 387.66543,660.44319"
         id="path215"
         style="fill:#000000;fill-opacity:1;fill-rule:nonzero;stroke:none" />
      <path
         d="M 396.02511,645.20419 L 393.93519,645.20419 L 393.93519,660.44319 L 396.28635,660.44319 L 396.28635,649.86297 C 396.28635,649.07925 396.93945,648.51323 397.54901,648.20845 C 398.41981,647.77305 399.07291,647.77305 400.03079,647.86013 L 400.03079,644.85587 C 399.20353,644.85587 398.63751,645.03003 397.94087,645.46543 C 397.20069,645.90083 396.72175,646.37977 396.28635,647.25057 L 396.02511,645.20419"
         id="path217"
         style="fill:#000000;fill-opacity:1;fill-rule:nonzero;stroke:none" />
      <path
         d="M 410.045,645.20419 L 409.78376,646.68455 C 408.91296,645.55251 408.04216,644.98649 406.69242,644.89941 C 403.60108,644.63817 401.81593,648.73093 401.81593,652.38829 C 401.81593,655.91503 403.33984,659.83363 406.38764,659.83363 C 407.82446,659.83363 408.7388,659.39823 409.74022,658.22265 L 409.74022,660.35611 C 409.74022,661.96709 408.65172,663.14267 407.34552,663.40391 C 405.4733,663.75223 404.29772,663.05559 402.99151,661.79293 L 401.85947,663.70869 C 403.03505,664.75366 403.9494,665.58092 406.47472,665.62446 C 409.30482,665.71154 412.13492,663.62161 412.13492,660.31257 L 412.13492,645.20419 L 410.045,645.20419 z M 407.17136,647.11995 C 408.39048,647.11995 409.26128,647.90367 409.74022,649.20987 L 409.74022,655.91503 C 408.82588,657.00353 408.12924,657.74371 406.86658,657.61309 C 404.95082,657.39539 404.42834,655.26193 404.42834,652.51891 C 404.42834,649.68881 405.08144,647.11995 407.17136,647.11995"
         id="path219"
         style="fill:#000000;fill-opacity:1;fill-rule:evenodd;stroke:none" />
      <path
         d="M 416.66308,645.20419 L 419.05778,645.20419 L 419.05778,660.44319 L 416.66308,660.44319 L 416.66308,645.20419 z"
         id="path221"
         style="fill:#000000;fill-opacity:1;fill-rule:nonzero;stroke:none" />
      <path
         d="M 427.8964,647.07641 C 428.85428,647.16349 429.46384,647.51181 430.16048,648.12137 L 431.16191,646.20561 C 430.33464,645.59605 429.50738,644.98649 427.6787,644.85587 C 425.284,644.76879 423.107,646.59747 423.107,649.25341 C 423.107,651.90935 424.89214,652.69307 426.54666,653.47679 C 428.20118,654.26051 429.76862,655.08777 429.02844,657.17769 C 428.59304,658.35327 427.50454,658.52743 426.32896,658.39681 C 425.284,658.30973 424.45674,657.78725 423.7601,657.17769 L 422.71514,659.13699 C 424.15196,660.31257 425.24046,660.70443 427.0256,660.74797 C 429.37676,660.79151 431.68439,659.00637 431.68439,656.17627 C 431.68439,652.95431 429.72508,652.08351 428.37534,651.38687 C 427.15622,650.77731 425.15338,650.25483 425.67586,648.33907 C 426.06772,647.11995 427.19976,646.98933 427.8964,647.07641"
         id="path223"
         style="fill:#000000;fill-opacity:1;fill-rule:nonzero;stroke:none" />
      <path
         d="M 440.21823,646.85871 C 441.87275,646.81517 442.65647,648.42615 442.91771,649.20987 L 444.70285,648.07783 C 444.31099,647.25057 443.04833,644.85587 440.13115,644.81233 C 436.25609,644.76879 434.42741,648.77447 434.42741,652.86723 C 434.42741,656.87291 436.47379,660.83505 439.86991,660.83505 C 442.13399,660.83505 443.78851,659.61593 444.78993,657.22123 L 443.04833,656.08919 C 442.39523,657.48247 441.52443,658.57097 440.08761,658.57097 C 437.86707,658.65805 437.12689,655.47963 437.08335,652.86723 C 437.08335,650.12421 437.73645,646.90225 440.21823,646.85871"
         id="path225"
         style="fill:#000000;fill-opacity:1;fill-rule:nonzero;stroke:none" />
      <path
         d="M 449.97119,649.64527 C 449.97119,648.38261 451.49509,647.11995 453.32377,647.11995 C 454.67351,647.11995 455.06537,648.33907 455.06537,649.64527 L 455.06537,660.44319 L 457.46007,660.44319 L 457.46007,648.42615 C 457.46007,646.51039 456.28449,644.94295 454.41227,644.89941 C 452.54005,644.85587 450.92907,645.98791 449.97119,646.81517 L 449.97119,638.89089 L 447.62003,638.89089 L 447.62003,660.44319 L 449.97119,660.44319 L 449.97119,649.64527"
         id="path227"
         style="fill:#000000;fill-opacity:1;fill-rule:nonzero;stroke:none" />
      <path
         d="M 466.5164,658.48389 C 464.47002,658.48389 463.4686,655.87149 463.42506,653.47679 L 471.69766,653.47679 C 471.9589,650.08067 471.00102,644.85587 466.5164,644.85587 C 463.16382,644.85587 460.94328,648.42615 460.94328,652.38829 C 460.94328,656.87291 462.77196,660.74797 466.55994,660.74797 C 468.6934,660.74797 470.26084,659.70301 471.47996,657.96141 L 470.04314,656.48105 C 469.1288,657.74371 467.99676,658.48389 466.5164,658.48389 z M 466.5164,646.90225 C 468.60632,646.90225 469.5642,649.25341 469.47712,651.60457 L 463.4686,651.60457 C 463.4686,649.20987 464.60064,646.90225 466.5164,646.90225"
         id="path229"
         style="fill:#000000;fill-opacity:1;fill-rule:evenodd;stroke:none" />
      <path
         d="M 418.01282,639.58753 C 417.27264,639.58753 416.61954,640.24063 416.61954,641.11143 C 416.61954,641.89515 417.27264,642.59179 418.01282,642.59179 C 418.753,642.59179 419.36256,641.89515 419.36256,641.11143 C 419.36256,640.28417 418.753,639.63107 418.01282,639.58753"
         id="path231"
         style="fill:#000000;fill-opacity:1;fill-rule:nonzero;stroke:none" />
    </g>
  </g>
</svg>
