<?xml version="1.0" encoding="iso-8859-1"?>
<!-- Generator: Adobe Illustrator 19.2.0, SVG Export Plug-In . SVG Version: 6.00 Build 0)  -->
<svg version="1.2" baseProfile="tiny" id="Layer_10"
	 xmlns="http://www.w3.org/2000/svg" xmlns:xlink="http://www.w3.org/1999/xlink" x="0px" y="0px" viewBox="0 0 300 74.432"
	 xml:space="preserve">
<g>
	<g>
		<linearGradient id="SVGID_1_" gradientUnits="userSpaceOnUse" x1="41.4033" y1="57.869" x2="83.3388" y2="15.9334">
			<stop  offset="0" style="stop-color:#E94E1B"/>
			<stop  offset="1" style="stop-color:#F39200"/>
		</linearGradient>
		<path fill="url(#SVGID_1_)" d="M99.248,37.216c0,2.748-1.055,5.384-2.984,7.359L69.418,71.4c-1.992,1.944-4.596,3.031-7.368,3.031
			c-2.773,0-5.351-1.087-7.359-3.031l-3.919-3.983l3.608-3.607l1.164-1.166l1.546-1.555l3.31,3.235
			c0.423,0.502,1.031,0.734,1.65,0.734c0.625,0,1.226-0.232,1.649-0.734l25.495-25.458c0.494-0.448,0.706-1.034,0.706-1.65
			c0-0.625-0.212-1.241-0.706-1.656L63.707,10.068C63.275,9.6,62.675,9.365,62.05,9.365c-0.619,0-1.227,0.235-1.65,0.703
			l-3.31,3.267l-1.109,1.115l-3.66,3.648l-1.115,1.126l-1.59,1.585l-1.109,1.115L34.926,35.56c-0.906,0.925-0.906,2.381,0,3.306
			l13.581,13.603l-1.601,1.62l-1.112,1.081l-3.652,3.672L27.848,44.575c-1.942-1.992-2.974-4.611-2.974-7.359
			c0-2.788,1.031-5.376,2.989-7.368l15.434-15.399l1.546-1.569l1.164-1.132l3.608-3.625l1.156-1.148l3.919-3.961
			C56.699,1.047,59.277,0,62.05,0c2.772,0,5.376,1.047,7.368,3.014l26.847,26.851C98.193,31.823,99.248,34.428,99.248,37.216z"/>
		<linearGradient id="SVGID_2_" gradientUnits="userSpaceOnUse" x1="16.2836" y1="58.1397" x2="58.982" y2="15.4414">
			<stop  offset="0" style="stop-color:#2D2E83"/>
			<stop  offset="1" style="stop-color:#1D71B8"/>
		</linearGradient>
		<path fill="url(#SVGID_2_)" d="M74.41,37.216c0,2.748-1.083,5.384-3.02,7.359L55.973,59.943l-1.593,1.602l-1.112,1.098
			l-3.651,3.673l-1.118,1.101L44.586,71.4c-1.999,1.944-4.626,3.031-7.376,3.031c-2.8,0-5.377-1.087-7.365-3.031L3.001,44.575
			C1.031,42.583,0,39.964,0,37.216c0-2.788,1.031-5.376,3.019-7.368L29.846,3.014C31.833,1.047,34.411,0,37.21,0
			c2.75,0,5.377,1.047,7.376,3.014l3.92,3.961l-3.646,3.608l-1.122,1.165l-1.597,1.586l-3.282-3.267
			C38.401,9.6,37.83,9.365,37.21,9.365c-0.614,0-1.253,0.235-1.645,0.703L10.051,35.56c-0.898,0.925-0.898,2.381,0,3.306
			l25.515,25.458c0.391,0.502,1.031,0.734,1.645,0.734c0.619,0,1.191-0.232,1.65-0.734l3.282-3.227l1.156-1.154l3.608-3.608
			l1.164-1.165l1.546-1.547l1.156-1.154l13.574-13.603c0.476-0.448,0.734-1.034,0.734-1.65c0-0.625-0.258-1.241-0.734-1.656
			L50.772,21.923l1.546-1.555l1.163-1.146l3.608-3.63L71.39,29.865C73.327,31.823,74.41,34.428,74.41,37.216z"/>
		<g>
			<linearGradient id="SVGID_3_" gradientUnits="userSpaceOnUse" x1="69.0383" y1="19.3559" x2="56.4071" y2="51.6358">
				<stop  offset="0" style="stop-color:#FFFFFF;stop-opacity:0"/>
				<stop  offset="1" style="stop-color:#FFFFFF;stop-opacity:0.3"/>
			</linearGradient>
			<path fill="url(#SVGID_3_)" d="M99.248,37.216c0,2.748-1.055,5.384-2.984,7.359l-3.483,3.378
				c-3.99,0.516-8.499,0.709-13.235,0.516l9.648-9.603c0.494-0.448,0.706-1.034,0.706-1.65c0-0.625-0.212-1.241-0.706-1.656
				L63.707,10.068C63.275,9.6,62.675,9.365,62.05,9.365c-0.619,0-1.227,0.235-1.65,0.703l-3.31,3.267l-1.109,1.115l-3.66,3.648
				l-1.115,1.126l-1.59,1.585l-1.109,1.115L34.926,35.56c-0.906,0.925-0.906,2.381,0,3.306l0.516,0.537
				c-3.608-1.367-7.092-2.837-10.375-4.4c0.448-1.941,1.354-3.704,2.797-5.155l15.434-15.399l1.546-1.569l1.164-1.132l3.608-3.625
				l1.156-1.148l3.919-3.961C56.699,1.047,59.277,0,62.05,0c2.772,0,5.376,1.047,7.368,3.014l26.847,26.851
				C98.193,31.823,99.248,34.428,99.248,37.216z"/>
			<linearGradient id="SVGID_4_" gradientUnits="userSpaceOnUse" x1="69.0383" y1="19.3559" x2="56.4071" y2="51.6358">
				<stop  offset="0" style="stop-color:#FFFFFF;stop-opacity:0"/>
				<stop  offset="1" style="stop-color:#FFFFFF;stop-opacity:0.3"/>
			</linearGradient>
			<path fill="url(#SVGID_4_)" d="M99.248,37.216c0,2.748-1.055,5.384-2.984,7.359l-3.483,3.378
				c-3.99,0.516-8.499,0.709-13.235,0.516l9.648-9.603c0.494-0.448,0.706-1.034,0.706-1.65c0-0.625-0.212-1.241-0.706-1.656
				L63.707,10.068C63.275,9.6,62.675,9.365,62.05,9.365c-0.619,0-1.227,0.235-1.65,0.703l-3.31,3.267l-1.109,1.115l-3.66,3.648
				l-1.115,1.126l-1.59,1.585l-1.109,1.115L34.926,35.56c-0.906,0.925-0.906,2.381,0,3.306l0.516,0.537
				c-3.608-1.367-7.092-2.837-10.375-4.4c0.448-1.941,1.354-3.704,2.797-5.155l15.434-15.399l1.546-1.569l1.164-1.132l3.608-3.625
				l1.156-1.148l3.919-3.961C56.699,1.047,59.277,0,62.05,0c2.772,0,5.376,1.047,7.368,3.014l26.847,26.851
				C98.193,31.823,99.248,34.428,99.248,37.216z"/>
			<linearGradient id="SVGID_5_" gradientUnits="userSpaceOnUse" x1="67.2392" y1="18.6757" x2="54.6272" y2="50.9064">
				<stop  offset="0" style="stop-color:#FFFFFF;stop-opacity:0"/>
				<stop  offset="1" style="stop-color:#FFFFFF;stop-opacity:0.3"/>
			</linearGradient>
			<path fill="url(#SVGID_5_)" d="M74.41,37.216c0,2.748-1.083,5.384-3.02,7.359l-3.093,2.997c-3.475-0.392-7.154-1.03-10.824-1.804
				l6.873-6.902c0.476-0.448,0.734-1.034,0.734-1.65c0-0.625-0.258-1.241-0.734-1.656L50.772,21.923l1.546-1.555l1.163-1.146
				l3.608-3.63L71.39,29.865C73.327,31.823,74.41,34.428,74.41,37.216z"/>
			<linearGradient id="SVGID_6_" gradientUnits="userSpaceOnUse" x1="67.2392" y1="18.6757" x2="54.6272" y2="50.9064">
				<stop  offset="0" style="stop-color:#FFFFFF;stop-opacity:0"/>
				<stop  offset="1" style="stop-color:#FFFFFF;stop-opacity:0.3"/>
			</linearGradient>
			<path fill="url(#SVGID_6_)" d="M74.41,37.216c0,2.748-1.083,5.384-3.02,7.359l-3.093,2.997c-3.475-0.392-7.154-1.03-10.824-1.804
				l6.873-6.902c0.476-0.448,0.734-1.034,0.734-1.65c0-0.625-0.258-1.241-0.734-1.656L50.772,21.923l1.546-1.555l1.163-1.146
				l3.608-3.63L71.39,29.865C73.327,31.823,74.41,34.428,74.41,37.216z"/>
			<linearGradient id="SVGID_7_" gradientUnits="userSpaceOnUse" x1="32.5225" y1="5.0617" x2="19.8998" y2="37.3196">
				<stop  offset="0" style="stop-color:#FFFFFF;stop-opacity:0"/>
				<stop  offset="1" style="stop-color:#FFFFFF;stop-opacity:0.3"/>
			</linearGradient>
			<path fill="url(#SVGID_7_)" d="M48.507,6.975l-3.646,3.608l-1.122,1.165l-1.597,1.586l-3.282-3.267
				C38.401,9.6,37.83,9.365,37.21,9.365c-0.614,0-1.253,0.235-1.645,0.703L15.619,29.913c-2.733-1.669-5.285-3.35-7.556-5.107
				L29.846,3.014C31.833,1.047,34.411,0,37.21,0c2.75,0,5.377,1.047,7.376,3.014L48.507,6.975z"/>
			<linearGradient id="SVGID_8_" gradientUnits="userSpaceOnUse" x1="32.5225" y1="5.0617" x2="19.8998" y2="37.3196">
				<stop  offset="0" style="stop-color:#FFFFFF;stop-opacity:0"/>
				<stop  offset="1" style="stop-color:#FFFFFF;stop-opacity:0.3"/>
			</linearGradient>
			<path fill="url(#SVGID_8_)" d="M48.507,6.975l-3.646,3.608l-1.122,1.165l-1.597,1.586l-3.282-3.267
				C38.401,9.6,37.83,9.365,37.21,9.365c-0.614,0-1.253,0.235-1.645,0.703L15.619,29.913c-2.733-1.669-5.285-3.35-7.556-5.107
				L29.846,3.014C31.833,1.047,34.411,0,37.21,0c2.75,0,5.377,1.047,7.376,3.014L48.507,6.975z"/>
		</g>
	</g>
	<g>
		<path fill="#253982" d="M153.48,45.359c-0.258,0.6-0.516,1.183-0.842,1.821c-0.705,1.471-1.736,2.835-2.988,4.123
			c-1.36,1.423-2.999,2.454-4.809,3.228c-1.857,0.762-3.733,1.154-5.67,1.246c-1.967,0.042-3.866-0.216-5.746-0.82
			c-1.853-0.594-3.533-1.592-4.946-2.88l25.772-25.772c-0.225-0.129-0.391-0.336-0.516-0.516c-0.133-0.196-0.335-0.381-0.515-0.529
			c-1.237-1.275-2.71-2.429-4.381-3.404c-1.677-1.014-3.594-1.779-5.746-2.292c-1.346-0.342-2.893-0.6-4.563-0.611
			c-1.647-0.123-3.351,0.053-5.03,0.393c-1.804,0.392-3.533,1.031-5.279,1.938c-1.798,0.891-3.437,2.062-4.992,3.608
			c-2.013,2.146-3.513,4.505-4.488,7.082c-0.962,2.577-1.446,5.154-1.416,7.866c0.028,2.7,0.587,5.277,1.583,7.854
			c1.066,2.541,2.542,4.773,4.541,6.833c2.084,2.064,4.449,3.61,7.031,4.642c2.597,0.997,5.215,1.471,7.917,1.412
			c2.64,0,5.287-0.516,7.793-1.547c2.542-1.03,4.835-2.521,6.772-4.504c1.633-1.586,2.959-3.379,3.866-5.354
			c0.382-0.709,0.656-1.477,0.933-2.166L153.48,45.359z M122.419,42.934c-0.454-1.939-0.516-3.866-0.314-5.67
			c0.235-1.849,0.763-3.558,1.603-5.155c0.773-1.546,1.745-2.849,2.835-4c1.164-1.112,2.479-2.062,4.035-2.849
			c1.555-0.804,3.251-1.319,5.118-1.558c1.804-0.235,3.733-0.137,5.674,0.283c2.058,0.471,3.986,1.387,5.923,2.712l-22.076,22.139
			C123.8,46.923,122.869,44.995,122.419,42.934z"/>
		<path fill="#253982" d="M166.653,19.738h5.125v7.009h0.128c1.177-1.647,2.45-3.02,3.783-4.051
			c1.369-1.031,2.705-1.869,4.079-2.443c1.414-0.602,2.778-1.031,4.123-1.207c1.321-0.216,2.578-0.339,3.608-0.339
			c3.258,0,6.219,0.594,8.887,1.768c2.661,1.176,4.897,2.737,6.758,4.675c1.88,1.927,3.293,4.166,4.324,6.701
			c1.031,2.449,1.546,5.087,1.546,7.732c0,2.922-0.515,5.645-1.636,8.191c-1.066,2.549-2.549,4.801-4.417,6.684
			c-1.937,1.877-4.208,3.424-6.834,4.547c-2.626,1.067-5.527,1.686-8.629,1.686c-1.031,0-2.195-0.109-3.541-0.367
			c-1.356-0.202-2.726-0.639-4.136-1.162c-1.411-0.642-2.765-1.415-4.178-2.449c-1.347-1.059-2.577-2.439-3.738-3.986h-0.128v20.999
			h-5.125V19.738z M203.86,39.841c0-2.577-0.382-4.824-1.289-6.863c-0.898-2.037-2.062-3.799-3.608-5.222
			c-1.503-1.401-3.217-2.483-5.206-3.255c-1.997-0.774-4.072-1.163-6.258-1.163c-2.307,0-4.381,0.389-6.401,1.297
			c-1.979,0.896-3.65,2.132-5.072,3.608c-1.413,1.504-2.532,3.216-3.35,5.244c-0.773,1.972-1.156,4.079-1.156,6.272
			c0,2.353,0.382,4.51,1.289,6.524c0.801,1.983,1.958,3.726,3.475,5.154c1.422,1.412,3.108,2.577,5.068,3.351
			c1.958,0.888,3.998,1.288,6.147,1.288c2.444,0,4.651-0.423,6.701-1.288c2.024-0.858,3.733-2.015,5.163-3.485
			c1.448-1.432,2.569-3.177,3.342-5.154C203.478,44.208,203.86,42.073,203.86,39.841z"/>
		<path fill="#253982" d="M257.234,59.686h-5.096v-6.959h-0.157c-1.083,1.656-2.371,2.959-3.723,3.989
			c-1.358,1.031-2.772,1.805-4.193,2.446c-1.412,0.523-2.765,0.96-4.124,1.162c-1.289,0.258-2.502,0.367-3.521,0.367
			c-3.18,0-6.073-0.619-8.716-1.686c-2.612-1.123-4.897-2.67-6.803-4.547c-1.882-1.883-3.381-4.135-4.412-6.684
			c-1.031-2.547-1.546-5.269-1.546-8.191c0-2.645,0.516-5.283,1.546-7.732c1.031-2.535,2.453-4.774,4.257-6.701
			c1.878-1.938,4.123-3.499,6.825-4.675c2.6-1.174,5.558-1.768,8.85-1.768c1.077,0,2.275,0.124,3.654,0.339
			c1.363,0.176,2.736,0.605,4.147,1.207c1.411,0.574,2.811,1.412,4.136,2.443c1.377,1.031,2.541,2.404,3.624,4.051h0.157v-7.009
			h5.096V59.686z M220.038,39.841c0,2.232,0.391,4.367,1.175,6.309c0.783,1.978,1.861,3.723,3.313,5.154
			c1.448,1.471,3.178,2.628,5.24,3.485c1.971,0.865,4.249,1.288,6.655,1.288c2.118,0,4.17-0.4,6.115-1.288
			c1.958-0.774,3.684-1.938,5.138-3.351c1.448-1.429,2.604-3.171,3.483-5.154c0.843-2.015,1.289-4.172,1.289-6.524
			c0-2.194-0.391-4.3-1.229-6.272c-0.821-2.028-1.922-3.74-3.37-5.244c-1.45-1.477-3.133-2.712-5.07-3.608
			c-1.929-0.908-4.082-1.297-6.357-1.297c-2.193,0-4.29,0.389-6.272,1.163c-1.929,0.773-3.723,1.854-5.211,3.255
			c-1.49,1.423-2.706,3.185-3.552,5.222C220.488,35.017,220.038,37.264,220.038,39.841z"/>
		<path fill="#253982" d="M278.476,58.396l-15.596-38.658h5.412l12.762,31.829l13.538-31.829H300l-23.167,53.987h-5.316
			L278.476,58.396z"/>
	</g>
</g>
</svg>
