<?xml version="1.0" encoding="UTF-8" standalone="no"?>
<!DOCTYPE svg PUBLIC "-//W3C//DTD SVG 1.0//EN" "http://www.w3.org/TR/2001/REC-SVG-20010904/DTD/ svg10.dtd">
<!-- Created with Inkscape (http://www.inkscape.org/) -->
<svg
   xmlns:svg="http://www.w3.org/2000/svg"
   xmlns="http://www.w3.org/2000/svg"
   version="1.0"
   width="925"
   height="241.44"
   id="svg2"
   xml:space="preserve"><defs
     id="defs5" /><g
     transform="matrix(0,1.1703917,1.1703917,0,-12.524051,-270.57704)"
     id="g13"
     style="fill:#ff0000" /><path
     d="M 247.64007,9.349075 L 247.64007,124.92525 L 277.51432,124.92525 C 312.59681,124.92525 342.5003,112.91586 342.50031,67.137162 C 342.50031,21.363137 312.59682,9.3490625 277.51432,9.349075 L 247.64007,9.349075 z M 356.22316,9.349075 L 356.22316,24.476387 L 410.03191,24.476387 L 354.08719,107.83754 L 354.08719,124.92525 L 430.7186,124.92525 L 430.7186,109.79794 L 373.07679,109.79794 L 429.54821,26.436787 L 429.54821,9.349075 L 356.22316,9.349075 z M 481.5136,9.349075 L 481.5136,124.92525 L 520.16579,124.92525 C 534.78866,124.92525 559.1691,120.50117 559.16908,92.242063 C 559.16908,78.66435 550.17932,66.731025 531.63561,64.884162 C 548.9972,61.8072 555.68716,51.270175 555.68716,38.11145 C 555.68716,13.777837 535.10232,9.3490625 520.16579,9.349075 L 481.5136,9.349075 z M 613.7386,9.349075 L 570.05374,124.92525 L 590.27225,124.92525 L 600.36686,97.5966 L 649.69889,97.5966 L 659.64722,124.92525 L 681.47502,124.92525 L 637.4683,9.349075 L 613.7386,9.349075 z M 698.85534,9.349075 L 698.85534,124.92525 L 717.52309,124.92525 L 717.87421,30.065 L 764.92396,124.92525 L 790.40922,124.92525 L 790.40922,9.349075 L 771.74149,9.349075 L 771.39036,104.23857 L 724.48692,9.349075 L 698.85534,9.349075 z M 821.36609,9.349075 L 821.36609,124.92525 L 841.02866,124.92525 L 841.3798,66.113062 L 885.56209,124.92525 L 911.28144,124.92525 L 863.14907,63.6845 L 909.11622,9.349075 L 885.35726,9.349075 L 840.99942,63.772287 L 840.99942,9.349075 L 821.36609,9.349075 z M 267.30264,24.476387 L 281.99105,24.476387 C 302.26459,24.476387 321.87216,40.082387 321.87215,67.137162 C 321.87215,94.196612 302.26458,109.79795 281.99105,109.79794 L 267.30264,109.79794 L 267.30264,24.476387 z M 501.17618,24.476387 L 511.88526,24.476387 C 522.06766,24.476387 536.0246,25.344825 536.0246,41.183725 C 536.0246,55.44495 521.83711,57.510675 512.38269,57.510688 L 501.17618,57.510688 L 501.17618,24.476387 z M 625.29623,25.968637 L 644.5199,82.469288 L 605.69216,82.469288 L 625.29623,25.968637 z M 501.17618,71.613912 L 513.87492,71.613912 C 525.37286,71.613912 539.50651,74.005025 539.50651,91.393525 C 539.50651,107.1353 524.41782,109.79795 513.87492,109.79794 L 501.17618,109.79794 L 501.17618,71.613912 z"
     id="path37"
     style="fill:#0072b9;fill-opacity:1;fill-rule:nonzero;stroke:none" /><path
     d="M 185.25459,125.99256 L 13.65059,125.99256 L 13.65059,7.6871125 L 185.25459,7.6871125"
     id="path2468"
     style="fill:#ffffff;fill-opacity:1;fill-rule:nonzero;stroke:none" /><path
     d="M 13.649498,106.90122 L 13.649498,125.89082 L 78.869578,125.89082 L 74.685426,106.90122 L 13.649498,106.90122 z M 119.97959,106.90122 L 116.43915,125.89082 L 185.25818,125.89082 L 185.25818,106.90122 L 119.97959,106.90122 z"
     id="path2460"
     style="fill:#f26d35;fill-opacity:1;fill-rule:nonzero;stroke:none" /><path
     d="M 185.25459,95.5215 L 122.08153,95.5215 C 125.10114,79.326787 128.23662,62.586675 128.94822,59.13285 C 129.3403,57.239163 130.45451,56.845912 131.00694,56.910275 C 131.42594,56.958262 132.29554,57.38195 131.98773,59.260425 C 131.41541,62.7833 130.69913,67.755125 130.61954,68.43395 C 129.6212,77.0141 147.45445,78.080325 149.61968,69.352712 C 154.1725,50.96235 158.23142,32.115525 158.23142,32.115525 C 158.23142,32.115525 143.73495,32.052325 138.28092,32.052325 C 112.41995,32.052325 109.70347,36.874337 105.50176,56.039513 L 97.765473,91.324475 L 84.575159,32.17405 L 38.063791,32.126062 L 43.85723,57.191175 L 63.78666,57.222775 L 72.191244,95.5215 L 13.65059,95.5215 L 13.65059,7.6871125 L 185.25459,7.6871125"
     id="path51"
     style="fill:#0072b9;fill-opacity:1;fill-rule:nonzero;stroke:none" /><text
     x="13.650709"
     y="218.12015"
     id="text53"
     style="font-size:14.04470062px;fill:#606163;fill-opacity:1"><tspan
       x="13.650709 62.825825 113.41232 155.67914 204.85428 274.67996 344.50568 393.68073 444.26721 475.61453 527.53809 576.71326 627.29968 665.48102 696.82831 766.65399 815.8291 866.41559 897.16858"
       y="218.12015"
       id="tspan55"
       style="font-size:74.28265381px;font-variant:normal;font-weight:bold;writing-mode:lr-tb;fill:#606163;fill-opacity:1;fill-rule:nonzero;stroke:none;font-family:FrutigerLTStd;-inkscape-font-specification:FrutigerLTStd-BoldCn">Zusammen geht mehr.</tspan></text>
</svg>