<?xml version="1.0" encoding="UTF-8" standalone="no"?>
<svg
   xmlns:svg="http://www.w3.org/2000/svg"
   xmlns="http://www.w3.org/2000/svg"
   xmlns:xlink="http://www.w3.org/1999/xlink"
   version="1.0"
   width="558"
   height="44"
   viewBox="0 0 3800 300">
    <defs>
        <filter id="filter-bg-shadow">
            <feGaussianBlur stdDeviation="2.5365493"/>
        </filter>
        <linearGradient id="lg1">
            <stop style="stop-color:#ffebe3;stop-opacity:1" offset="0" />
            <stop style="stop-color:#f39672;stop-opacity:1" offset="0.14676516" />
            <stop style="stop-color:#e2001a;stop-opacity:1" offset="0.36621189" />
            <stop style="stop-color:#cf001a;stop-opacity:1" offset="0.70826375" />
            <stop style="stop-color:#af0819;stop-opacity:1" offset="0.84236193" />
            <stop style="stop-color:#b30414;stop-opacity:1" offset="1" />
        </linearGradient>
        <radialGradient id="rg1" cx="-15.762797" cy="5.373209" r="11.5015" fx="-15.762797" fy="5.373209"
                        xlink:href="#lg1" gradientUnits="userSpaceOnUse" gradientTransform="matrix(9.2538966,9.2538963,9.8402399,-9.8402234,151.20406,246.25517)" />
        <linearGradient id="lg2" x1="921.27448" y1="14.045666" x2="1026.6995" y2="-57.260788"
                        gradientUnits="userSpaceOnUse" gradientTransform="matrix(1.6311504,0,0,1.6311504,-1487.2357,142.60073)">
            <stop style="stop-color:#464648;stop-opacity:1" offset="0" />
            <stop style="stop-color:#464648;stop-opacity:1" offset="0.04910786" />
            <stop style="stop-color:#919294;stop-opacity:1" offset="0.09470124" />
            <stop style="stop-color:#464648;stop-opacity:1" offset="0.15467197" />
            <stop style="stop-color:#515153;stop-opacity:1" offset="0.90608072" />
            <stop style="stop-color:#919294;stop-opacity:1" offset="0.95977587" />
            <stop style="stop-color:#515153;stop-opacity:1" offset="0.98384809" />
            <stop style="stop-color:#515153;stop-opacity:1" offset="1" />
            <stop style="stop-color:#515153;stop-opacity:1" offset="1" />
        </linearGradient>
        <g id="signet">
          <path
                  d="m 100.00005,9.9298405 c -49.78173,0 -90.070085,40.3393765 -90.070085,90.1210595 0,23.21094 8.765786,44.38414 23.19292,60.35257 -0.586578,0.82529 -4.131557,5.82686 -4.230797,5.96389 -1.480301,2.05205 -4.399653,5.40302 -1.47823,8.41062 2.921423,2.99975 8.283553,-1.31926 10.19469,-2.75257 0.236599,-0.17672 3.298774,-2.47891 4.28177,-3.21132 15.690917,13.2621 35.941306,21.25592 58.109732,21.25592 49.74245,0 90.06994,-40.28442 90.06994,-90.01911 0,-16.542002 -4.46315,-32.044847 -12.23363,-45.36637 2.89807,-3.024692 4.58517,-5.541133 4.53672,-7.595044 -0.11744,-4.299892 2.4389,-9.58942 -16.20946,-11.570974 -1.10429,-0.117769 -2.32488,-0.228018 -3.61919,-0.30584 C 146.34514,19.571456 124.2932,9.9298405 100.00005,9.9298405 z"
                  style="opacity:0.58064515;fill:#00001a;fill-opacity:1;fill-rule:nonzero;stroke:none;filter:url(#filter-bg-shadow)" />
          <path
                  d="m 183.97812,92.48321 c 0,49.73469 -40.32025,90.05503 -90.062831,90.05503 -49.781731,0 -90.1020075,-40.32034 -90.1020075,-90.05503 0,-49.781682 40.3202765,-90.1098532 90.1020075,-90.1098532 49.742581,0 90.062831,40.3281712 90.062831,90.1098532"
                  style="fill:url(#rg1);fill-opacity:1;fill-rule:nonzero;stroke:none" />
          <path
                  d="m 86.263269,44.784898 c 1.879738,1.433292 11.309745,6.95503 14.129351,8.717276 l 0.96336,0.689242 0.46993,-0.697072 c 0.99471,-1.6526 1.38632,-2.984075 -1.43329,-4.746337 -2.819606,-1.770076 -12.249613,-7.283984 -14.129351,-8.717276 l -3.078062,-2.490652 c 1.16699,3.226888 1.95022,6.383278 3.078062,7.244819"
                  style="fill:#4b4b4d;fill-opacity:1;fill-rule:nonzero;stroke:none" />
          <path
                  d="m 88.197814,67.451381 c 0,0 10.401209,-13.463614 11.395901,-15.116214 0.994695,-1.660429 1.386295,-2.984075 -1.433292,-4.754167 -2.819606,-1.762246 -12.249629,-7.276138 -14.129351,-8.709446 -1.871908,-1.433292 -1.542954,-6.735721 3.978768,-7.840059 5.513892,-1.104354 53.40801,-5.075292 72.06439,-3.085908 18.64855,1.981554 16.96461,8.725105 16.22055,11.583875 -1.08085,4.166758 -7.51111,10.487368 -17.66169,19.643243 0,0 -16.77664,15.562659 -29.01843,26.269318 -12.24961,10.69883 -51.42645,43.688207 -59.039371,49.656357 -7.620768,5.96817 -37.140463,27.92976 -39.059348,29.36306 -1.911072,1.43329 -7.268325,5.74886 -10.189748,2.74911 -2.921423,-3.00758 0,-6.35977 1.480302,-8.41182 1.480285,-2.04421 60.973935,-86.052766 65.391319,-91.347349"
                  style="fill:#ffffff;fill-opacity:1;fill-rule:nonzero;stroke:none" />
          <path
                  d="m 175.14351,33.052213 c 0.75979,1.832744 1.44112,5.333748 1.15127,6.477249 -1.0808,4.166758 -7.51112,10.487368 -17.66161,19.643243 0,0 -16.77666,15.562659 -29.01844,26.269318 -12.24961,10.69883 -51.426455,43.688207 -59.039392,49.656357 -7.620751,5.96817 -37.140447,27.92976 -39.059348,29.36305 -1.456797,1.09652 -7.957551,2.03638 -10.824151,1.95806 0.924209,1.32365 2.576809,2.77261 4.276403,4.43305 3.01541,2.91359 8.278675,-1.30799 10.197577,-2.74912 1.911056,-1.4333 31.438581,-23.41054 39.051519,-29.36304 7.612921,-5.96816 46.789762,-38.957527 59.039372,-49.656373 12.24179,-10.706659 29.01849,-26.269302 29.01849,-26.269302 10.15049,-9.155892 15.69575,-14.137197 16.77655,-18.303938 0.50125,-1.926731 1.17492,-7.941892 -3.90824,-11.458554"
                  style="fill:url(#lg2);fill-opacity:1" />
        </g>
    </defs>
  <use x="38.9"  y="5" transform="scale(1.32)" width="264.2" height="264.2" xlink:href="#signet"/>
  <use x="2790.5"  y="60.6" transform="scale(1.007)" xlink:href="#signet"/>
  <g style="fill:#000000">
    <path id="HypoVereinsbank"
       d="m 2044.1729,198.62632 c 0,19.39089 -15.0751,35.00793 -35.2737,35.00793 l -0.2763,0 0,-168.054439 c 0,-19.39089 15.0853,-35.007927 35.2842,-35.007927 l 0.2658,0 0,122.256736 44.7137,-66.241996 33.6578,0 -46.0532,67.326076 53.8566,79.72155 -37.6976,0 -48.4773,-74.6079 0,39.59997 M 1934.322,82.812749 c 50.3693,0 58.4488,28.278391 58.4488,45.245431 l 0,105.57606 -1.616,0 c -18.5829,0 -34.4658,-15.61704 -34.4658,-34.21021 l 0,-70.82382 c 0,-9.96134 -4.0397,-21.81474 -23.7067,-21.81474 -9.1535,0 -14.5433,1.07385 -20.4647,3.2318 0,2.42387 0,123.61697 0,123.61697 l -36.0921,0 0,-139.776056 c 15.3511,-6.729532 40.1317,-11.045435 57.8965,-11.045435 m -105.7193,72.439731 c -31.5101,2.97612 -50.6249,9.42953 -50.6249,34.48634 0,18.57271 11.3113,26.92839 30.6921,26.92839 7.5476,0 16.435,-0.54205 19.9328,-1.35 l 0,-60.06473 z m 0,-16.69089 0,-9.96136 c 0,-19.12499 -11.8533,-24.23862 -29.0863,-24.23862 -14.2669,0 -28.5444,5.37953 -44.4274,13.73521 l 0,-23.972713 c 9.4297,-4.581804 27.1945,-11.311358 50.3489,-11.311358 30.4365,0 55.7489,15.351135 55.7489,53.059061 l 0,95.87039 c -9.9715,1.89204 -33.1261,4.03977 -47.1273,4.03977 l -7.5375,0 c -39.8557,0 -60.5964,-16.70113 -60.5964,-44.97952 0,-38.77155 37.7079,-47.93518 82.6771,-52.24086 m -174.2829,74.33176 c 3.4977,0.80795 11.8635,1.35 16.9671,1.35 24.5043,0 36.6339,-18.59317 36.6339,-51.97497 0,-30.71247 -10.2373,-54.95109 -39.0476,-54.95109 -5.124,0 -9.9717,1.08408 -14.5534,2.42385 l 0,103.15221 z m 0,-182.321466 0,61.404496 c 6.4637,-1.892028 14.0114,-3.231805 22.0909,-3.231805 37.9636,0 64.0942,27.736345 64.0942,75.671535 0,46.04315 -24.2488,71.36586 -66.7839,71.36586 l -6.2082,0 c -11.301,0 -38.2295,-1.88182 -48.7328,-4.03977 l 0,-166.97034 c 0,-18.848841 15.0751,-34.199976 33.934,-34.199976 l 1.6058,0 m -46.4726,160.230566 c 0,23.69658 -20.7307,44.97952 -52.5067,44.97952 -16.9671,0 -31.5206,-4.84773 -40.1217,-10.5034 l 0,-30.16021 c 10.2273,12.11931 23.9624,15.88294 35.816,15.88294 13.4589,0 22.3465,-7.8034 22.3465,-19.6568 0,-12.37499 -6.4637,-18.04091 -21.283,-23.97271 -27.4601,-10.50341 -33.9238,-26.65225 -33.9238,-41.73748 0,-23.15452 19.1249,-42.821561 46.8613,-42.821561 16.425,0 25.3024,4.315924 34.7319,10.237505 l 0,27.194296 c -9.4295,-11.30113 -17.7648,-14.54318 -27.9922,-14.54318 -13.4693,0 -21.0067,8.07955 -21.0067,18.31703 0,11.85341 8.8876,18.04089 21.8046,23.16477 28.0124,11.58748 35.2738,26.66247 35.2738,43.61928 M 1446.5837,82.812749 c 50.3591,0 58.4386,28.278391 58.4386,45.245431 l 0,105.57606 -1.6262,0 c -18.5625,0 -34.4659,-15.61704 -34.4659,-34.21021 l 0,-70.82382 c 0,-9.96134 -4.0396,-21.81474 -23.6965,-21.81474 -9.1636,0 -14.5432,1.07385 -20.4647,3.2318 0,2.42387 0,123.61697 0,123.61697 l -36.0818,0 0,-139.776056 c 15.3409,-6.729532 40.1215,-11.045435 57.8965,-11.045435 m -73.6875,0 0,150.821491 -1.6058,0 c -18.8487,0 -33.9442,-15.35113 -33.9442,-33.9443 l 0,-116.877191 35.55,0 z m 1.892,-34.199975 c 0,9.695434 -8.8874,17.509064 -19.6568,17.509064 -10.7692,0 -19.3908,-7.81363 -19.3908,-17.509064 0,-9.961358 8.6216,-18.040911 19.3908,-18.040911 10.7694,0 19.6568,8.079553 19.6568,18.040911 m -78.4534,90.756766 c -1.0637,-29.8943 -19.6568,-33.12612 -29.6181,-33.12612 l -1.3398,0 c -20.2091,0.54205 -29.6388,14.81931 -29.6388,41.47157 l 60.5967,-8.34545 z m 31.2443,20.46476 -89.6727,12.39544 c 2.9557,24.50454 15.3409,37.4318 37.9739,37.4318 25.0362,0 37.6976,-8.07954 46.8613,-14.54318 l 0,29.8943 c -9.1637,4.84773 -26.1206,10.76931 -50.3591,10.76931 -43.9056,0 -70.0261,-29.61816 -70.0261,-77.01132 0,-46.0636 24.2387,-75.957901 64.0942,-75.957901 39.3137,0 61.1285,26.130671 61.1285,71.365871 l 0,5.65568 m -140.134,-77.021551 c 5.9114,0 13.4489,0.542049 20.1989,1.615903 l 0,28.820448 c -12.3954,-8.88751 -28.8205,-5.93183 -36.0921,-2.15796 l 0,88.5988 c 0,18.59317 -15.3511,33.9443 -33.9238,33.9443 l -1.892,0 0,-139.244231 c 14.0114,-6.729532 28.2783,-11.57726 51.709,-11.57726 m -95.1852,56.556791 c -1.0842,-29.8943 -19.6568,-33.12612 -29.6284,-33.12612 l -1.3499,0 c -20.1989,0.54205 -29.6184,14.81931 -29.6184,41.47157 l 60.5967,-8.34545 z m 31.2239,20.46476 -89.6727,12.39544 c 2.9557,24.50454 15.3511,37.4318 37.9739,37.4318 25.0566,0 37.718,-8.07954 46.8612,-14.54318 l 0,29.8943 c -9.1432,4.84773 -26.1205,10.76931 -50.359,10.76931 -43.8954,0 -70.02615,-29.61816 -70.02615,-77.01132 0,-46.0636 24.24895,-75.957901 64.09425,-75.957901 39.334,0 61.1285,26.130671 61.1285,71.365871 l 0,5.65568 M 1016.2101,30.571884 960.46117,209.93767 c -4.3159,13.72499 -17.78502,23.69658 -33.12593,23.69658 l -9.6955,0 -64.09423,-203.062366 38.24993,0 44.69301,157.274886 37.98412,-133.312394 c 4.02964,-14.267036 18.57267,-23.962492 34.46583,-23.962492 l 7.2717,0 M 840.64871,159.02633 c 0,-15.35113 -3.76361,-52.24086 -32.042,-52.24086 -29.09651,0 -31.51016,40.39768 -31.51016,52.24086 0,11.86363 2.41365,51.17724 31.51016,51.17724 29.88415,0 32.042,-39.31361 32.042,-51.17724 z m 33.40218,0.2659 c 0,46.60566 -25.05664,76.48973 -65.44418,76.48973 -40.408,0 -65.45442,-29.88407 -65.45442,-76.48973 0,-47.11701 24.51458,-76.479481 65.45442,-76.479481 40.92961,0 65.44418,29.362471 65.44418,76.479481 m -175.0293,-0.52158 c 0,-36.09202 -10.22735,-53.06928 -33.65799,-53.06928 -5.93189,0 -10.51361,0.81817 -15.08511,2.4341 l 0,102.59992 c 3.49758,1.35 7.54767,1.89204 12.65101,1.89204 29.90461,0 36.09209,-29.62838 36.09209,-53.85678 z m 35.81583,-1.0841 c 0,46.86134 -25.5887,78.09541 -64.6363,78.09541 -7.80347,0 -14.80906,-1.08409 -19.92263,-2.42386 l 0,26.12044 c 0,18.59317 -15.08531,33.94429 -33.65799,33.94429 l -1.8818,0 0,-199.564646 0.79766,-0.542028 c 13.20352,-6.995455 30.1602,-10.503407 50.6249,-10.503407 42.82164,0 68.67616,28.278391 68.67616,74.873801 m -160.44537,-74.873801 33.93403,0 -61.68058,189.061231 c -4.03965,12.38522 -15.8932,21.54885 -31.51015,21.54885 l -11.56708,0 23.68645,-68.14427 -47.12732,-142.465811 38.23971,0 27.2147,99.654471 28.81024,-99.654471 m -103.30562,150.821501 -35.01817,0 0,-90.49086 -62.74427,0 0,53.32497 c 0,20.73067 -16.69087,37.43179 -37.15578,37.43179 l 0,-166.704437 c 0,-20.198841 16.14901,-36.623829 36.88975,-36.623829 l 0.26603,0 0,85.632886 62.74427,0 0,-50.359057 c 0,-19.39089 15.35113,-35.273829 34.74192,-35.273829 l 0.27625,0 0,203.062366"/>
    <path id="MemberOf"
       d="m 2752.6295,204.94833 0,-29.01411 -7.353,0 c 0,0 0,-0.93221 0,-1.86442 0,-0.9322 0,-1.86441 0,-1.86441 l 7.1084,0 0.421,-8.56334 c 0.3356,-7.01986 0.8989,-9.57951 2.7769,-12.61808 3.3821,-5.6593 8.9144,-7.46328 15.0843,-7.58283 0,0 -0.1587,4.45545 -0.1587,4.45545 0,0 -1.4651,-0.15955 -4.1286,1.07762 -5.4284,2.52151 -6.8414,5.57043 -7.0687,15.25365 l -0.1816,7.72049 11.5806,0.057 c 0,0 0,3.88609 0,3.88609 l -11.5806,0.0569 -0.2651,29.25 -0.2651,29.25 -2.9849,0 -2.9849,0 0,-29.5 0,-2e-5 z m -111,0.0257 0,-29.47432 3.0477,-1.57602 c 4.2643,-2.6661 19.7317,-4.02925 20.6203,-3.1407 0.2134,0.21339 -0.049,1.53607 -0.582,2.93929 -0.8691,2.28579 -1.3802,2.49629 -4.9114,2.02266 -2.1678,-0.29076 -5.5689,0.008 -7.558,0.66493 l -3.6166,1.19358 0,28.42245 0,28.42245 -3.5,0 -3.5,0 0,-29.47432 z m -193,-0.44531 0,-29.91964 5.25,-1.74422 c 7.771,-2.58176 21.0382,-2.41826 26.3169,0.32433 2.2368,1.16214 4.6352,2.79771 5.3297,3.63459 1.1104,1.33799 1.742,1.17448 5.2338,-1.3549 10.1423,-7.34705 24.5058,-5.83138 31.2777,3.30048 1.9789,2.66859 2.1079,4.24893 2.3885,29.25 l 0.2966,26.42899 -3.0466,0 -3.0466,0 0,-24.03212 c 0,-25.35963 -0.4577,-28.4498 -4.7844,-32.30263 -4.5985,-4.09492 -15.249,-3.33086 -20.737,1.48767 l -3.4786,3.05426 0,25.89641 0,25.89641 -3,0 -3,0 0,-24.25 c 0,-27.36794 -0.5082,-29.75624 -6.9984,-32.99845 -4.0169,-2.00667 -13.9787,-2.35214 -18.8508,-0.65372 l -3.1492,1.09782 0,28.40218 0,28.40217 -3,0 -3,0 0,-29.91963 z m -137.9468,27.66963 c 0.029,-1.2375 2.1668,-19.125 4.75,-39.75 l 4.6968,-37.5 3.9967,0 3.9967,0 9.1493,33 c 5.0321,18.15 9.4799,34.35 9.8841,36 0.599,2.4456 0.817,2.6304 1.1798,1 0.2448,-1.1 4.6859,-17.19051 9.8692,-35.75669 5.1833,-18.56618 9.4242,-33.97868 9.4242,-34.25 0,-0.27132 1.7796,-0.49331 3.9547,-0.49331 3.6811,0 3.9931,0.22484 4.5101,3.25 0.5449,3.18793 9.5352,74.99328 9.5352,76.15697 0,0.32617 -1.3296,0.59303 -2.9547,0.59303 -2.5538,0 -3.0294,-0.4409 -3.5054,-3.25 -0.5828,-3.43887 -7.5066,-67.04248 -7.587,-69.69537 -0.026,-0.85504 -3.5872,11.27037 -7.914,26.94537 -4.3268,15.675 -8.9311,32.325 -10.2317,37 -2.2831,8.20637 -2.4731,8.5106 -5.5005,8.80698 -2.3229,0.22741 -3.2785,-0.1614 -3.6865,-1.5 -0.303,-0.99384 -4.8492,-17.52727 -10.1028,-36.74096 -5.2536,-19.21369 -9.7692,-35.15119 -10.0347,-35.41667 -0.2655,-0.26548 -0.4709,1.05482 -0.4565,2.93398 0.014,1.87917 -1.6428,18.60417 -3.6827,37.16667 l -3.7088,33.75 -2.8174,0 c -2.2707,0 -2.807,-0.43649 -2.7641,-2.25 z M 2718.317,170.8546 c -1.7007,-0.004 -3.4603,0.20992 -5.3125,0.625 -6.6678,1.49428 -11.1363,5.23119 -14.2188,11.875 -2.1912,4.72312 -2.6479,7.34118 -2.9687,16.6875 -0.2112,6.15613 0.1095,13.57083 0.75,16.65625 1.5316,7.37778 6.0462,14.02911 11.3437,16.71875 3.3945,1.72336 5.6239,2.06911 11.4063,1.8125 6.2798,-0.27869 7.6544,-0.70211 11,-3.40625 7.7766,-6.28548 10.8421,-16.16762 10.0313,-32.1875 -0.4535,-8.95732 -0.9413,-11.1714 -3.6876,-16.75 -2.4547,-4.98646 -4.0912,-6.95316 -7.3437,-8.8125 -3.778,-2.15975 -7.2584,-3.2098 -11,-3.21875 z m -1,4.28125 c 1.3494,-0.0308 2.7975,0.0886 4.3125,0.40625 9.5613,2.00476 15.1765,19.4799 12.0625,37.5 -1.6007,9.263 -4.8702,14.70371 -10.0625,16.78125 -5.1038,2.04217 -6.5347,2.01963 -11.5312,-0.25 -7.7069,-3.50068 -10.9442,-12.69707 -10.25,-29.0625 0.6992,-16.48454 6.0226,-25.15962 15.4687,-25.375 z m -108.7813,-4.03125 c -4.2001,0.0799 -5.9201,0.68868 -9.5624,2.9375 -3.887,2.39985 -5.5402,4.34837 -8.3438,9.84375 -3.4353,6.73309 -3.4907,7.09265 -3.4688,18.96875 0.019,10.29497 0.3552,12.79643 2.2188,16.875 3.4475,7.54518 5.8933,10.34662 11.4688,13.125 4.1123,2.04925 6.9418,2.71323 12.5224,2.77596 6.7011,0.0753 11.484,-1.43102 17.3155,-4.18674 0,0 -2.216,-4.30235 -2.216,-4.30235 0,0 -2.688,1.06024 -4.7157,1.77563 -5.3841,1.89961 -14.1276,1.98831 -18.4375,0.1875 -6.5218,-2.72499 -11.3993,-10.56264 -11.9375,-19.125 l -0.25,-3.90625 11,-1.6875 c 6.05,-0.9253 14.9912,-2.24981 19.875,-2.9375 l 8.875,-1.25 -0.5938,-5.625 c -0.9282,-8.50874 -2.4336,-12.83487 -5.8437,-16.71875 -4.4857,-5.10891 -8.2471,-6.6796 -15.9375,-6.75 -0.7146,-0.007 -1.3687,-0.0114 -1.9688,0 z m 1.4376,4.625 c 3.7344,-0.0103 7.7487,1.01037 10,2.78125 2.9226,2.299 5.6113,8.79916 5.9374,14.40625 l 0.2188,3.96875 -16.75,2.59375 -16.75,2.59375 0,-3.625 c 0,-9.68006 5.7844,-19.77365 12.625,-22.03125 1.3934,-0.45987 3.0213,-0.68282 4.7188,-0.6875 z m -73.3438,-32.28125 0,43.96875 0,43.96875 2.1875,1.15625 c 1.2054,0.6451 3.3429,1.54178 4.75,1.96875 1.4071,0.42698 5.7125,0.80855 9.5625,0.84375 11.3775,0.104 18.7995,-4.73289 23.6875,-15.40625 1.9785,-4.32035 2.3025,-6.63117 2.3125,-17 0.01,-10.49724 -0.3022,-12.66477 -2.375,-17.25 -2.7584,-6.10161 -8.2933,-11.50067 -13.5938,-13.25 -3.6934,-1.21897 -13.7293,-0.91646 -18.2812,0.53125 l -2.25,0.6875 0,-15.09375 0,-15.125 -3,0 -3,0 z m 16.4688,32.125 c 4.1597,-0.0868 8.5263,0.79209 10.7187,2.4375 13.3442,10.01489 12.7582,42.70702 -0.9063,50.6875 -3.8023,2.22068 -12.4707,3.08583 -17.0312,1.6875 l -3.25,-1 0,-25.53125 0,-25.5 3.7188,-1.5625 c 1.8419,-0.7696 4.2541,-1.16666 6.75,-1.21875 z m -136.8438,-4.6875 c -8.3102,0.2393 -15.8321,5.17955 -19.7188,13.78125 -2.1429,4.74264 -2.8921,6.80757 -2.8921,18.90272 0,12.75509 0.6389,13.67006 3.2047,18.53478 3.0017,5.6915 8.8513,10.41073 13.2812,12.28125 5.0572,2.13539 17.2943,1.30748 21.8125,-0.53125 4.6705,-1.59142 4.996,-1.78982 4.996,-1.78982 0,0 -2.0788,-4.73105 -2.0788,-4.73105 0,0 -2.389,0.75941 -4.1359,1.45837 -5.7493,2.30036 -15.2122,2.16193 -20.0626,-0.3125 -6.0956,-3.1098 -11.0312,-11.83345 -11.0312,-19.46875 l 0,-3.1875 8.9688,-1.21875 c 4.9367,-0.65729 13.7118,-1.91713 19.5,-2.8125 l 10.5312,-1.625 0,-4.6875 c 0,-9.85113 -4.3591,-18.64757 -10.8438,-21.90625 -3.8298,-1.92459 -7.7538,-2.79627 -11.5312,-2.6875 z m 1.3438,4.78125 c 0.8994,-0.002 1.7692,0.0641 2.5937,0.21875 6.9566,1.30507 12.4215,9.24424 12.4375,18.09375 l 0,3.03125 -15.25,2.25 c -20.2285,2.99078 -18.845,3.17865 -18.0938,-2.5625 0.9281,-7.09356 4.1281,-14.93505 7.0313,-17.21875 3.0037,-2.36273 7.3838,-3.8031 11.2813,-3.8125 z"/>
    <path id="UniCredit"
       d="m 3662.0969,104.45063 c -5.0278,-2.4888 -7.4674,-6.49793 -7.4674,-12.27171 0,-7.9339 5.8083,-12.73057 15.4155,-12.73057 4.7344,0 6.0117,0.43621 9.0254,3.08227 7.9781,7.00486 6.2103,18.43941 -3.4482,22.30399 -5.3204,2.12879 -8.6394,2.03457 -13.5253,-0.38398 z m -413.2555,-0.12643 c -5.0668,-2.50799 -7.2119,-6.13424 -7.2119,-12.19133 0,-7.93318 5.8314,-12.68452 15.568,-12.68452 5.2499,0 5.9532,0.28594 9.5496,3.88235 3.4008,3.40072 3.8824,4.46138 3.8824,8.54966 0,6.41703 -2.2696,10.33333 -7.3163,12.62461 -5.4474,2.4732 -9.205,2.42627 -14.4718,-0.18077 z m 406.7881,72.76342 0,-57.63929 13.5,0 13.5,0 0,47.53212 c 0,51.46628 0.068,50.75688 -5.5648,58.14176 -3.4583,4.53405 -10.2576,8.28087 -16.3327,9.00039 l -5.1025,0.60431 0,-57.63929 z m -263,3.98385 0,-53.37685 4.75,-2.0325 c 11.3455,-4.85467 17.0002,-6.53552 34.2218,-6.53552 7.6537,0 15.9534,0.88244 15.9534,0.88244 0,0 0.1212,21.64794 0.1212,21.64794 0,0 -16.018,-4.54014 -23.7964,-2.08104 l -3.25,1.02746 0,35.24095 c 0,39.63042 -0.3371,42.13292 -6.6719,49.5337 -4.2784,4.9984 -12.1317,9.04629 -17.5781,9.06048 l -3.75,0.01 0,-53.37686 0,-2e-4 z m -150,-3.98385 0,-57.63929 13.5,0 13.5,0 0,47.53212 c 0,51.46628 0.068,50.75688 -5.5648,58.14176 -3.4583,4.53405 -10.2576,8.28087 -16.3327,9.00039 l -5.1025,0.60431 0,-57.63929 z m -101,3.50638 0,-53.85432 7.5205,-2.23259 c 12.0954,-3.59072 22.0985,-4.98662 36.0011,-5.02387 24.2554,-0.065 36.1742,5.85967 43.1821,21.46511 1.6265,3.62192 1.8245,8.24347 2.0946,48.89501 l 0.2983,44.89502 -5.242,-0.62084 c -9.4113,-1.11463 -19.3245,-9.49846 -21.809,-18.44445 -0.6072,-2.18631 -1.0458,-16.52863 -1.062,-34.72474 -0.032,-36.34764 -0.2725,-37.52507 -8.4649,-41.49094 -4.0999,-1.98473 -5.7733,-2.2127 -12.9538,-1.76473 -4.5351,0.28294 -9.2175,1.03454 -10.4053,1.67023 l -2.1596,1.15581 0,46.96481 0,46.96482 -13.5,0 -13.5,0 0,-53.85433 z m 582.9874,54.56157 c -10.2627,-2.32829 -16.8189,-8.03335 -19.4627,-16.93614 -1.2423,-4.1832 -1.5247,-11.76803 -1.5247,-40.95258 l 0,-35.8185 -6,0 -6,0 0,-11 0,-11 6,0 6,0 0,-8.84107 c 0,-14.96317 3.6098,-22.60032 13.3128,-28.1652 3.7432,-2.1468 6.5095,-2.97757 9.9372,-2.98435 l 4.75,-0.0094 0,20 0,20 8.5,0 8.5,0 0,11 0,11 -8.5,0 -8.5,0 0,32.56574 c 0,20.16119 0.3874,33.28958 1.017,34.46604 1.3773,2.57347 7.5469,4.10393 12.233,3.03458 l 3.75,-0.85574 0,11.41944 0,11.41944 -2.75,1.05025 c -4.3518,1.66199 -15.2429,1.97315 -21.2626,0.60747 z m -81.9874,-155.70722 -4.25,0.0312 c -8.5752,0.0471 -19.1841,8.73605 -21.6875,17.75 -0.5689,2.04861 -1.0625,9.0264 -1.0625,15.5 l 0,11.75 -9.25,-0.625 c -25.832,-1.77021 -43.4637,9.87413 -51.4062,33.9375 -2.4212,7.33484 -2.7173,9.66877 -2.7813,23.15625 -0.062,12.87759 0.265,16.0124 2.1875,22.125 5.5321,17.58956 18.1236,28.53473 36.6875,31.90625 3.89,0.70649 9.5375,1.30655 12.5625,1.34375 6.0721,0.0746 28.0768,-1.48238 34.75,-2.46875 l 4.25,-0.625 0,-76.90625 0,-76.875 z m -33.8125,60.96875 c 1.6681,0.0125 3.1545,0.1547 4.2813,0.4375 l 2.5312,0.625 0,38 0,37.96875 -4.25,0 c -2.3375,0.008 -5.15,0.19031 -6.25,0.40625 -4.9956,0.98066 -13.2053,-2.30165 -17.625,-7.0625 -5.9211,-6.37805 -8.3415,-15.45401 -8.3125,-31.34375 0.034,-18.65116 5.2535,-31.38985 14.9063,-36.375 3.1091,-1.60571 9.7143,-2.69368 14.7187,-2.65625 z m -158.3005,15.03025 c -6.5889,38.60302 1.6475,54.30375 12.241,66.05241 7.5976,8.42612 25.2272,15.50154 40.9042,14.88911 16.5656,-0.64713 23.2624,-3.71736 36.0752,-7.59324 l -0.045,-23.34728 -6.2813,3.4375 c -8.9286,4.86517 -16.7692,6.85957 -27.2812,6.96875 -11.2219,0.11656 -16.7879,-1.82176 -22.2812,-7.78125 -4.2475,-5.71345 -9.1678,-13.11552 -7.9688,-20.625 0,0 67.5307,-9.12147 67.5307,-9.12147 0,0 0.068,-8.45318 -0.093,-10.62853 -1.7002,-22.94534 -9.206,-36.87434 -25.5,-44.59375 -6.5131,-3.08562 -13.2526,-4.24436 -20.9929,-4.61391 -22.7708,-1.08717 -43.0913,18.11283 -46.3077,36.95666 z m 46.613,-18.124 c 7.7148,-0.0624 12.0693,1.74269 16.2188,6.46875 4.1772,4.75756 5.9916,14.64768 6.26,18.53478 l -45.7494,6.24294 c -1.7819,-17.57739 7.404,-31.11822 23.2706,-31.24647 z m -160.1777,98.09542 c -17.3576,-3.12829 -32.1881,-13.18381 -42.4198,-28.76186 -9.442,-14.37567 -14.0345,-30.96893 -14.0345,-50.70856 0,-25.63613 7.2376,-44.60146 23.1135,-60.56607 13.6478,-13.72403 25.6401,-18.50387 46.0185,-18.34179 12.5076,0.0995 20.9712,1.83938 29.1786,5.99836 l 4.8214,2.44319 0,13.57583 0,13.57582 -5.0967,-4.58235 c -9.0669,-8.15199 -23.5315,-10.77073 -36.1019,-6.53608 -17.9616,6.05083 -29.8366,23.0504 -32.8686,47.05292 -2.9622,23.4505 9.5951,49.99075 28.1005,59.39138 13.7504,6.98506 32.5261,4.86859 42.7167,-4.81518 l 3.25,-3.08836 0,13.67932 0,13.67932 -4.9832,2.52518 c -2.7408,1.38884 -7.5783,3.20445 -10.75,4.03467 -7.2223,1.89049 -24.0982,2.67813 -30.9445,1.44426 z m -269.8253,-0.42369 c -15.2311,-2.76823 -28.8018,-12.63548 -34.8039,-25.30598 l -3.1931,-6.74075 -0.2843,-51.77822 c -0.2681,-48.82282 -0.1772,-52.0192 1.5918,-56 1.0319,-2.32198 3.0829,-5.64929 4.5578,-7.39403 3.6603,-4.32992 11.9802,-8.32775 17.331,-8.32775 l 4.3037,0 0.022,58.25 c 0.025,65.73714 -0.2885,62.94215 7.8346,69.89525 9.1652,7.84511 22.1192,7.84714 31.2811,0.005 7.5427,-6.45626 7.3023,-4.58447 7.8623,-61.2307 l 0.5,-50.58056 3.0359,-4.91944 c 3.9291,-6.36686 11.9815,-11.41955 18.1991,-11.41955 l 4.3235,0 -0.2792,61.75 -0.2793,61.75 -3.2279,6.81505 c -6.1268,12.93542 -19.3887,22.44277 -35.2549,25.27385 -9.1441,1.63162 -14.3622,1.62227 -23.5202,-0.0422 z"/>
  </g>
</svg>
